<svg width="294" height="80" viewBox="0 0 294 80" fill="none" xmlns="http://www.w3.org/2000/svg">
<rect width="294" height="80" rx="5" fill="#EBFFFE" fill-opacity="0.5"/>
<path fill-rule="evenodd" clip-rule="evenodd" d="M137.061 37.2112C135.924 37.2112 135.394 38.1208 135.09 38.6513C134.939 38.9545 134.939 39.2577 134.787 39.2577C134.636 39.2577 134.711 39.0303 134.636 38.5755C134.484 37.8934 133.953 37.2112 132.817 37.2112C131.604 37.2112 131.073 38.1966 130.846 38.8029C130.694 39.1819 130.694 39.2577 130.543 39.2577C130.391 39.2577 130.543 38.9545 130.618 38.5755C130.77 37.8934 130.694 37.3628 130.694 37.3628H128.799V44.4877H131.376C131.376 44.4877 131.376 41.5316 131.376 40.9252C131.376 40.2431 131.68 39.3335 132.134 39.3335C132.741 39.3335 132.817 39.7883 132.817 40.6221V44.4877H135.394C135.394 44.4877 135.394 41.4558 135.394 40.9252C135.394 40.3189 135.621 39.3335 136.227 39.3335C136.834 39.3335 136.91 39.9399 136.91 40.6221V44.4877H139.487C139.487 44.4877 139.487 41.6832 139.487 40.3189C139.411 38.4997 138.729 37.2112 137.061 37.2112Z" fill="#101828"/>
<path fill-rule="evenodd" clip-rule="evenodd" d="M181.023 37.2112C179.886 37.2112 179.356 38.1208 179.053 38.6513C178.901 38.9545 178.901 39.2577 178.749 39.2577C178.598 39.2577 178.674 38.9545 178.598 38.5755C178.37 37.8934 177.916 37.2112 176.779 37.2112C175.566 37.2112 175.035 38.1966 174.808 38.8029C174.656 39.1819 174.656 39.2577 174.505 39.2577C174.353 39.2577 174.505 38.9545 174.58 38.5755C174.732 37.8934 174.656 37.3628 174.656 37.3628H172.761V44.4877H175.338C175.338 44.4877 175.338 41.5316 175.338 40.9252C175.338 40.2431 175.642 39.3335 176.096 39.3335C176.703 39.3335 176.779 39.7883 176.779 40.6221V44.4877H179.356C179.356 44.4877 179.356 41.4558 179.356 40.9252C179.356 40.3189 179.583 39.3335 180.189 39.3335C180.796 39.3335 180.872 39.9399 180.872 40.6221V44.4877H183.449C183.449 44.4877 183.449 41.6832 183.449 40.3189C183.373 38.4997 182.767 37.2112 181.023 37.2112Z" fill="#101828"/>
<path d="M143.807 37.2112C141.836 37.2112 140.396 37.9692 140.396 37.9692V40.0915C140.396 40.0915 141.988 39.1819 143.276 39.1819C144.262 39.1819 144.413 39.7125 144.338 40.1673C144.338 40.1673 144.034 40.0915 143.125 40.0915C141.003 40.0915 139.941 41.0768 139.941 42.5928C139.941 44.0329 141.154 44.6393 142.14 44.6393C143.58 44.6393 144.262 43.6539 144.489 43.1991C144.641 42.896 144.641 42.6686 144.792 42.6686C144.944 42.6686 144.868 42.8202 144.868 43.1233C144.868 43.6539 144.868 44.1087 144.944 44.4877H146.915V41.001C146.991 38.8029 146.157 37.2112 143.807 37.2112ZM143.201 42.896C142.594 43.0475 142.291 42.8202 142.291 42.4412C142.291 41.9106 142.897 41.6832 143.731 41.6832H144.413C144.413 41.9106 143.883 42.7444 143.201 42.896Z" fill="#101828"/>
<path fill-rule="evenodd" clip-rule="evenodd" d="M151.235 35.2405H153.812V44.5635H151.235V35.2405Z" fill="#101828"/>
<path fill-rule="evenodd" clip-rule="evenodd" d="M156.692 41.001C156.692 40.3947 157.299 39.7883 158.36 39.7883C159.573 39.7883 160.482 40.3947 160.71 40.4705V37.9692C160.71 37.9692 159.952 37.2112 158.057 37.2112C156.086 37.2112 154.494 38.3482 154.494 40.8494C154.494 43.3507 156.01 44.7151 158.057 44.7151C159.724 44.7151 160.71 43.8055 160.71 43.8055V41.4558C160.407 41.6074 159.497 42.2138 158.36 42.2138C157.147 42.2138 156.692 41.6832 156.692 41.001Z" fill="#101828"/>
<path fill-rule="evenodd" clip-rule="evenodd" d="M165.94 37.2112C164.424 37.2112 163.893 38.6513 163.742 38.8787C163.59 39.1061 163.59 39.2577 163.438 39.2577C163.287 39.2577 163.363 38.9545 163.438 38.7271C163.59 38.3482 163.817 37.4386 163.817 36.2258C163.817 35.3921 163.742 35.1647 163.742 35.1647H161.468V44.4877H164.045C164.045 44.4877 164.045 41.5316 164.045 40.9252C164.045 40.3189 164.272 39.3335 164.954 39.3335C165.485 39.3335 165.636 39.7125 165.636 40.5463V44.4877H168.214C168.214 44.4877 168.214 42.2896 168.214 40.6978C168.365 38.9545 168.062 37.2112 165.94 37.2112Z" fill="#101828"/>
<path fill-rule="evenodd" clip-rule="evenodd" d="M169.199 37.4386V44.5635H171.776V37.4386C171.776 37.4386 171.321 37.666 170.487 37.666C169.654 37.666 169.199 37.4386 169.199 37.4386Z" fill="#101828"/>
<path fill-rule="evenodd" clip-rule="evenodd" d="M170.487 37.287C171.367 37.287 172.079 36.8119 172.079 36.2258C172.079 35.6398 171.367 35.1647 170.487 35.1647C169.608 35.1647 168.896 35.6398 168.896 36.2258C168.896 36.8119 169.608 37.287 170.487 37.287Z" fill="#101828"/>
<path fill-rule="evenodd" clip-rule="evenodd" d="M147.824 44.5635H150.401V37.4386C150.401 37.4386 149.947 37.666 149.113 37.666C148.279 37.666 147.824 37.4386 147.824 37.4386V44.5635Z" fill="#101828"/>
<path fill-rule="evenodd" clip-rule="evenodd" d="M149.113 37.287C149.992 37.287 150.705 36.8119 150.705 36.2258C150.705 35.6398 149.992 35.1647 149.113 35.1647C148.234 35.1647 147.521 35.6398 147.521 36.2258C147.521 36.8119 148.234 37.287 149.113 37.287Z" fill="#101828"/>
<path d="M188.527 37.2112C187.163 37.2112 186.556 38.1966 186.329 38.8029C186.177 39.1819 186.177 39.2577 186.026 39.2577C185.874 39.2577 186.026 38.9545 186.102 38.5755C186.253 37.8934 186.177 37.3628 186.177 37.3628H184.282V46.4584H186.86C186.86 46.4584 186.86 44.9425 186.86 43.5781C187.163 44.1087 187.769 44.6393 188.603 44.6393C190.498 44.6393 191.407 43.0475 191.407 40.9252C191.407 38.5755 190.27 37.2112 188.527 37.2112ZM187.845 43.0475C187.239 43.0475 186.784 42.2896 186.784 41.2284C186.784 40.2431 187.239 39.4093 187.769 39.4093C188.527 39.4093 188.83 40.0915 188.83 41.2284C188.83 42.3654 188.527 43.0475 187.845 43.0475Z" fill="#101828"/>
<path fill-rule="evenodd" clip-rule="evenodd" d="M119.476 39.4093H120.007C120.083 39.1819 120.083 38.8787 120.007 38.4997C119.855 37.9692 119.704 37.5902 119.401 37.666C119.097 37.7418 119.022 38.1208 119.173 38.7271C119.249 38.9545 119.401 39.2577 119.476 39.4093Z" fill="#101828"/>
<path fill-rule="evenodd" clip-rule="evenodd" d="M116.672 39.8641C116.899 39.9399 117.051 40.0157 117.127 39.9399C117.127 39.9399 117.127 39.8641 117.127 39.7125C116.975 39.4851 116.748 39.3335 116.52 39.1819C115.99 38.9545 115.383 39.0303 114.929 39.4093C114.777 39.5609 114.625 39.7125 114.625 39.7883C114.625 39.7883 114.625 39.8641 114.701 39.8641C114.853 39.8641 115.308 39.6367 115.838 39.6367C116.141 39.6367 116.444 39.7125 116.672 39.8641Z" fill="#101828"/>
<path fill-rule="evenodd" clip-rule="evenodd" d="M116.217 40.0915C115.914 40.1673 115.762 40.2431 115.611 40.3189C115.535 40.3947 115.459 40.4705 115.459 40.5463V40.6221H115.535C115.611 40.6221 115.762 40.5463 115.762 40.5463C116.217 40.3947 116.444 40.3947 116.748 40.4705H116.975V40.3947C116.899 40.2431 116.596 40.0915 116.217 40.0915Z" fill="#101828"/>
<path fill-rule="evenodd" clip-rule="evenodd" d="M118.567 41.1526C118.794 41.2284 119.022 41.2284 119.097 41.0768C119.173 40.9252 119.097 40.6978 118.87 40.6221C118.643 40.5463 118.415 40.5463 118.339 40.6978C118.264 40.7736 118.339 41.001 118.567 41.1526Z" fill="#101828"/>
<path fill-rule="evenodd" clip-rule="evenodd" d="M119.931 39.9399C119.78 39.9399 119.628 40.0915 119.628 40.3947C119.628 40.6221 119.78 40.8494 119.931 40.8494C120.083 40.8494 120.234 40.6978 120.234 40.3947C120.234 40.1673 120.083 39.9399 119.931 39.9399Z" fill="#101828"/>
<path fill-rule="evenodd" clip-rule="evenodd" d="M108.41 44.1845C108.334 44.1087 108.334 44.1845 108.258 44.1845C108.183 44.1845 108.183 44.1845 108.107 44.1845C107.955 44.1845 107.879 44.1087 107.804 44.0329C107.728 43.8813 107.728 43.7297 107.804 43.5023C107.804 43.5023 107.804 43.4265 107.879 43.4265C108.031 43.1233 108.258 42.5928 107.955 42.138C107.728 41.759 107.425 41.5316 107.046 41.4558C106.667 41.38 106.288 41.5316 106.06 41.8348C105.681 42.2138 105.606 42.8202 105.681 43.0475C105.681 43.1233 105.757 43.1233 105.757 43.1233C105.833 43.1233 105.909 43.0475 105.985 42.896C105.985 42.896 105.985 42.896 105.985 42.8202C105.985 42.7444 106.06 42.5928 106.136 42.4412C106.212 42.2896 106.363 42.2138 106.591 42.138C106.742 42.0622 106.97 42.138 107.121 42.2138C107.349 42.3654 107.5 42.7444 107.349 43.0475C107.273 43.1991 107.197 43.5023 107.197 43.7297C107.273 44.2603 107.576 44.4119 107.804 44.4877C108.107 44.4877 108.258 44.3361 108.334 44.2603C108.486 44.1845 108.486 44.1845 108.41 44.1845Z" fill="#101828"/>
<path d="M124.176 43.1991C124.176 43.1991 124.1 42.896 124.024 42.5928C123.948 42.2896 123.873 42.0622 123.873 42.0622C124.252 41.5316 124.252 41.001 124.176 40.6978C124.1 40.3189 123.948 40.0157 123.645 39.7125C123.342 39.4093 122.736 39.1061 121.902 38.8787C121.826 38.8787 121.523 38.7271 121.447 38.7271C121.447 38.7271 121.447 37.666 121.371 37.2112C121.371 36.908 121.295 36.3774 121.144 35.9227C120.992 35.2405 120.613 34.7099 120.234 34.3309C121.371 33.194 122.053 31.9054 122.053 30.8443C122.053 28.7978 119.476 28.1156 116.369 29.4041L115.686 29.7073L114.474 28.4946C110.911 25.3869 99.6176 37.8176 103.256 40.9252L104.014 41.6074C103.786 42.138 103.711 42.7444 103.786 43.4265C103.862 44.2603 104.317 45.0941 104.999 45.7004C105.681 46.3068 106.515 46.6858 107.349 46.6858C108.713 49.945 111.972 51.9158 115.686 51.9916C119.704 52.1431 123.115 50.2482 124.479 46.8374C124.555 46.61 124.934 45.5488 124.934 44.5635C125.085 43.6539 124.555 43.1991 124.176 43.1991ZM107.728 45.7762C107.576 45.7762 107.5 45.7762 107.349 45.7762C106.136 45.7762 104.848 44.6393 104.696 43.3507C104.544 41.9106 105.302 40.8494 106.591 40.5463C106.742 40.5463 106.97 40.4705 107.121 40.4705C107.879 40.5463 108.941 41.0768 109.168 42.6686C109.395 44.1087 109.092 45.5488 107.728 45.7762ZM106.439 39.7125C105.606 39.8641 104.923 40.3189 104.469 40.9252C104.241 40.6978 103.711 40.3189 103.635 40.0915C102.953 38.8029 104.393 36.2258 105.378 34.7857C107.879 31.2233 111.821 28.4946 113.64 29.0252C113.943 29.101 114.929 30.2379 114.929 30.2379C114.929 30.2379 113.109 31.2233 111.442 32.6634C109.168 34.4067 107.425 36.9838 106.439 39.7125ZM119.173 45.2456C119.173 45.1699 119.173 45.0941 119.173 45.0941C119.173 45.0941 117.278 45.3972 115.459 44.7151C115.686 44.1087 116.141 44.3361 116.975 44.3361C118.415 44.4119 119.628 44.1845 120.613 43.9571C121.447 43.7297 122.508 43.2749 123.342 42.5928C123.645 43.1991 123.721 43.8813 123.721 43.8813C123.721 43.8813 123.948 43.8055 124.1 43.9571C124.252 44.0329 124.403 44.2603 124.327 44.8667C124.176 45.9278 123.721 46.7616 122.963 47.5953C122.508 48.1259 121.978 48.5049 121.295 48.8081C120.992 48.9597 120.613 49.1113 120.234 49.2629C117.354 50.1724 114.474 49.1871 113.564 46.989C113.488 46.8374 113.413 46.6858 113.413 46.4584C113.034 45.0183 113.337 43.2749 114.398 42.2138C114.474 42.138 114.55 42.0622 114.55 41.9864C114.55 41.9106 114.474 41.8348 114.474 41.759C114.095 41.2284 112.806 40.3189 113.109 38.4997C113.261 37.2112 114.398 36.3016 115.459 36.3774H115.686C116.141 36.3774 116.52 36.4532 116.899 36.4532C117.506 36.4532 118.112 36.3774 118.718 35.8469C118.946 35.6953 119.097 35.4679 119.401 35.4679H119.704C119.855 35.4679 120.007 35.5437 120.158 35.6195C120.689 35.9985 120.765 36.8322 120.765 37.4386C120.765 37.8176 120.841 38.6513 120.841 38.8787C120.841 39.4093 120.992 39.5609 121.295 39.6367C121.447 39.7125 121.599 39.7125 121.826 39.7883C122.508 40.0157 122.963 40.1673 123.19 40.4705C123.342 40.6221 123.418 40.7736 123.418 41.001C123.494 41.6074 122.963 42.3654 121.523 43.0475C119.931 43.8055 117.96 43.9571 116.672 43.8055C116.596 43.8055 116.217 43.7297 116.217 43.7297C115.156 43.5781 114.55 44.9425 115.156 45.9278C115.535 46.5342 116.672 46.9132 117.809 46.9132C120.386 46.9132 122.357 45.7762 123.115 44.8667C123.115 44.8667 123.115 44.8667 123.19 44.7909C123.19 44.7151 123.19 44.7151 123.115 44.7151C122.508 45.0941 119.855 46.7616 116.975 46.3068C116.975 46.3068 116.596 46.231 116.293 46.1552C116.065 46.0794 115.535 45.7762 115.459 45.2456C117.657 45.9278 119.173 45.2456 119.173 45.2456ZM111.063 34.7857C111.972 33.7246 113.034 32.8908 114.019 32.3602C114.019 32.3602 114.095 32.3602 114.095 32.436C114.019 32.5876 113.867 32.8908 113.792 33.1182C113.792 33.1182 113.792 33.194 113.867 33.194C114.474 32.815 115.535 32.3602 116.444 32.2844C116.52 32.2844 116.52 32.3602 116.444 32.3602C116.293 32.436 116.141 32.5876 116.065 32.7392V32.815C116.748 32.815 117.657 33.0424 118.264 33.4214C118.339 33.4214 118.264 33.4972 118.264 33.4972C117.354 33.2698 115.838 33.1182 114.322 33.4972C112.882 33.8004 111.821 34.3309 111.063 34.7857C111.063 34.9373 110.987 34.8615 111.063 34.7857Z" fill="#101828"/>
</svg>
