<svg width="294" height="80" viewBox="0 0 294 80" fill="none" xmlns="http://www.w3.org/2000/svg">
<rect width="294" height="80" rx="5" fill="#EBFFFE" fill-opacity="0.5"/>
<path d="M96.3996 31.6585C94.9925 31.6585 94.5704 32.2777 94.5704 33.6567V35.9362H98.3415L97.9756 39.651H94.5704V50.8799H90.0394V39.651H87V35.9644H90.0394V33.7411C90.0394 29.97 91.5591 28 95.7523 28C96.6248 28 97.5253 28.0563 98.3977 28.1689V31.6585" fill="#004F9D"/>
<path d="M98.651 42.9437C98.651 38.7786 100.621 35.6266 104.786 35.6266C107.038 35.6266 108.417 36.7805 109.092 38.2439V35.9644H113.426V50.9081H109.064V48.6567C108.445 50.0919 107.009 51.2176 104.758 51.2176C100.621 51.2176 98.6229 48.0938 98.6229 43.9006M103.182 43.9568C103.182 46.1801 103.998 47.6717 106.109 47.6717C107.966 47.6717 108.895 46.3208 108.895 44.182V42.6623C108.895 40.5235 107.938 39.1726 106.109 39.1726C103.998 39.1726 103.182 40.636 103.182 42.8874V43.9568Z" fill="#004F9D"/>
<path d="M122.826 35.6266C124.57 35.6266 126.259 35.9925 127.159 36.6398L126.146 39.848C125.218 39.3977 124.176 39.1726 123.135 39.1726C120.687 39.1726 119.617 40.5797 119.617 43V43.8724C119.617 46.2927 120.687 47.6998 123.135 47.6998C124.176 47.6998 125.218 47.4465 126.146 46.9962L127.159 50.2045C126.259 50.8236 124.598 51.2176 122.826 51.2176C117.507 51.2176 115.114 48.3752 115.114 43.788V43.0844C115.114 38.4972 117.507 35.6266 122.826 35.6266Z" fill="#004F9D"/>
<path d="M127.75 43.985V42.6623C127.75 38.4128 130.171 35.6266 135.096 35.6266C139.739 35.6266 141.794 38.4409 141.794 42.606V44.9981H132.281C132.366 47.0525 133.295 47.9531 135.799 47.9531C137.432 47.9531 139.064 47.6435 140.612 47.0525L141.428 50.1482C140.246 50.7674 137.797 51.2458 135.63 51.2458C129.889 51.2176 127.75 48.3752 127.75 43.985ZM132.281 42.015H137.741V41.6492C137.741 40.0169 137.094 38.7223 135.096 38.7223C133.069 38.7223 132.281 40.0169 132.281 42.015Z" fill="#004F9D"/>
<path d="M158.567 43.9006C158.567 48.0657 156.568 51.2176 152.403 51.2176C150.152 51.2176 148.576 50.0919 147.957 48.6567V50.9081H143.679V28.4503L148.21 28.0563V38.0469C148.857 36.7242 150.321 35.6548 152.432 35.6548C156.568 35.6548 158.595 38.7786 158.595 42.9719M154.036 42.8593C154.036 40.7486 153.22 39.1726 151.053 39.1726C149.195 39.1726 148.21 40.4953 148.21 42.6341V44.2101C148.21 46.349 149.223 47.6717 151.053 47.6717C153.22 47.6717 154.036 46.0957 154.036 43.985V42.8593Z" fill="#004F9D"/>
<path d="M160.058 43.788V43.0281C160.058 38.7223 162.507 35.6266 167.488 35.6266C172.469 35.6266 174.917 38.7223 174.917 43.0281V43.788C174.917 48.0938 172.469 51.1895 167.488 51.1895C162.507 51.1895 160.058 48.122 160.058 43.788ZM170.415 42.7186C170.415 40.7486 169.598 39.1726 167.488 39.1726C165.377 39.1726 164.561 40.7486 164.561 42.7186V44.1257C164.561 46.0957 165.377 47.6717 167.488 47.6717C169.598 47.6717 170.415 46.0957 170.415 44.1257V42.7186Z" fill="#004F9D"/>
<path d="M176.465 43.788V43.0281C176.465 38.7223 178.914 35.6266 183.895 35.6266C188.876 35.6266 191.325 38.7223 191.325 43.0281V43.788C191.325 48.0938 188.876 51.1895 183.895 51.1895C178.914 51.1895 176.465 48.122 176.465 43.788ZM186.822 42.7186C186.822 40.7486 186.006 39.1726 183.895 39.1726C181.784 39.1726 180.968 40.7486 180.968 42.7186V44.1257C180.968 46.0957 181.784 47.6717 183.895 47.6717C186.006 47.6717 186.822 46.0957 186.822 44.1257V42.7186Z" fill="#004F9D"/>
<path d="M197.544 43.0844L202.019 35.9362H206.803L202.131 43.3377L207 50.9081H202.188L197.544 43.591V50.9081H193.041V28.4503L197.544 28.0281" fill="#004F9D"/>
</svg>
