<svg width="294" height="80" viewBox="0 0 294 80" fill="none" xmlns="http://www.w3.org/2000/svg">
<rect width="294" height="80" rx="5" fill="#EBFFFE" fill-opacity="0.5"/>
<path d="M132.333 41.5373H131.319V44.4776H130.212V36.4569H132.31C134.256 36.4569 135.444 37.2493 135.444 38.9382C135.444 40.8144 134.15 41.5373 132.333 41.5373ZM132.426 37.3189H131.319V40.663H132.426C133.487 40.663 134.267 40.326 134.267 38.9418C134.267 37.7413 133.498 37.3103 132.426 37.3103V37.3189ZM136.749 44.4863V38.3459H137.681L137.81 39.522C138.16 38.66 138.696 38.2053 139.418 38.2053C139.616 38.2053 139.838 38.2283 140.024 38.2749L139.826 39.3234C139.652 39.2752 139.472 39.2517 139.291 39.2538C138.522 39.2538 138.032 40.0427 137.823 40.8854V44.4855L136.749 44.4863Z" fill="#333366"/>
<path d="M143.17 38.0662C144.918 38.0662 145.897 39.3248 145.897 41.2705C145.897 43.171 144.895 44.487 143.158 44.487C141.411 44.487 140.42 43.2283 140.42 41.2827C140.42 39.3822 141.421 38.0662 143.17 38.0662ZM143.17 38.9282C142.144 38.9282 141.573 39.6741 141.573 41.282C141.573 42.8784 142.133 43.6242 143.151 43.6242C144.17 43.6242 144.729 42.8784 144.729 41.2705C144.729 39.6741 144.17 38.9282 143.156 38.9282H143.17Z" fill="#333366"/>
<path d="M150.605 44.0667C150.232 44.3536 149.743 44.4863 149.23 44.4863C148.088 44.4863 147.575 43.7641 147.575 42.7034V39.02H146.596V38.2046H147.575V36.8183L148.648 36.6892V38.2039H150.197L150.068 39.0193H148.646V42.6897C148.646 43.3065 148.844 43.5984 149.381 43.5984C149.649 43.5984 149.893 43.5166 150.196 43.3302L150.605 44.0667Z" fill="#333366"/>
<path d="M153.821 38.0662C155.569 38.0662 156.548 39.3248 156.548 41.2705C156.548 43.171 155.546 44.487 153.81 44.487C152.062 44.487 151.072 43.2283 151.072 41.2827C151.072 39.3822 152.073 38.0662 153.821 38.0662ZM153.821 38.9282C152.796 38.9282 152.225 39.6741 152.225 41.282C152.225 42.8784 152.784 43.6242 153.803 43.6242C154.821 43.6242 155.38 42.8784 155.38 41.2705C155.38 39.6741 154.821 38.9282 153.807 38.9282H153.821Z" fill="#333366"/>
<path d="M159.216 44.4863H158.144V38.3459H159.065L159.147 39.185C159.649 38.556 160.382 38.206 161.105 38.206C162.293 38.206 162.771 38.8816 162.771 40.024V44.487H161.699V40.0936C161.699 39.3592 161.443 39.0451 160.744 39.0451C160.08 39.0451 159.543 39.5579 159.216 40.0348V44.4863ZM171.137 44.4863L170.788 40.3726L170.659 37.7047H170.612L168.818 43.6357H167.756L165.891 37.7047H165.845L165.74 40.3726L165.424 44.4863H164.385L165.049 36.4576H166.541L168.301 42.319H168.347L170.049 36.4576H171.552L172.216 44.4863H171.137ZM178.001 42.9587C178.001 43.4478 178.14 43.6228 178.455 43.7476L178.199 44.4934C177.651 44.4239 177.255 44.1779 177.069 43.6314C176.639 44.2137 175.993 44.4934 175.24 44.4934C174.005 44.4934 173.246 43.7361 173.246 42.5929C173.246 41.3235 174.272 40.6121 176.137 40.6121H176.929V40.1345C176.929 39.2724 176.499 38.9461 175.601 38.9461C175.192 38.9461 174.622 39.0394 173.993 39.2617L173.706 38.4692C174.463 38.1824 175.151 38.0733 175.757 38.0733C177.318 38.0733 177.995 38.8307 177.995 40.0778L178.001 42.9587ZM176.928 42.8296V41.3149H176.194C174.877 41.3149 174.423 41.7926 174.423 42.5384C174.423 43.2958 174.76 43.6802 175.53 43.6802C176.112 43.6802 176.578 43.3646 176.928 42.8296ZM180.494 36.9467C180.396 36.9517 180.298 36.9363 180.206 36.9013C180.114 36.8663 180.03 36.8126 179.96 36.7435C179.89 36.6745 179.835 36.5916 179.798 36.5001C179.762 36.4087 179.745 36.3107 179.748 36.2123C179.748 35.8035 180.051 35.4901 180.494 35.4901C180.937 35.4901 181.251 35.8057 181.251 36.2123C181.251 36.6318 180.936 36.9467 180.494 36.9467ZM179.958 44.4863V38.3459H181.031V44.487L179.958 44.4863ZM185.074 44.2768C184.802 44.4122 184.503 44.4838 184.199 44.4863C183.465 44.4863 182.94 44.0667 182.94 43.0182V35.7354L184.013 35.6063V43.1107C184.013 43.46 184.129 43.5998 184.397 43.5998C184.54 43.5998 184.684 43.5769 184.793 43.5303L185.074 44.2768Z" fill="#333366"/>
<path d="M116.539 28.0007C116.539 28.0007 109.461 27.7677 108.001 35.6206V40.9685C108.001 40.9685 108.062 41.5408 109.672 42.7041C111.283 43.8673 115.449 47.1398 116.541 47.1398C117.632 47.1398 121.799 43.8666 123.409 42.7041C125.019 41.5416 125.08 40.9685 125.08 40.9685V35.6206C123.617 27.7677 116.539 28.0007 116.539 28.0007ZM121.386 38.5431H111.692V35.6206C112.676 31.7214 116.539 31.6676 116.539 31.6676C116.539 31.6676 120.402 31.7214 121.385 35.6206L121.386 38.5431ZM116.539 48.3432C116.539 48.3432 115.442 48.2356 114.584 47.6403L108 42.9544V51.0584C108 51.0584 108.049 52 109.086 52H123.99C125.027 52 125.076 51.0584 125.076 51.0584V42.9544L118.492 47.6403C117.634 48.2356 116.536 48.3432 116.536 48.3432H116.539Z" fill="#333366"/>
<path d="M132.333 41.5373H131.319V44.4776H130.212V36.4569H132.31C134.256 36.4569 135.444 37.2493 135.444 38.9382C135.444 40.8144 134.15 41.5373 132.333 41.5373ZM132.426 37.3189H131.319V40.663H132.426C133.487 40.663 134.267 40.326 134.267 38.9418C134.267 37.7413 133.498 37.3103 132.426 37.3103V37.3189ZM136.749 44.4863V38.3459H137.681L137.81 39.522C138.16 38.66 138.696 38.2053 139.418 38.2053C139.616 38.2053 139.838 38.2283 140.024 38.2749L139.826 39.3234C139.652 39.2752 139.472 39.2517 139.291 39.2538C138.522 39.2538 138.032 40.0427 137.823 40.8854V44.4855L136.749 44.4863Z" stroke="white" stroke-width="0.05" stroke-miterlimit="10"/>
<path d="M143.17 38.0662C144.918 38.0662 145.897 39.3248 145.897 41.2705C145.897 43.171 144.895 44.487 143.158 44.487C141.411 44.487 140.42 43.2283 140.42 41.2827C140.42 39.3822 141.421 38.0662 143.17 38.0662ZM143.17 38.9282C142.144 38.9282 141.573 39.6741 141.573 41.282C141.573 42.8784 142.133 43.6242 143.151 43.6242C144.17 43.6242 144.729 42.8784 144.729 41.2705C144.729 39.6741 144.17 38.9282 143.156 38.9282H143.17Z" stroke="white" stroke-width="0.05" stroke-miterlimit="10"/>
<path d="M150.605 44.0667C150.232 44.3536 149.743 44.4863 149.23 44.4863C148.088 44.4863 147.575 43.7641 147.575 42.7034V39.02H146.596V38.2046H147.575V36.8183L148.648 36.6892V38.2039H150.197L150.068 39.0193H148.646V42.6897C148.646 43.3065 148.844 43.5984 149.381 43.5984C149.649 43.5984 149.893 43.5166 150.196 43.3302L150.605 44.0667Z" stroke="white" stroke-width="0.05" stroke-miterlimit="10"/>
<path d="M153.821 38.0662C155.569 38.0662 156.548 39.3248 156.548 41.2705C156.548 43.171 155.546 44.487 153.81 44.487C152.062 44.487 151.072 43.2283 151.072 41.2827C151.072 39.3822 152.073 38.0662 153.821 38.0662ZM153.821 38.9282C152.796 38.9282 152.225 39.6741 152.225 41.282C152.225 42.8784 152.784 43.6242 153.803 43.6242C154.821 43.6242 155.38 42.8784 155.38 41.2705C155.38 39.6741 154.821 38.9282 153.807 38.9282H153.821Z" stroke="white" stroke-width="0.05" stroke-miterlimit="10"/>
<path d="M159.216 44.4863H158.144V38.3459H159.065L159.147 39.185C159.649 38.556 160.382 38.206 161.105 38.206C162.293 38.206 162.771 38.8816 162.771 40.024V44.487H161.699V40.0936C161.699 39.3592 161.443 39.0451 160.744 39.0451C160.08 39.0451 159.543 39.5579 159.216 40.0348V44.4863ZM171.137 44.4863L170.788 40.3726L170.659 37.7047H170.612L168.818 43.6357H167.756L165.891 37.7047H165.845L165.74 40.3726L165.424 44.4863H164.385L165.049 36.4576H166.541L168.301 42.319H168.347L170.049 36.4576H171.552L172.216 44.4863H171.137ZM178.001 42.9587C178.001 43.4478 178.14 43.6228 178.455 43.7476L178.199 44.4934C177.651 44.4239 177.255 44.1779 177.069 43.6314C176.639 44.2137 175.993 44.4934 175.24 44.4934C174.005 44.4934 173.246 43.7361 173.246 42.5929C173.246 41.3235 174.272 40.6121 176.137 40.6121H176.929V40.1345C176.929 39.2724 176.499 38.9461 175.601 38.9461C175.192 38.9461 174.622 39.0394 173.993 39.2617L173.706 38.4692C174.463 38.1824 175.151 38.0733 175.757 38.0733C177.318 38.0733 177.995 38.8307 177.995 40.0778L178.001 42.9587ZM176.928 42.8296V41.3149H176.194C174.877 41.3149 174.423 41.7926 174.423 42.5384C174.423 43.2958 174.76 43.6802 175.53 43.6802C176.112 43.6802 176.578 43.3646 176.928 42.8296ZM180.494 36.9467C180.396 36.9517 180.298 36.9363 180.206 36.9013C180.114 36.8663 180.03 36.8126 179.96 36.7435C179.89 36.6745 179.835 36.5916 179.798 36.5001C179.762 36.4087 179.745 36.3107 179.748 36.2123C179.748 35.8035 180.051 35.4901 180.494 35.4901C180.937 35.4901 181.251 35.8057 181.251 36.2123C181.251 36.6318 180.936 36.9467 180.494 36.9467ZM179.958 44.4863V38.3459H181.031V44.487L179.958 44.4863ZM185.074 44.2768C184.802 44.4122 184.503 44.4838 184.199 44.4863C183.465 44.4863 182.94 44.0667 182.94 43.0182V35.7354L184.013 35.6063V43.1107C184.013 43.46 184.129 43.5998 184.397 43.5998C184.54 43.5998 184.684 43.5769 184.793 43.5303L185.074 44.2768Z" stroke="white" stroke-width="0.05" stroke-miterlimit="10"/>
<path d="M116.539 28.0007C116.539 28.0007 109.461 27.7677 108.001 35.6206V40.9685C108.001 40.9685 108.062 41.5408 109.672 42.7041C111.283 43.8673 115.449 47.1398 116.541 47.1398C117.632 47.1398 121.799 43.8666 123.409 42.7041C125.019 41.5416 125.08 40.9685 125.08 40.9685V35.6206C123.617 27.7677 116.539 28.0007 116.539 28.0007ZM121.386 38.5431H111.692V35.6206C112.676 31.7214 116.539 31.6676 116.539 31.6676C116.539 31.6676 120.402 31.7214 121.385 35.6206L121.386 38.5431ZM116.539 48.3432C116.539 48.3432 115.442 48.2356 114.584 47.6403L108 42.9544V51.0584C108 51.0584 108.049 52 109.086 52H123.99C125.027 52 125.076 51.0584 125.076 51.0584V42.9544L118.492 47.6403C117.634 48.2356 116.536 48.3432 116.536 48.3432H116.539Z" stroke="white" stroke-width="0.05" stroke-miterlimit="10"/>
</svg>
