<svg width="294" height="80" viewBox="0 0 294 80" fill="none" xmlns="http://www.w3.org/2000/svg">
<rect width="294" height="80" rx="5" fill="#EBFFFE" fill-opacity="0.5"/>
<path d="M206.36 43.6715C206.011 43.6715 205.72 43.9593 205.72 44.3477C205.72 44.7358 206.011 45.0236 206.36 45.0236C206.709 45.0236 207 44.7358 207 44.3477C207 43.9593 206.709 43.6715 206.36 43.6715ZM183.201 44.9804H186.139V44.7216L185.82 44.6496C185.529 44.5777 185.397 44.4196 185.397 44.0167V40.1053H186.082C186.503 40.1053 186.721 40.2059 186.751 41.0833L186.823 42.924C186.881 44.5777 187.361 45.038 188.176 45.038C189.006 45.038 189.224 44.477 189.224 43.6862V43.3553H188.918V43.5997C188.918 44.132 188.845 44.5059 188.641 44.5059C188.453 44.5059 188.438 44.3621 188.394 43.7005L188.307 42.4352C188.191 40.7381 187.973 40.1485 186.707 39.9182C187.914 39.602 188.656 38.7246 188.656 37.4734C188.656 35.8483 187.361 35.0718 186.125 35.0718H181.165V35.3307L181.441 35.3882C181.965 35.5033 181.979 35.7765 181.979 36.9415V42.665C181.979 43.9451 181.615 44.5634 180.786 44.5634C180.045 44.5634 179.637 44.2038 179.637 42.8088V36.0066C179.637 35.6039 179.768 35.489 180.088 35.417L180.481 35.3307V35.0718H177.44V35.3307L177.76 35.417C178.051 35.5033 178.153 35.6184 178.153 36.0209V42.7082C178.153 44.2181 179.041 45.0524 180.393 45.0524C181.747 45.0524 182.415 44.2181 182.415 42.665V36.4236C182.415 35.6471 182.576 35.3738 183.215 35.3738C183.724 35.3738 183.943 35.5465 183.943 36.0209V44.0167C183.943 44.4196 183.812 44.5634 183.521 44.6353L183.201 44.7216V44.9804ZM202.723 36.0211C202.723 35.6186 202.854 35.4891 203.145 35.4314L203.538 35.3451V35.0719H200.512V35.3308L200.832 35.4171C201.123 35.5034 201.254 35.6186 201.254 36.0211V44.0746C201.254 44.4628 201.094 44.6786 200.643 44.6786C200.119 44.6786 200.046 44.506 199.857 43.6577L197.996 35.0433H197.413L195.639 43.3842C195.435 44.3188 195.333 44.5348 194.94 44.6498L194.693 44.7218V44.9805H196.773V44.7218L196.468 44.6641C196.032 44.5778 195.915 44.3479 196.133 43.2547L197.181 37.9194L198.33 43.5711C198.505 44.3908 198.49 44.5492 197.864 44.6641L197.559 44.7218V44.9805H205.269V41.7017H204.993C204.847 43.2116 204.542 44.6354 203.305 44.6354H202.723V36.0211ZM198.184 42.3056V41.9175H196.22L196.162 42.3056H198.184ZM190.067 36.1935V43.0677C190.067 44.1032 190.067 44.5922 189.543 44.6785L189.281 44.7216V44.9804H191.42V44.7216C190.489 44.5922 190.489 44.2758 190.489 43.154V36.6251L190.14 36.3087L193.704 44.9804H194.315V36.9846C194.315 35.8054 194.315 35.5465 194.897 35.3882L195.101 35.3307V35.0718H192.903V35.3307L193.151 35.3882C193.893 35.5176 193.893 35.8054 193.893 36.8983V41.9028L194.039 41.8597L191.333 35.0718H189.253V35.3307L189.456 35.3882C189.689 35.4602 189.82 35.7191 190.067 36.1935ZM185.397 35.4169H185.979C186.561 35.4169 187.099 35.7908 187.099 37.6604C187.099 39.5731 186.692 39.76 185.877 39.76H185.397V35.4169ZM175.709 39.9326C175.709 44.0886 175.36 44.6784 174.603 44.6784C173.847 44.6784 173.512 44.0886 173.512 39.9612C173.512 35.9634 173.876 35.3881 174.603 35.3881C175.36 35.3881 175.709 35.9634 175.709 39.9326ZM177.295 40.019C177.295 37.2722 176.408 35 174.603 35C172.785 35 171.927 37.2722 171.927 40.019C171.927 42.7802 172.814 45.0524 174.603 45.0524C176.451 45.0524 177.295 42.7802 177.295 40.019ZM171.068 36.0209C171.068 35.6184 171.17 35.489 171.461 35.417L171.781 35.3307V35.0718H168.77V35.3307L169.133 35.417C169.424 35.489 169.585 35.5896 169.585 36.0066V42.924C169.585 43.8874 169.497 44.664 168.77 44.664C168.304 44.664 167.955 44.3045 167.97 44.0457C168.013 43.5997 168.77 43.6287 168.828 42.9094C168.871 42.3918 168.537 42.1761 168.231 42.1331C167.78 42.0754 167.228 42.4493 167.213 43.1972C167.198 44.1606 167.839 45.038 168.93 45.038C170.137 45.038 171.068 44.2326 171.068 42.6937V36.0209ZM122.481 36.0211C122.481 35.6186 122.612 35.4891 122.902 35.4314L123.295 35.3451V35.0719H120.27V35.3308L120.59 35.4171C120.88 35.5034 121.011 35.6186 121.011 36.0211V44.0746C121.011 44.4628 120.851 44.6786 120.4 44.6786C119.877 44.6786 119.789 44.506 119.6 43.6577L117.738 35.0433H117.156L115.382 43.3842C115.178 44.3188 115.076 44.5348 114.683 44.6498L114.436 44.7218V44.9805H116.516V44.7218L116.211 44.6641C115.774 44.5778 115.658 44.3479 115.876 43.2547L116.924 37.8905L118.073 43.5711C118.233 44.3908 118.233 44.5492 117.607 44.6641L117.302 44.7218V44.9805H125.026V41.7017H124.75C124.605 43.2116 124.299 44.6354 123.063 44.6354H122.481V36.0211ZM162.98 35.417H163.301C164.203 35.417 164.508 36.8406 164.61 38.3508H164.886V35.0718H159.605V38.3508H159.881C159.984 36.8406 160.289 35.417 161.191 35.417H161.511V44.0167C161.511 44.4196 161.381 44.5634 161.089 44.6353L160.711 44.7216V44.9804H163.853V44.7216L163.402 44.621C163.126 44.549 162.98 44.4627 162.98 44.0167V35.417ZM156.332 40.0045L156.783 40.019C157.437 40.0333 157.627 40.2779 157.758 41.8455H158.034V37.8474H157.758C157.598 39.0987 157.423 39.6306 156.797 39.6451L156.332 39.6595V35.417H157.336C158.456 35.417 158.703 36.812 158.863 38.3508H159.139V35.0718H154.121V35.3307L154.441 35.417C154.775 35.5033 154.863 35.7047 154.863 36.0354V44.0167C154.863 44.4196 154.732 44.5634 154.441 44.6353L154.121 44.7216V44.9804H159.285V41.7015H159.009C158.834 43.1972 158.645 44.6353 157.336 44.6353H156.332V40.0045ZM150.848 40.0045L151.299 40.019C151.953 40.0333 152.142 40.2779 152.273 41.8455H152.55V37.8474H152.273C152.113 39.0987 151.939 39.6306 151.313 39.6451L150.848 39.6595V35.417H151.852C152.972 35.417 153.219 36.8406 153.379 38.3508H153.655V35.0718H148.491V35.3307L148.956 35.417C149.291 35.5033 149.378 35.7047 149.378 36.0354V44.0167C149.378 44.4196 149.247 44.5634 148.956 44.6353L148.636 44.7216V44.9804H153.8V41.7015H153.524C153.35 43.1972 153.16 44.6353 151.852 44.6353H150.848V40.0045ZM144.869 35.4169H145.305C145.887 35.4169 146.425 35.7908 146.425 37.6604C146.425 39.5442 146.018 39.76 145.203 39.76H144.869V35.4169ZM142.672 44.9804H145.611V44.7216L145.29 44.6496C145 44.5777 144.869 44.4196 144.869 44.0167V40.1053H145.407C145.829 40.1053 146.047 40.2779 146.076 41.0833L146.149 42.924C146.207 44.5777 146.687 45.038 147.502 45.038C148.331 45.038 148.549 44.477 148.549 43.6862V43.3553H148.244V43.5997C148.244 44.132 148.171 44.5059 147.967 44.5059C147.778 44.5059 147.764 44.3621 147.72 43.7005L147.633 42.4352C147.516 40.6949 147.284 40.1485 146.033 39.9182C147.24 39.602 147.982 38.7246 147.982 37.4734C147.982 35.8483 146.687 35.0718 145.451 35.0718H142.672V35.3307L142.992 35.417C143.283 35.5033 143.414 35.6184 143.414 36.0209V44.0167C143.414 44.4196 143.283 44.5634 142.992 44.6353L142.672 44.7216V44.9804ZM140.447 35.417H140.767C141.668 35.417 141.974 36.8406 142.076 38.3508H142.352V35.0718H137.072V38.3508H137.348C137.45 36.8406 137.755 35.417 138.657 35.417H138.977V44.0167C138.977 44.4196 138.846 44.5634 138.556 44.6353L138.177 44.7216V44.9804H141.247V44.7216L140.868 44.6353C140.49 44.549 140.447 44.2615 140.447 44.0167V35.417ZM137.086 42.4063C137.086 39.4581 133.813 38.6816 133.813 36.5389C133.813 36.0787 133.988 35.3883 134.715 35.3883C135.762 35.3883 136.155 36.7258 136.33 38.3509H136.606V35.0719H136.431C136.359 35.3883 136.228 35.5322 136.039 35.5322C135.704 35.5322 135.53 35.0144 134.729 35.0144C133.493 35.0144 132.649 36.0356 132.649 37.3729C132.649 39.8034 135.922 40.8243 135.922 43.0678C135.922 44.0888 135.442 44.6641 134.788 44.6641C133.813 44.6641 133.173 43.5282 132.998 41.7017H132.722V44.9805H132.897C133.042 44.506 133.231 44.4628 133.391 44.4628C133.668 44.4628 133.958 45.0382 134.802 45.0382C136.097 45.0382 137.086 43.9309 137.086 42.4063ZM127.558 36.0209C127.558 35.6184 127.689 35.489 127.98 35.4313L128.372 35.345V35.0718H125.347V35.3307L125.667 35.417C125.958 35.5033 126.089 35.6184 126.089 36.0209V44.0167C126.089 44.4196 125.958 44.5634 125.667 44.6353L125.347 44.7216V44.9804H130.104V41.7015H129.827C129.682 43.2115 129.376 44.6353 128.14 44.6353H127.558V36.0209ZM117.927 42.3056V41.9175H115.964L115.905 42.3056H117.927ZM109.519 45.0092H110.115L111.468 37.9338H111.265L112.748 45.0092H113.272L115.047 36.6682C115.236 35.7909 115.338 35.489 115.687 35.4025L115.963 35.3307V35.0718H113.912V35.3307L114.218 35.3882C114.654 35.4745 114.756 35.7334 114.552 36.7975L113.403 42.3918H113.578L112.414 36.4956C112.297 35.9346 112.225 35.4745 112.705 35.3882L113.025 35.3307V35.0718H110.217V35.3307L110.406 35.3738C110.697 35.4456 110.741 35.6184 110.857 36.1649L111.308 38.3076L111.221 37.0132L110.217 42.248H110.348L109.17 36.4956C109.039 35.906 108.995 35.4602 109.461 35.3738L109.679 35.3307V35.0718H106.813V35.3307L107.09 35.4025C107.351 35.4745 107.497 35.6039 107.672 36.3948L109.519 45.0092ZM101.751 40.0045L102.202 40.019C102.856 40.0333 103.045 40.2779 103.176 41.8455H103.453V37.8474H103.176C103.016 39.0987 102.842 39.6306 102.216 39.6451L101.751 39.6595V35.417H102.755C103.875 35.417 104.122 36.8406 104.282 38.3508H104.558V35.0718H99.5397V35.3307L99.8597 35.417C100.194 35.5033 100.282 35.7047 100.282 36.0354V44.0167C100.282 44.4196 100.151 44.5634 99.8597 44.6353L99.5397 44.7216V44.9804H104.704V41.7015H104.427C104.253 43.1972 104.064 44.6353 102.755 44.6353H101.751V40.0045ZM92.6005 44.9804H95.5826V44.7216L95.2481 44.6496C94.9862 44.5922 94.8116 44.4196 94.8116 44.0167V40.091H97.0082V44.0167C97.0082 44.4196 96.8338 44.5922 96.5719 44.6496L96.2374 44.7216V44.9804H99.2195V44.7216L98.8995 44.6353C98.6086 44.5634 98.4775 44.405 98.4775 44.0026V36.0209C98.4775 35.6184 98.6086 35.489 98.8995 35.417L99.2195 35.3307V35.0718H96.2374V35.3307L96.5719 35.417C96.8191 35.489 97.0082 35.5896 97.0082 36.0066V39.7026H94.8116V36.0066C94.8116 35.6039 94.9717 35.489 95.2481 35.417L95.5826 35.3307V35.0718H92.6005V35.3307L92.9205 35.417C93.2116 35.5033 93.3423 35.6184 93.3423 36.0209V44.0167C93.3423 44.4196 93.2116 44.5634 92.9205 44.6353L92.6005 44.7216V44.9804ZM90.3748 35.417H90.695C91.5968 35.417 91.9024 36.8406 92.0042 38.3508H92.2806V35.0718H87V38.3508H87.2764C87.3782 36.8406 87.6837 35.417 88.5855 35.417H88.9056V44.0167C88.9056 44.4196 88.7748 44.5634 88.4837 44.6353L88.1056 44.7216V44.9804H91.2478V44.7216L90.7968 44.621C90.5204 44.549 90.3748 44.4627 90.3748 44.0167V35.417Z" fill="black"/>
</svg>
