<svg width="294" height="80" viewBox="0 0 294 80" fill="none" xmlns="http://www.w3.org/2000/svg">
<rect width="294" height="80" rx="5" fill="#EBFFFE" fill-opacity="0.5"/>
<path fill-rule="evenodd" clip-rule="evenodd" d="M130.059 43.8218L130.038 43.551H127.763L127.776 43.8556C127.916 47.2441 130.217 49.4894 134.309 49.4894C138.212 49.4894 140.867 47.4758 140.867 44.4277C140.867 42.7799 140.291 41.6134 139.194 40.8175C138.349 40.2047 137.34 39.859 135.667 39.499L135.299 39.4209L134.934 39.3449C131.894 38.7131 130.93 38.1626 130.93 36.5264C130.93 34.8337 132.324 33.756 134.662 33.756C136.937 33.756 138.374 35.1351 138.441 37.3065L138.45 37.59H140.708L140.702 37.2912C140.623 33.9064 138.336 31.6284 134.639 31.6284C131.016 31.6284 128.623 33.7934 128.623 36.5961C128.623 38.2397 129.199 39.384 130.297 40.1483C131.135 40.731 132.105 41.0402 133.816 41.3833C133.991 41.4185 134.165 41.453 134.34 41.4868C135.959 41.8045 136.673 42.0009 137.325 42.3772C138.134 42.8443 138.535 43.5114 138.535 44.5449C138.535 46.3394 137.016 47.3618 134.356 47.3618C131.81 47.3618 130.23 46.094 130.059 43.8218ZM145.621 31.0705H143.376V49.2102H145.621V45.7874L147.984 43.484L152.205 49.0936L152.292 49.2097H155.085L149.575 41.946L154.829 36.7112H151.779L145.621 42.9177V31.0705ZM167.031 43.7067L167.049 43.4312C167.058 43.2825 167.065 43.1336 167.07 42.9847C167.072 42.9087 167.073 42.8395 167.073 42.7783C167.073 39.09 164.621 36.3728 160.998 36.3728C157.382 36.3728 154.806 39.2652 154.806 42.9192C154.806 46.6794 157.266 49.4894 161.022 49.4894C163.862 49.4894 166.057 47.8099 166.848 45.2627L166.966 44.8822H164.612L164.542 45.0775C164.046 46.4719 162.702 47.3972 161.045 47.3972C158.881 47.3972 157.372 45.9156 157.1 43.7067H167.031ZM157.036 41.9544C157.415 39.9414 158.861 38.6055 160.829 38.6055C162.857 38.6055 164.258 39.8975 164.564 41.9544H157.036ZM174.6 38.6757V36.69H171.864V33.3031H169.62V36.69H167.352V38.6757H169.62V45.6712C169.62 47.9662 170.811 49.2102 172.999 49.2102C173.38 49.2102 173.71 49.1875 173.986 49.149C174.157 49.1252 174.274 49.1004 174.339 49.0825L174.554 49.0234V46.9443L174.199 47.0208C174.095 47.0419 173.99 47.0602 173.885 47.0757C173.662 47.1097 173.436 47.1282 173.209 47.1312C172.251 47.1312 171.864 46.6815 171.864 45.5546V38.6757H174.6ZM181.271 49.4894C184.354 49.4894 186.531 47.5128 187.078 44.7159L187.146 44.3649H184.899L184.842 44.5834C184.374 46.368 183.103 47.3967 181.271 47.3967C178.986 47.3967 177.409 45.5704 177.409 42.943C177.409 40.295 178.982 38.4651 181.271 38.4651C183.103 38.4651 184.374 39.4943 184.842 41.2788L184.899 41.4973H187.146L187.078 41.1463C186.531 38.349 184.354 36.3728 181.271 36.3728C177.69 36.3728 175.158 39.2858 175.158 42.943C175.158 46.5796 177.694 49.4894 181.271 49.4894ZM191.337 31.0705H189.097V49.2102H191.337V41.8721C191.337 39.726 192.64 38.4667 194.616 38.4667C196.504 38.4667 197.452 39.5629 197.452 41.6383V49.2102H199.692V41.31C199.692 38.378 197.882 36.4298 194.896 36.4298C193.361 36.4298 192.126 36.9946 191.337 37.8043V31.0705Z" fill="black"/>
<path fill-rule="evenodd" clip-rule="evenodd" d="M100.147 28.7901L107.69 28L115.233 28.7901L121.072 36.5579L107.69 52L94.3083 36.5579L100.147 28.7901Z" fill="#FDB300"/>
<path fill-rule="evenodd" clip-rule="evenodd" d="M99.7289 36.6512L107.69 52L94.3083 36.6512H99.7289Z" fill="#EA6C00"/>
<path fill-rule="evenodd" clip-rule="evenodd" d="M115.653 36.6512L107.69 52L121.073 36.6512H115.653Z" fill="#EA6C00"/>
<path fill-rule="evenodd" clip-rule="evenodd" d="M99.6076 36.6512H115.499L107.553 51.9999L99.6076 36.6512Z" fill="#FDAD00"/>
<path fill-rule="evenodd" clip-rule="evenodd" d="M107.414 28L100.018 28.7986L99.6076 36.6512L107.414 28Z" fill="#FDD231"/>
<path fill-rule="evenodd" clip-rule="evenodd" d="M107.69 28L115.084 28.7986L115.499 36.6512L107.69 28Z" fill="#FDD231"/>
<path fill-rule="evenodd" clip-rule="evenodd" d="M121.073 36.6512L115.218 28.8358L115.639 36.65L121.073 36.6512Z" fill="#FDAD00"/>
<path fill-rule="evenodd" clip-rule="evenodd" d="M94.3083 36.6512L100.163 28.8358L99.7427 36.65L94.3083 36.6512Z" fill="#FDAD00"/>
<path fill-rule="evenodd" clip-rule="evenodd" d="M107.553 28L99.6076 36.6512H115.499L107.553 28Z" fill="#FEEEB7"/>
</svg>
