<svg width="294" height="80" viewBox="0 0 294 80" fill="none" xmlns="http://www.w3.org/2000/svg">
<rect width="294" height="80" rx="5" fill="#EBFFFE" fill-opacity="0.5"/>
<path d="M128.002 36.4774H119.459V39.0123H125.518C125.218 42.5605 122.262 44.0835 119.47 44.0835C118.585 44.0874 117.709 43.915 116.891 43.5764C116.074 43.2379 115.333 42.7399 114.71 42.1116C114.087 41.4834 113.596 40.7373 113.265 39.9171C112.934 39.0969 112.769 38.2189 112.781 37.3344C112.781 33.4969 115.752 30.5424 119.478 30.5424C122.352 30.5424 124.045 32.3745 124.045 32.3745L125.819 30.5363C125.819 30.5363 123.54 28 119.385 28C114.093 28 110 32.4659 110 37.2894C110 42.016 113.85 46.6252 119.519 46.6252C124.505 46.6252 128.154 43.2094 128.154 38.1587C128.154 37.0929 127.999 36.4774 127.999 36.4774H128.002Z" fill="#4885ED"/>
<path d="M135.001 34.6412C131.495 34.6412 128.983 37.3822 128.983 40.5776C128.983 43.8215 131.419 46.6129 135.042 46.6129C138.321 46.6129 141.008 44.1067 141.008 40.6472C141.008 36.6896 137.883 34.6412 135.001 34.6412ZM135.035 36.9926C136.759 36.9926 138.392 38.3866 138.392 40.6322C138.392 42.8293 136.766 44.2636 135.027 44.2636C133.116 44.2636 131.615 42.7338 131.615 40.6144C131.615 38.5401 133.103 36.9926 135.041 36.9926H135.035Z" fill="#DB3236"/>
<path d="M148.089 34.6412C144.583 34.6412 142.071 37.3822 142.071 40.5776C142.071 43.8215 144.507 46.6129 148.13 46.6129C151.409 46.6129 154.096 44.1067 154.096 40.6472C154.096 36.6896 150.971 34.6412 148.089 34.6412ZM148.123 36.9926C149.847 36.9926 151.48 38.3866 151.48 40.6322C151.48 42.8293 149.854 44.2636 148.115 44.2636C146.204 44.2636 144.703 42.7338 144.703 40.6144C144.703 38.5401 146.191 36.9926 148.129 36.9926H148.123Z" fill="#F4C20D"/>
<path d="M160.926 34.6481C157.708 34.6481 155.179 37.4661 155.179 40.6295C155.179 44.2322 158.111 46.6218 160.87 46.6218C162.576 46.6218 163.483 45.9442 164.145 45.167V46.3475C164.145 48.4129 162.891 49.65 160.998 49.65C159.17 49.65 158.252 48.2901 157.928 47.5191L155.627 48.4743C156.443 50.2007 158.086 52 161.017 52C164.224 52 166.655 49.985 166.655 45.7586V35.0076H164.155V36.0216C163.384 35.1891 162.327 34.6481 160.927 34.6481H160.926ZM161.158 36.9953C162.735 36.9953 164.355 38.3422 164.355 40.6424C164.355 42.9808 162.738 44.2691 161.123 44.2691C159.408 44.2691 157.812 42.8771 157.812 40.6643C157.812 38.3661 159.47 36.9953 161.158 36.9953Z" fill="#4885ED"/>
<path d="M177.829 34.6337C174.794 34.6337 172.245 37.0492 172.245 40.611C172.245 44.3817 175.086 46.6177 178.113 46.6177C180.646 46.6177 182.207 45.2325 183.129 43.9907L181.059 42.6137C180.522 43.4462 179.624 44.2616 178.126 44.2616C176.444 44.2616 175.67 43.3404 175.19 42.4465L183.217 39.1167L182.807 38.141C182.032 36.2304 180.223 34.6337 177.829 34.6337ZM177.933 36.9359C179.027 36.9359 179.814 37.5173 180.148 38.2147L174.788 40.4548C174.556 38.7203 176.2 36.9359 177.926 36.9359H177.933Z" fill="#DB3236"/>
<path d="M168.413 46.2629H171.049V28.6196H168.413V46.2629Z" fill="#3CBA54"/>
</svg>
