<svg width="294" height="80" viewBox="0 0 294 80" fill="none" xmlns="http://www.w3.org/2000/svg">
<rect width="294" height="80" rx="5" fill="#EBFFFE" fill-opacity="0.5"/>
<path d="M129.647 46.4416L130.817 43.8106C132.081 44.7241 133.761 45.1992 135.421 45.1992C136.648 45.1992 137.422 44.7424 137.422 44.0481C137.403 42.1114 130.081 43.6279 130.025 38.7678C130.006 36.3012 132.27 34.4011 135.478 34.4011C137.384 34.4011 139.29 34.8579 140.648 35.8993L139.554 38.5851C138.308 37.8177 136.761 37.2696 135.289 37.2696C134.289 37.2696 133.629 37.7264 133.629 38.311C133.648 40.2112 141.026 39.1698 141.101 43.8106C141.101 46.3319 138.893 48.1042 135.723 48.1042C133.402 48.1042 131.27 47.5744 129.647 46.4416Z" fill="black"/>
<path d="M174.538 42.8605C173.953 43.8472 172.858 44.5231 171.594 44.5231C169.726 44.5231 168.216 43.0615 168.216 41.2527C168.216 39.4439 169.726 37.9822 171.594 37.9822C172.858 37.9822 173.953 38.6582 174.538 39.6449L177.764 37.9091C176.557 35.8262 174.236 34.4011 171.594 34.4011C167.688 34.4011 164.518 37.4706 164.518 41.2527C164.518 45.0347 167.688 48.1042 171.594 48.1042C174.255 48.1042 176.557 46.6974 177.764 44.5962L174.538 42.8605Z" fill="black"/>
<path d="M142.724 28.7189H146.762V47.8484H142.724V28.7189Z" fill="black"/>
<path d="M179.349 28.7189V47.8484H183.387V42.1114L188.18 47.8484H193.35L187.256 41.0335L192.898 34.6752H187.954L183.387 39.9555V28.7189H179.349Z" fill="black"/>
<path d="M158.763 42.897C158.178 43.8288 156.97 44.5231 155.612 44.5231C153.744 44.5231 152.234 43.0615 152.234 41.2527C152.234 39.4439 153.744 37.9822 155.612 37.9822C156.97 37.9822 158.178 38.713 158.763 39.6631V42.897ZM158.763 34.6752V36.2282C158.102 35.1502 156.461 34.4011 154.744 34.4011C151.196 34.4011 148.404 37.4341 148.404 41.2344C148.404 45.0347 151.196 48.1042 154.744 48.1042C156.461 48.1042 158.102 47.3551 158.763 46.2772V47.8302H162.801V34.6752H158.763Z" fill="black"/>
<path d="M105.064 43.172C105.064 44.5669 103.936 45.6943 102.541 45.6943C101.146 45.6943 100.019 44.5669 100.019 43.172C100.019 41.7771 101.146 40.6497 102.541 40.6497H105.064V43.172Z" fill="#E01E5A"/>
<path d="M106.325 43.172C106.325 41.7771 107.452 40.6497 108.847 40.6497C110.242 40.6497 111.369 41.7771 111.369 43.172V49.4777C111.369 50.8726 110.242 52 108.847 52C107.452 52 106.325 50.8726 106.325 49.4777V43.172Z" fill="#E01E5A"/>
<path d="M108.847 33.0446C107.452 33.0446 106.325 31.9172 106.325 30.5223C106.325 29.1274 107.452 28 108.847 28C110.242 28 111.369 29.1274 111.369 30.5223V33.0446H108.847Z" fill="#36C5F0"/>
<path d="M108.847 34.3248C110.242 34.3248 111.369 35.4523 111.369 36.8472C111.369 38.2421 110.242 39.3694 108.847 39.3694H102.522C101.127 39.3694 100 38.2421 100 36.8472C100 35.4523 101.127 34.3248 102.522 34.3248H108.847Z" fill="#36C5F0"/>
<path d="M118.955 36.8472C118.955 35.4523 120.083 34.3248 121.478 34.3248C122.873 34.3248 124 35.4523 124 36.8472C124 38.2421 122.873 39.3694 121.478 39.3694H118.955V36.8472Z" fill="#2EB67D"/>
<path d="M117.694 36.8472C117.694 38.2421 116.567 39.3694 115.172 39.3694C113.777 39.3694 112.65 38.2421 112.65 36.8472V30.5223C112.65 29.1274 113.777 28 115.172 28C116.567 28 117.694 29.1274 117.694 30.5223V36.8472Z" fill="#2EB67D"/>
<path d="M115.172 46.9554C116.567 46.9554 117.694 48.0828 117.694 49.4777C117.694 50.8726 116.567 52 115.172 52C113.777 52 112.65 50.8726 112.65 49.4777V46.9554H115.172Z" fill="#ECB22E"/>
<path d="M115.172 45.6943C113.777 45.6943 112.65 44.5669 112.65 43.172C112.65 41.7771 113.777 40.6497 115.172 40.6497H121.497C122.892 40.6497 124.019 41.7771 124.019 43.172C124.019 44.5669 122.892 45.6943 121.497 45.6943H115.172Z" fill="#ECB22E"/>
</svg>
