<svg width="294" height="80" viewBox="0 0 294 80" fill="none" xmlns="http://www.w3.org/2000/svg">
<rect width="294" height="80" rx="5" fill="#EBFFFE" fill-opacity="0.5"/>
<path fill-rule="evenodd" clip-rule="evenodd" d="M177.906 43.9347C179.218 47.1789 182.117 49.5017 185.609 50.1147C187.651 50.4692 190.705 49.9297 192.728 48.8544C194.41 47.9584 194.679 47.6216 194.391 46.7882C194.253 46.3848 194.162 44.4772 194.162 41.9263V37.7224L185.471 37.6039V42.1789L188.678 42.1544L188.747 42.9603C188.829 43.9435 188.604 44.1139 187.233 44.1139C185.91 44.1139 184.768 43.4852 183.931 42.2935C183.389 41.5258 183.303 41.2183 183.31 40.1235C183.323 38.4333 183.923 37.2797 185.222 36.4415C186.131 35.8579 186.297 35.8226 187.747 35.9009C188.765 35.9568 189.742 36.1663 190.591 36.513L191.882 37.0379V30L188.521 30.1067C184.768 30.2252 183.35 30.5484 181.556 31.698C179.534 32.9985 177.982 35.2331 177.405 37.6832C177.002 39.4018 177.231 42.2651 177.906 43.9347ZM90.6937 42.2856C90.6575 45.9666 90.5468 49.1433 90.4528 49.3402C90.2903 49.676 90.4998 49.7035 93.5022 49.6995H96.7288V30.0431L87.1146 30.1537L87.0548 32.9475L87 35.7394L88.8802 35.664L90.7574 35.5935L90.6937 42.2856ZM97.9736 39.8757V30.0519H106.451V35.7717L104.175 35.5807V37.6988H107.691V30.0431H113.901V49.6917H107.292L107.494 49.1619C107.604 48.8701 107.696 47.2416 107.696 45.5436V42.4541H104.156L104.219 45.714C104.255 47.507 104.361 49.1345 104.456 49.3323C104.618 49.6682 104.4 49.6946 101.3 49.6946H97.9697V39.8757H97.9736ZM195.13 30.5131C195.355 31.1369 195.346 48.877 195.122 49.3402C194.956 49.68 195.3 49.7035 200.964 49.7123H206.984V43.873L206.518 44.016C205.914 44.2011 201.916 44.4185 201.564 44.2833C201.374 44.2128 201.315 43.8524 201.367 43.0906L201.443 42.0007L202.817 42.1143C203.575 42.1789 204.357 42.2935 204.555 42.3718C204.887 42.503 204.918 42.3082 204.918 40.0451V37.5764L201.403 37.7576V35.2214L203.007 35.2262C204.504 35.2331 205.384 35.3565 206.53 35.7237L207 35.8735L206.882 30.1537L194.959 30.0431L195.13 30.5131ZM138.242 49.0285C135.378 42.1786 130.456 31.0818 130.081 30.6352L129.588 30.0467H136.535C140.356 30.0467 143.484 30.1182 143.484 30.2005C143.484 30.2876 143.077 31.4255 142.583 32.7328L141.683 35.1114L140.103 35.1711C139.233 35.2025 138.522 35.2651 138.522 35.3082C138.522 35.505 140.462 40.7137 140.589 40.8586C140.668 40.9497 141.643 38.5525 142.762 35.5344L144.792 30.0467H160.869V33.0696C160.869 35.8732 160.841 36.0789 160.506 35.9251C160.309 35.8341 159.051 35.7234 157.713 35.6793L155.283 35.601V37.7573L158.8 37.5771V42.4195L157.883 42.2256C157.381 42.1189 156.611 42.0601 156.176 42.0954L155.386 42.1581L155.26 44.5366H157.105C158.218 44.5366 159.301 44.4133 159.83 44.2252C160.312 44.0549 160.743 43.9119 160.786 43.9119C160.829 43.9119 160.865 45.2153 160.865 46.8075V49.7032H154.842C149.907 49.7032 148.856 49.6571 149.042 49.4348C149.287 49.1381 149.493 34.8108 149.248 34.8108C149.173 34.8108 147.683 38.1608 145.941 42.257L142.773 49.7032H138.522L138.242 49.0285ZM161.655 30.0469L161.825 30.514C162.05 31.1329 162.046 48.8749 161.818 49.3352C161.651 49.672 161.877 49.6994 165.186 49.6994C168.627 49.6994 168.73 49.6887 168.521 49.3009C168.402 49.0796 168.307 47.7723 168.307 46.3925C168.307 43.8886 168.307 43.8856 168.773 44.0188C169.643 44.2764 170.78 45.1528 171.333 45.9812C171.953 46.9223 172.206 48.5664 171.838 49.2607L171.598 49.6994H175.134C177.204 49.6994 178.621 49.6201 178.554 49.5144C178.491 49.4106 178.27 48.305 178.057 47.0564C177.587 44.3116 176.749 42.5607 175.414 41.5423L174.529 40.8627L175.035 40.1831C176.721 37.8966 176.453 34.0687 174.466 32.0847C172.85 30.4699 171.009 30.0587 165.447 30.0557L161.655 30.0469ZM114.865 30.9044C115.284 32.1295 115.184 48.8394 114.754 49.3593C114.494 49.6756 114.917 49.704 120.499 49.704H126.514V43.8658L126.048 44.0156C125.791 44.0978 124.531 44.2124 123.243 44.2682L120.905 44.3701L120.968 43.2596L121.031 42.1521L121.821 42.0874C122.256 42.0512 123.026 42.1119 123.527 42.2187L124.444 42.4106V37.5682L122.674 37.6642L120.905 37.7543L121.031 35.3199L122.687 35.265C123.622 35.2327 124.816 35.3336 125.428 35.4942L126.514 35.7782V30.0515H114.569L114.865 30.9044ZM169.655 35.5229C169.243 35.3515 168.955 35.2379 168.758 35.2261C168.319 35.1978 168.307 35.66 168.307 37.0789V38.9395H168.94C169.366 38.9395 169.773 38.7456 170.18 38.3392C171.135 37.3825 170.887 36.035 169.655 35.5229Z" fill="#DB0E31"/>
</svg>
