<svg width="66" height="42" viewBox="0 0 66 42" fill="none" xmlns="http://www.w3.org/2000/svg">
<path d="M47.0145 18.9178C51.5785 18.5744 56.0046 17.1951 59.9576 14.8842C62.4483 13.3702 65.0962 9.86052 65.2745 6.44778C65.335 5.30616 65.6463 1.79349 64.1652 0.533776C63.9596 0.358143 63.4942 0.41265 63.4186 0.621593C60.9853 7.35017 48.2659 12.0953 42.4836 13.1128C40.4523 13.4731 35.8579 18.297 32.672 18.3909C29.4891 18.294 24.8946 13.4731 22.8634 13.1128C17.081 12.0953 4.36161 7.35017 1.92835 0.621593C1.85279 0.427791 1.3873 0.358143 1.18175 0.533776C-0.299356 1.79349 0.00291149 5.30616 0.072433 6.44778C0.250771 9.86052 2.89863 13.3671 5.38931 14.8842C9.34235 17.1951 13.7685 18.5744 18.3324 18.9178C20.3425 19.0692 22.3737 19.6354 23.0478 20.6378C23.0478 20.6378 23.0478 20.6559 23.0206 20.6529C18.0271 19.7687 16.2196 20.7528 10.8301 20.0836C8.60544 19.808 5.32584 19.2024 3.70871 17.7095C3.46085 17.4824 2.88352 17.5581 2.92281 17.8276C2.98277 18.297 3.09532 18.7582 3.25833 19.2024C4.40392 22.2306 7.7742 23.7144 11.0961 24.0747C15.7178 24.5774 17.2019 23.3934 22.1984 23.1663C24.408 23.0724 25.6684 23.027 27.3641 23.9233C27.3641 23.9233 27.3641 23.9445 27.349 23.9445C19.3359 23.9112 18.0392 26.9727 12.2357 26.7728C11.6825 26.7546 11.4286 27.1665 11.879 27.3542C12.7644 27.8775 13.7039 28.3029 14.681 28.623C17.4326 29.4284 20.3621 29.3872 23.0901 28.5049C25.1546 27.8024 26.1883 27.6813 27.6997 27.6631C28.8245 27.6777 29.9317 27.9446 30.94 28.4444C30.94 28.4444 29.8397 30.9971 28.9722 32.1508C28.1778 33.2523 27.077 34.0949 25.8075 34.5734C25.4055 34.7127 25.608 35.2274 26.01 35.4152C30.7647 37.6651 31.6503 41.5714 32.6599 41.5714C33.6846 41.5714 34.5702 37.6651 39.3097 35.4152C39.7118 35.2274 39.9143 34.7127 39.5123 34.5734C38.2427 34.0949 37.142 33.2523 36.3475 32.1508C35.48 30.9971 34.3798 28.4444 34.3798 28.4444C35.388 27.9446 36.4953 27.6777 37.6201 27.6631C39.1314 27.6631 40.1652 27.8024 42.2145 28.5231C44.9435 29.4055 47.8741 29.4466 50.6266 28.6412C51.6128 28.3248 52.5615 27.9014 53.4559 27.3784C53.9062 27.1907 53.6523 26.7728 53.0992 26.797C47.3017 27.012 46.005 23.9354 37.9858 23.9687C37.9707 23.9687 37.9647 23.9687 37.9707 23.9475C39.6664 23.0391 40.9269 23.0966 43.1365 23.1905C48.1329 23.4055 49.614 24.5895 54.2387 24.0989C57.5637 23.7386 60.9309 22.2487 62.0765 19.2236C62.2393 18.7804 62.3519 18.3202 62.412 17.8518C62.4513 17.5823 61.874 17.5066 61.6261 17.7337C60.009 19.2175 56.7294 19.8292 54.5047 20.1078C49.1153 20.777 47.3077 19.805 42.3143 20.6771C42.2992 20.6771 42.2871 20.6771 42.2871 20.662C42.9732 19.6354 45.0045 19.0692 47.0145 18.9178Z" fill="url(#paint0_linear_254_85)"/>
<defs>
<linearGradient id="paint0_linear_254_85" x1="32.672" y1="6.09046" x2="32.672" y2="29.4739" gradientUnits="userSpaceOnUse">
<stop stop-color="#2A2563"/>
<stop offset="1" stop-color="#ED5B68"/>
</linearGradient>
</defs>
</svg>
