<svg width="143" height="42" viewBox="0 0 143 42" fill="none" xmlns="http://www.w3.org/2000/svg">
<path d="M19.5357 41.1387C25.653 41.1387 29.7132 39.1898 33.2861 36.05C33.8816 35.5086 34.3688 34.6966 34.3688 33.668C34.3688 31.9898 32.9071 30.5823 31.229 30.5823C30.4169 30.5823 29.7132 30.9071 29.2259 31.3402C26.465 33.668 23.7583 34.9673 19.7523 34.9673C12.4981 34.9673 7.24698 28.9582 7.24698 21.5417V21.4334C7.24698 14.0169 12.5523 8.06199 19.7523 8.06199C23.3793 8.06199 26.1944 9.36124 28.7929 11.4725C29.2259 11.7973 29.8755 12.1221 30.7958 12.1221C32.6364 12.1221 34.0981 10.7146 34.0981 8.87402C34.0981 7.68304 33.5026 6.76274 32.7989 6.22139C29.4966 3.67703 25.653 1.9447 19.8064 1.9447C8.3297 1.9447 0.26355 10.7688 0.26355 21.5417V21.65C0.26355 32.5312 8.4921 41.1387 19.5357 41.1387ZM43.1411 7.79131C45.2523 7.79131 46.8764 6.49206 46.8764 4.54319V4.21838C46.8764 2.26951 45.2523 1.0244 43.1411 1.0244C41.0298 1.0244 39.4057 2.26951 39.4057 4.21838V4.54319C39.4057 6.49206 41.0298 7.79131 43.1411 7.79131ZM43.1411 40.7597C44.9817 40.7597 46.4433 39.3522 46.4433 37.5116V14.883C46.4433 13.0424 44.9817 11.5808 43.1411 11.5808C41.3005 11.5808 39.8929 13.0424 39.8929 14.883V37.5116C39.8929 39.3522 41.3546 40.7597 43.1411 40.7597ZM56.6231 40.7597C58.4637 40.7597 59.9253 39.2981 59.9253 37.5116V29.0665C59.9253 22.2996 63.1193 18.7267 67.7749 17.9146C69.2366 17.6439 70.3735 16.5071 70.3735 14.7748C70.3735 12.88 69.1825 11.5267 67.1253 11.5267C64.2562 11.5267 61.4411 14.2334 59.9253 17.8064V14.883C59.9253 13.0424 58.4637 11.5808 56.6231 11.5808C54.7825 11.5808 53.375 13.0424 53.375 14.883V37.5116C53.375 39.3522 54.8366 40.7597 56.6231 40.7597ZM86.3457 41.1387C91.1096 41.1387 94.1953 39.5146 96.7397 37.0785C97.3352 36.5913 97.66 35.8876 97.66 35.0214C97.66 33.4515 96.4149 32.1522 94.8449 32.1522C94.087 32.1522 93.4374 32.5312 93.0585 32.856C91.272 34.3718 89.269 35.4003 86.6705 35.4003C81.6359 35.4003 78.1171 31.3402 78.1171 26.2515V26.1432C78.1171 21.1627 81.6359 17.0485 86.3998 17.0485C88.9983 17.0485 90.8389 18.077 92.5171 19.4845C92.9502 19.8094 93.654 20.1342 94.466 20.1342C96.1442 20.1342 97.4976 18.8349 97.4976 17.1567C97.4976 16.074 96.9021 15.262 96.469 14.883C94.0329 12.7718 90.9472 11.3101 86.454 11.3101C77.8465 11.3101 71.5668 18.1312 71.5668 26.2515V26.3597C71.5668 34.48 77.8465 41.1387 86.3457 41.1387ZM106.053 40.7597C107.894 40.7597 109.356 39.3522 109.356 37.5116V3.94771C109.356 2.16124 107.894 0.699585 106.053 0.699585C104.213 0.699585 102.805 2.16124 102.805 3.94771V37.5116C102.805 39.3522 104.267 40.7597 106.053 40.7597ZM129.388 41.1387C133.827 41.1387 137.075 39.677 139.674 37.3492C140.161 36.862 140.54 36.1582 140.54 35.3462C140.54 33.8304 139.403 32.6936 137.941 32.6936C137.183 32.6936 136.75 32.9101 136.263 33.2891C134.423 34.8048 132.257 35.7793 129.496 35.7793C125.274 35.7793 121.971 33.1808 121.268 28.5251H139.186C140.865 28.5251 142.272 27.2259 142.272 25.3853C142.272 18.7808 137.779 11.3101 128.684 11.3101C120.51 11.3101 114.717 18.0229 114.717 26.1973V26.3056C114.717 35.1297 121.105 41.1387 129.388 41.1387ZM135.884 24.1943H121.214C121.809 19.7552 124.624 16.6695 128.63 16.6695C132.961 16.6695 135.451 19.9718 135.884 24.1943Z" fill="#506BF0"/>
</svg>
