<svg width="247" height="23" viewBox="0 0 247 23" fill="none" xmlns="http://www.w3.org/2000/svg">
<path d="M0.506744 21.7142V1.76618H12.8769V4.35709H3.51648V10.435H11.9905V13.0162H3.51648V21.7142H0.506744ZM16.1569 21.7142V6.75319H18.9718V9.12982H19.1277C19.4004 8.32462 19.8809 7.69151 20.5692 7.23047C21.264 6.76293 22.0498 6.52917 22.9264 6.52917C23.1082 6.52917 23.3225 6.53566 23.5692 6.54865C23.8225 6.56164 24.0205 6.57787 24.1634 6.59735V9.38306C24.0465 9.3506 23.8387 9.31488 23.54 9.27592C23.2413 9.23047 22.9426 9.20774 22.6439 9.20774C21.9556 9.20774 21.342 9.35384 20.803 9.64605C20.2705 9.93177 19.8485 10.3311 19.5368 10.8441C19.2251 11.3506 19.0692 11.9285 19.0692 12.5779V21.7142H16.1569ZM32.596 22.0162C31.122 22.0162 29.8525 21.7012 28.7876 21.0714C27.7291 20.435 26.911 19.5422 26.333 18.3928C25.7616 17.237 25.4759 15.8831 25.4759 14.3311C25.4759 12.7986 25.7616 11.448 26.333 10.2792C26.911 9.11034 27.7162 8.198 28.7486 7.54215C29.7876 6.88631 31.0019 6.55839 32.3915 6.55839C33.2356 6.55839 34.0538 6.698 34.846 6.97722C35.6382 7.25644 36.3493 7.69475 36.9791 8.29216C37.609 8.88956 38.1058 9.66553 38.4694 10.6201C38.833 11.5681 39.0149 12.7207 39.0149 14.0779V15.1103H27.122V12.9285H36.161C36.161 12.1623 36.0051 11.4837 35.6934 10.8928C35.3817 10.2954 34.9434 9.82462 34.3785 9.48047C33.8201 9.13631 33.1642 8.96423 32.411 8.96423C31.5928 8.96423 30.8785 9.16553 30.2681 9.56813C29.6642 9.96423 29.1967 10.4837 28.8655 11.1266C28.5408 11.7629 28.3785 12.4545 28.3785 13.2012V14.9058C28.3785 15.9058 28.5538 16.7564 28.9045 17.4577C29.2616 18.159 29.7584 18.6948 30.3947 19.0649C31.0311 19.4285 31.7746 19.6103 32.6253 19.6103C33.1772 19.6103 33.6804 19.5324 34.135 19.3766C34.5895 19.2142 34.9824 18.974 35.3136 18.6558C35.6447 18.3376 35.898 17.9448 36.0733 17.4772L38.8298 17.974C38.609 18.7857 38.2129 19.4967 37.6415 20.1071C37.0765 20.711 36.3655 21.1818 35.5084 21.5194C34.6577 21.8506 33.6869 22.0162 32.596 22.0162ZM48.6942 22.0162C47.2202 22.0162 45.9507 21.7012 44.8858 21.0714C43.8274 20.435 43.0092 19.5422 42.4313 18.3928C41.8598 17.237 41.5741 15.8831 41.5741 14.3311C41.5741 12.7986 41.8598 11.448 42.4313 10.2792C43.0092 9.11034 43.8144 8.198 44.8468 7.54215C45.8858 6.88631 47.1001 6.55839 48.4897 6.55839C49.3339 6.55839 50.152 6.698 50.9442 6.97722C51.7365 7.25644 52.4475 7.69475 53.0774 8.29216C53.7072 8.88956 54.204 9.66553 54.5676 10.6201C54.9313 11.5681 55.1131 12.7207 55.1131 14.0779V15.1103H43.2202V12.9285H52.2592C52.2592 12.1623 52.1033 11.4837 51.7916 10.8928C51.48 10.2954 51.0416 9.82462 50.4767 9.48047C49.9183 9.13631 49.2624 8.96423 48.5092 8.96423C47.691 8.96423 46.9767 9.16553 46.3663 9.56813C45.7624 9.96423 45.2949 10.4837 44.9637 11.1266C44.639 11.7629 44.4767 12.4545 44.4767 13.2012V14.9058C44.4767 15.9058 44.652 16.7564 45.0027 17.4577C45.3598 18.159 45.8566 18.6948 46.4929 19.0649C47.1293 19.4285 47.8728 19.6103 48.7235 19.6103C49.2754 19.6103 49.7787 19.5324 50.2332 19.3766C50.6877 19.2142 51.0806 18.974 51.4118 18.6558C51.7429 18.3376 51.9962 17.9448 52.1715 17.4772L54.928 17.974C54.7072 18.7857 54.3111 19.4967 53.7397 20.1071C53.1748 20.711 52.4637 21.1818 51.6066 21.5194C50.7559 21.8506 49.7852 22.0162 48.6942 22.0162ZM58.3444 21.7142V6.75319H61.1399V9.18826H61.3249C61.6366 8.36358 62.1464 7.72073 62.8541 7.25969C63.5619 6.79216 64.4093 6.55839 65.3964 6.55839C66.3964 6.55839 67.234 6.79216 67.9093 7.25969C68.5912 7.72722 69.0944 8.37008 69.4191 9.18826H69.5749C69.9321 8.38956 70.5003 7.75319 71.2795 7.27917C72.0587 6.79865 72.9873 6.55839 74.0652 6.55839C75.4223 6.55839 76.5295 6.98371 77.3866 7.83436C78.2503 8.68501 78.6821 9.96748 78.6821 11.6818V21.7142H75.7697V11.9545C75.7697 10.9415 75.4938 10.2077 74.9418 9.75319C74.3899 9.29865 73.7308 9.07138 72.9645 9.07138C72.0165 9.07138 71.2795 9.36358 70.7535 9.948C70.2275 10.5259 69.9645 11.2694 69.9645 12.1785V21.7142H67.0619V11.7694C67.0619 10.9577 66.8087 10.3051 66.3022 9.81164C65.7957 9.31813 65.1366 9.07138 64.3249 9.07138C63.773 9.07138 63.2632 9.21748 62.7957 9.50969C62.3347 9.7954 61.9613 10.1948 61.6756 10.7077C61.3964 11.2207 61.2567 11.8149 61.2567 12.4902V21.7142H58.3444ZM86.9394 22.0454C85.9913 22.0454 85.1342 21.8701 84.3679 21.5194C83.6017 21.1623 82.9946 20.6461 82.5465 19.9707C82.105 19.2954 81.8842 18.4675 81.8842 17.487C81.8842 16.6428 82.0465 15.948 82.3712 15.4025C82.6959 14.8571 83.1342 14.4253 83.6861 14.1071C84.2381 13.7889 84.855 13.5486 85.5368 13.3863C86.2186 13.224 86.9134 13.1006 87.6212 13.0162C88.5173 12.9123 89.2446 12.8279 89.803 12.7629C90.3615 12.6915 90.7673 12.5779 91.0205 12.422C91.2738 12.2662 91.4004 12.0129 91.4004 11.6623V11.5941C91.4004 10.7435 91.1602 10.0844 90.6796 9.61683C90.2056 9.1493 89.4978 8.91553 88.5563 8.91553C87.5757 8.91553 86.803 9.13306 86.2381 9.56813C85.6796 9.9967 85.2933 10.474 85.079 10.9999L82.342 10.3766C82.6666 9.46748 83.1407 8.73371 83.764 8.17527C84.3939 7.61034 85.1179 7.20125 85.9361 6.948C86.7543 6.68826 87.6147 6.55839 88.5173 6.55839C89.1147 6.55839 89.7478 6.62982 90.4166 6.77267C91.092 6.90904 91.7218 7.16228 92.3063 7.53241C92.8972 7.90254 93.3809 8.43177 93.7576 9.12008C94.1342 9.8019 94.3225 10.6883 94.3225 11.7792V21.7142H91.4783V19.6688H91.3615C91.1731 20.0454 90.8907 20.4155 90.514 20.7792C90.1374 21.1428 89.6537 21.4448 89.0628 21.685C88.4718 21.9253 87.764 22.0454 86.9394 22.0454ZM87.5725 19.7077C88.3777 19.7077 89.066 19.5486 89.6374 19.2305C90.2153 18.9123 90.6537 18.4967 90.9524 17.9837C91.2576 17.4642 91.4102 16.909 91.4102 16.3181V14.3896C91.3063 14.4935 91.105 14.5909 90.8063 14.6818C90.514 14.7662 90.1796 14.8409 89.803 14.9058C89.4264 14.9642 89.0595 15.0194 88.7024 15.0714C88.3452 15.1168 88.0465 15.1558 87.8063 15.1883C87.2413 15.2597 86.7251 15.3798 86.2576 15.5486C85.7965 15.7175 85.4264 15.961 85.1472 16.2792C84.8744 16.5909 84.7381 17.0064 84.7381 17.5259C84.7381 18.2467 85.0043 18.7922 85.5368 19.1623C86.0692 19.5259 86.7478 19.7077 87.5725 19.7077ZM98.2016 21.7142V6.75319H101.016V9.12982H101.172C101.445 8.32462 101.926 7.69151 102.614 7.23047C103.309 6.76293 104.094 6.52917 104.971 6.52917C105.153 6.52917 105.367 6.53566 105.614 6.54865C105.867 6.56164 106.065 6.57787 106.208 6.59735V9.38306C106.091 9.3506 105.883 9.31488 105.585 9.27592C105.286 9.23047 104.987 9.20774 104.689 9.20774C104 9.20774 103.387 9.35384 102.848 9.64605C102.315 9.93177 101.893 10.3311 101.581 10.8441C101.27 11.3506 101.114 11.9285 101.114 12.5779V21.7142H98.2016ZM111.407 16.6396L111.387 13.0844H111.894L117.855 6.75319H121.342L114.543 13.961H114.085L111.407 16.6396ZM108.728 21.7142V1.76618H111.641V21.7142H108.728ZM118.176 21.7142L112.819 14.6038L114.826 12.5681L121.751 21.7142H118.176ZM129.828 22.0162C128.354 22.0162 127.085 21.7012 126.02 21.0714C124.961 20.435 124.143 19.5422 123.565 18.3928C122.994 17.237 122.708 15.8831 122.708 14.3311C122.708 12.7986 122.994 11.448 123.565 10.2792C124.143 9.11034 124.948 8.198 125.981 7.54215C127.02 6.88631 128.234 6.55839 129.624 6.55839C130.468 6.55839 131.286 6.698 132.078 6.97722C132.87 7.25644 133.581 7.69475 134.211 8.29216C134.841 8.88956 135.338 9.66553 135.702 10.6201C136.065 11.5681 136.247 12.7207 136.247 14.0779V15.1103H124.354V12.9285H133.393C133.393 12.1623 133.237 11.4837 132.926 10.8928C132.614 10.2954 132.176 9.82462 131.611 9.48047C131.052 9.13631 130.396 8.96423 129.643 8.96423C128.825 8.96423 128.111 9.16553 127.5 9.56813C126.896 9.96423 126.429 10.4837 126.098 11.1266C125.773 11.7629 125.611 12.4545 125.611 13.2012V14.9058C125.611 15.9058 125.786 16.7564 126.137 17.4577C126.494 18.159 126.991 18.6948 127.627 19.0649C128.263 19.4285 129.007 19.6103 129.857 19.6103C130.409 19.6103 130.913 19.5324 131.367 19.3766C131.822 19.2142 132.215 18.974 132.546 18.6558C132.877 18.3376 133.13 17.9448 133.305 17.4772L136.062 17.974C135.841 18.7857 135.445 19.4967 134.874 20.1071C134.309 20.711 133.598 21.1818 132.741 21.5194C131.89 21.8506 130.919 22.0162 129.828 22.0162ZM146.462 6.75319V9.09086H138.29V6.75319H146.462ZM140.482 3.16878H143.394V17.3214C143.394 17.8863 143.478 18.3116 143.647 18.5974C143.816 18.8766 144.034 19.0681 144.3 19.172C144.572 19.2694 144.868 19.3181 145.186 19.3181C145.42 19.3181 145.624 19.3019 145.8 19.2694C145.975 19.237 146.111 19.211 146.209 19.1915L146.735 21.5974C146.566 21.6623 146.326 21.7272 146.014 21.7922C145.702 21.8636 145.313 21.9025 144.845 21.909C144.079 21.922 143.365 21.7857 142.702 21.4999C142.04 21.2142 141.504 20.7727 141.095 20.1753C140.686 19.5779 140.482 18.8279 140.482 17.9253V3.16878ZM157.176 21.7142V1.76618H169.547V4.35709H160.186V10.435H168.66V13.0162H160.186V21.7142H157.176ZM173.014 21.7142V6.75319H175.926V21.7142H173.014ZM174.485 4.44475C173.978 4.44475 173.543 4.27592 173.18 3.93826C172.822 3.5941 172.644 3.18501 172.644 2.71099C172.644 2.23047 172.822 1.82138 173.18 1.48371C173.543 1.13956 173.978 0.967479 174.485 0.967479C174.991 0.967479 175.423 1.13956 175.78 1.48371C176.144 1.82138 176.326 2.23047 176.326 2.71099C176.326 3.18501 176.144 3.5941 175.78 3.93826C175.423 4.27592 174.991 4.44475 174.485 4.44475ZM182.757 12.8311V21.7142H179.844V6.75319H182.64V9.18826H182.825C183.169 8.39605 183.708 7.75969 184.442 7.27917C185.182 6.79865 186.114 6.55839 187.237 6.55839C188.257 6.55839 189.15 6.77267 189.916 7.20125C190.682 7.62332 191.276 8.25319 191.698 9.09086C192.12 9.92852 192.331 10.9642 192.331 12.198V21.7142H189.419V12.5486C189.419 11.4642 189.137 10.6168 188.572 10.0064C188.007 9.38956 187.231 9.08112 186.244 9.08112C185.568 9.08112 184.968 9.22722 184.442 9.51943C183.922 9.81164 183.51 10.2402 183.205 10.8051C182.906 11.3636 182.757 12.0389 182.757 12.8311ZM200.591 22.0454C199.643 22.0454 198.786 21.8701 198.02 21.5194C197.254 21.1623 196.646 20.6461 196.198 19.9707C195.757 19.2954 195.536 18.4675 195.536 17.487C195.536 16.6428 195.698 15.948 196.023 15.4025C196.348 14.8571 196.786 14.4253 197.338 14.1071C197.89 13.7889 198.507 13.5486 199.189 13.3863C199.87 13.224 200.565 13.1006 201.273 13.0162C202.169 12.9123 202.896 12.8279 203.455 12.7629C204.013 12.6915 204.419 12.5779 204.672 12.422C204.926 12.2662 205.052 12.0129 205.052 11.6623V11.5941C205.052 10.7435 204.812 10.0844 204.331 9.61683C203.857 9.1493 203.15 8.91553 202.208 8.91553C201.228 8.91553 200.455 9.13306 199.89 9.56813C199.331 9.9967 198.945 10.474 198.731 10.9999L195.994 10.3766C196.318 9.46748 196.792 8.73371 197.416 8.17527C198.046 7.61034 198.77 7.20125 199.588 6.948C200.406 6.68826 201.266 6.55839 202.169 6.55839C202.766 6.55839 203.4 6.62982 204.068 6.77267C204.744 6.90904 205.374 7.16228 205.958 7.53241C206.549 7.90254 207.033 8.43177 207.409 9.12008C207.786 9.8019 207.974 10.6883 207.974 11.7792V21.7142H205.13V19.6688H205.013C204.825 20.0454 204.542 20.4155 204.166 20.7792C203.789 21.1428 203.305 21.4448 202.715 21.685C202.124 21.9253 201.416 22.0454 200.591 22.0454ZM201.224 19.7077C202.029 19.7077 202.718 19.5486 203.289 19.2305C203.867 18.9123 204.305 18.4967 204.604 17.9837C204.909 17.4642 205.062 16.909 205.062 16.3181V14.3896C204.958 14.4935 204.757 14.5909 204.458 14.6818C204.166 14.7662 203.831 14.8409 203.455 14.9058C203.078 14.9642 202.711 15.0194 202.354 15.0714C201.997 15.1168 201.698 15.1558 201.458 15.1883C200.893 15.2597 200.377 15.3798 199.909 15.5486C199.448 15.7175 199.078 15.961 198.799 16.2792C198.526 16.5909 198.39 17.0064 198.39 17.5259C198.39 18.2467 198.656 18.7922 199.189 19.1623C199.721 19.5259 200.4 19.7077 201.224 19.7077ZM214.766 12.8311V21.7142H211.853V6.75319H214.649V9.18826H214.834C215.178 8.39605 215.717 7.75969 216.451 7.27917C217.191 6.79865 218.123 6.55839 219.246 6.55839C220.266 6.55839 221.159 6.77267 221.925 7.20125C222.691 7.62332 223.285 8.25319 223.707 9.09086C224.129 9.92852 224.34 10.9642 224.34 12.198V21.7142H221.428V12.5486C221.428 11.4642 221.146 10.6168 220.581 10.0064C220.016 9.38956 219.24 9.08112 218.253 9.08112C217.577 9.08112 216.977 9.22722 216.451 9.51943C215.931 9.81164 215.519 10.2402 215.214 10.8051C214.915 11.3636 214.766 12.0389 214.766 12.8311ZM234.548 22.0162C233.1 22.0162 231.853 21.6883 230.808 21.0324C229.769 20.3701 228.97 19.4577 228.412 18.2954C227.853 17.1331 227.574 15.8019 227.574 14.3019C227.574 12.7824 227.86 11.4415 228.431 10.2792C229.003 9.11034 229.808 8.198 230.847 7.54215C231.886 6.88631 233.11 6.55839 234.519 6.55839C235.655 6.55839 236.668 6.76943 237.558 7.19151C238.447 7.60709 239.165 8.19151 239.71 8.94475C240.262 9.698 240.59 10.5779 240.694 11.5844H237.86C237.704 10.8831 237.347 10.2792 236.788 9.77267C236.236 9.26618 235.496 9.01293 234.568 9.01293C233.756 9.01293 233.045 9.22722 232.435 9.65579C231.831 10.0779 231.36 10.6818 231.022 11.4675C230.685 12.2467 230.516 13.1688 230.516 14.2337C230.516 15.3246 230.681 16.2662 231.012 17.0584C231.344 17.8506 231.811 18.4642 232.415 18.8993C233.025 19.3344 233.743 19.5519 234.568 19.5519C235.12 19.5519 235.62 19.4512 236.068 19.2499C236.522 19.0422 236.902 18.7467 237.207 18.3636C237.519 17.9805 237.736 17.5194 237.86 16.9805H240.694C240.59 17.948 240.275 18.8116 239.749 19.5714C239.223 20.3311 238.519 20.9285 237.636 21.3636C236.759 21.7986 235.73 22.0162 234.548 22.0162ZM243.809 21.7142V6.75319H246.721V21.7142H243.809ZM245.279 4.44475C244.773 4.44475 244.338 4.27592 243.974 3.93826C243.617 3.5941 243.439 3.18501 243.439 2.71099C243.439 2.23047 243.617 1.82138 243.974 1.48371C244.338 1.13956 244.773 0.967479 245.279 0.967479C245.786 0.967479 246.218 1.13956 246.575 1.48371C246.939 1.82138 247.12 2.23047 247.12 2.71099C247.12 3.18501 246.939 3.5941 246.575 3.93826C246.218 4.27592 245.786 4.44475 245.279 4.44475ZM254.993 22.0454C254.045 22.0454 253.188 21.8701 252.422 21.5194C251.655 21.1623 251.048 20.6461 250.6 19.9707C250.159 19.2954 249.938 18.4675 249.938 17.487C249.938 16.6428 250.1 15.948 250.425 15.4025C250.749 14.8571 251.188 14.4253 251.74 14.1071C252.292 13.7889 252.909 13.5486 253.59 13.3863C254.272 13.224 254.967 13.1006 255.675 13.0162C256.571 12.9123 257.298 12.8279 257.857 12.7629C258.415 12.6915 258.821 12.5779 259.074 12.422C259.327 12.2662 259.454 12.0129 259.454 11.6623V11.5941C259.454 10.7435 259.214 10.0844 258.733 9.61683C258.259 9.1493 257.551 8.91553 256.61 8.91553C255.629 8.91553 254.857 9.13306 254.292 9.56813C253.733 9.9967 253.347 10.474 253.133 10.9999L250.396 10.3766C250.72 9.46748 251.194 8.73371 251.818 8.17527C252.447 7.61034 253.172 7.20125 253.99 6.948C254.808 6.68826 255.668 6.55839 256.571 6.55839C257.168 6.55839 257.801 6.62982 258.47 6.77267C259.146 6.90904 259.775 7.16228 260.36 7.53241C260.951 7.90254 261.435 8.43177 261.811 9.12008C262.188 9.8019 262.376 10.6883 262.376 11.7792V21.7142H259.532V19.6688H259.415C259.227 20.0454 258.944 20.4155 258.568 20.7792C258.191 21.1428 257.707 21.4448 257.116 21.685C256.525 21.9253 255.818 22.0454 254.993 22.0454ZM255.626 19.7077C256.431 19.7077 257.12 19.5486 257.691 19.2305C258.269 18.9123 258.707 18.4967 259.006 17.9837C259.311 17.4642 259.464 16.909 259.464 16.3181V14.3896C259.36 14.4935 259.159 14.5909 258.86 14.6818C258.568 14.7662 258.233 14.8409 257.857 14.9058C257.48 14.9642 257.113 15.0194 256.756 15.0714C256.399 15.1168 256.1 15.1558 255.86 15.1883C255.295 15.2597 254.779 15.3798 254.311 15.5486C253.85 15.7175 253.48 15.961 253.201 16.2792C252.928 16.5909 252.792 17.0064 252.792 17.5259C252.792 18.2467 253.058 18.7922 253.59 19.1623C254.123 19.5259 254.801 19.7077 255.626 19.7077ZM269.167 1.76618V21.7142H266.255V1.76618H269.167Z" fill="#B88D2C"/>
</svg>
