<svg width="53" height="51" viewBox="0 0 53 51" fill="none" xmlns="http://www.w3.org/2000/svg">
<g clip-path="url(#clip0_194_11074)">
<path d="M26.3501 0.368439H9.50797C4.85715 0.368439 1.08691 4.13867 1.08691 8.78949V25.6316C1.08691 30.2824 4.85715 34.0527 9.50797 34.0527H26.3501C31.0009 34.0527 34.7711 30.2824 34.7711 25.6316V8.78949C34.7711 4.13867 31.0009 0.368439 26.3501 0.368439Z" fill="#BAF3F0"/>
<path d="M42.6181 47.3976C41.6053 47.3976 40.5925 47.3867 39.5797 47.3976C38.0445 47.4185 36.7556 46.8744 35.6758 45.7872C33.9842 44.083 32.28 42.3905 30.5817 40.693L21.3886 31.505C20.5231 30.6386 20.519 29.7162 21.376 28.8558L23.0576 27.17C23.5272 26.6987 23.7072 26.6971 24.1709 27.1607L37.1934 40.1866C37.4737 40.467 37.7592 40.7424 38.0303 41.0295C38.9093 41.9502 39.9849 42.3787 41.2529 42.3687C43.2266 42.3586 45.1995 42.3687 47.1732 42.3687C48.2203 42.3687 48.8079 42.9546 48.8037 43.9917C48.814 44.3553 48.7958 44.7191 48.7493 45.0798C48.6465 45.7145 48.3241 46.293 47.8384 46.7142C47.3528 47.1355 46.7345 47.373 46.0918 47.3851C44.9333 47.4051 43.774 47.3851 42.6148 47.3851L42.6181 47.3976Z" fill="#6B747F"/>
<path d="M40.2447 29.6728C40.6046 30.6873 40.952 31.6473 41.2801 32.6133C41.2899 32.6728 41.2862 32.7337 41.2694 32.7916C41.2525 32.8495 41.2231 32.903 41.1831 32.9481C40.6022 33.5482 40.0113 34.135 39.4169 34.7251C39.3583 34.7846 39.2964 34.8414 39.2412 34.9034C39.0302 35.1402 39.0236 35.4357 39.2219 35.6325C39.4203 35.8291 39.7107 35.8375 39.9467 35.6073C40.4548 35.1118 40.9512 34.6029 41.4534 34.1007C41.5372 34.017 41.6007 33.9249 41.7187 33.7817C42.858 36.5389 44.4433 39.0896 46.4112 41.3317C46.2939 41.3451 46.2203 41.3611 46.1466 41.3619H41.1655C40.7262 41.3692 40.29 41.286 39.8842 41.1175C39.4784 40.9491 39.1117 40.6989 38.8067 40.3826C36.6907 38.2621 34.5744 36.1416 32.4579 34.0212C32.3534 33.9146 32.2935 33.772 32.2905 33.6228C32.4152 31.5913 32.5558 29.5615 32.6939 27.5317C32.6987 27.4906 32.706 27.4497 32.7157 27.4095C33.0254 27.4095 33.3242 27.4204 33.6222 27.4095C34.2349 27.3818 34.676 27.1124 34.9556 26.5381C35.3691 25.686 36.0805 25.2391 37.0273 25.2107C37.9873 25.1805 38.7138 25.6066 39.1156 26.4754C39.4068 27.1056 39.6136 27.777 39.8338 28.4374C39.8631 28.526 39.7777 28.6885 39.6974 28.7721C38.7297 29.7532 37.7529 30.7258 36.7795 31.7017C36.71 31.7649 36.6456 31.8335 36.5869 31.9069C36.4196 32.1329 36.4346 32.3613 36.6288 32.5589C36.8229 32.7565 37.054 32.7698 37.2783 32.6015C37.3751 32.5222 37.4662 32.4365 37.5512 32.3446L39.966 29.9322C40.0447 29.8553 40.1276 29.7808 40.2447 29.6728Z" fill="#6B747F"/>
<path d="M24.396 25.9634C25.6976 24.6309 26.9907 23.228 28.376 21.9214C29.0457 21.2919 29.9296 21.2911 30.7489 21.7255C31.5684 22.1599 31.9844 22.8705 31.9308 23.7771C31.7559 26.7552 31.5408 29.73 31.3407 32.7064C31.3407 32.7458 31.329 32.7843 31.3132 32.8822L24.396 25.9634Z" fill="#6B747F"/>
<path d="M31.1326 45.5432H21.4839C21.074 45.5432 20.7417 45.8755 20.7417 46.2854C20.7417 46.6953 21.074 47.0276 21.4839 47.0276H31.1326C31.5426 47.0276 31.8749 46.6953 31.8749 46.2854C31.8749 45.8755 31.5426 45.5432 31.1326 45.5432Z" fill="#6B747F"/>
<path d="M27.017 41.491H21.4839C21.074 41.491 20.7417 41.8233 20.7417 42.2332C20.7417 42.6431 21.074 42.9754 21.4839 42.9754H27.017C27.4269 42.9754 27.7592 42.6431 27.7592 42.2332C27.7592 41.8233 27.4269 41.491 27.017 41.491Z" fill="#6B747F"/>
</g>
<defs>
<clipPath id="clip0_194_11074">
<rect width="51.5789" height="50.5263" fill="white" transform="translate(0.736816 0.368439)"/>
</clipPath>
</defs>
</svg>
