<svg width="53" height="52" viewBox="0 0 53 52" fill="none" xmlns="http://www.w3.org/2000/svg">
<g clip-path="url(#clip0_194_11097)">
<path d="M26.7016 0.684227H9.85953C5.20871 0.684227 1.43848 4.45446 1.43848 9.10528V25.9474C1.43848 30.5982 5.20871 34.3684 9.85953 34.3684H26.7016C31.3525 34.3684 35.1227 30.5982 35.1227 25.9474V9.10528C35.1227 4.45446 31.3525 0.684227 26.7016 0.684227Z" fill="#BAF3F0"/>
<path d="M37.5505 22.4521L40.0207 27.3925C40.3575 28.0802 41.2557 28.7399 42.0137 28.8662L46.4909 29.61C49.3541 30.0873 50.0277 32.1644 47.9646 34.2136L44.4838 37.6942C43.8944 38.2837 43.5715 39.4205 43.7541 40.2346L44.7505 44.5434C45.5365 47.9539 43.7259 49.2732 40.7084 47.4908L36.5119 45.0065C35.7541 44.5574 34.5049 44.5574 33.733 45.0065L29.5365 47.4908C26.533 49.2732 24.7084 47.9399 25.4944 44.5434L26.4909 40.2346C26.6733 39.4205 26.3505 38.2837 25.761 37.6942L22.2804 34.2136C20.2312 32.1644 20.8909 30.0873 23.7541 29.61L28.2312 28.8662C28.9751 28.7399 29.8733 28.0802 30.2102 27.3925L32.6804 22.4521C34.0277 19.7715 36.2172 19.7715 37.5505 22.4521Z" fill="#6B747F"/>
</g>
<defs>
<clipPath id="clip0_194_11097">
<rect width="51.5789" height="50.5263" fill="white" transform="translate(0.736816 0.684235)"/>
</clipPath>
</defs>
</svg>
