<svg width="48" height="48" viewBox="0 0 48 48" fill="none" xmlns="http://www.w3.org/2000/svg">
<rect width="48" height="48" rx="24" fill="#06B3A8" fill-opacity="0.1"/>
<path d="M36.7066 31.08V30.8667C36.7066 28.2933 35.4 27 32.84 27C30.28 27 28.9733 28.3067 28.9733 30.8667V31.08C27.5733 31.4267 27.0133 32.3867 27.0133 34.3067V35.2933C27.0133 37.76 27.9333 38.6667 30.3866 38.6667H35.2933C37.76 38.6667 38.6666 37.7467 38.6666 35.2933V34.3067C38.6666 32.4 38.1066 31.4267 36.7066 31.08ZM32.8266 28.84C34.5466 28.84 34.8533 29.4933 34.8533 30.8667V30.9333H30.8V30.8667C30.8 29.4933 31.1066 28.84 32.8266 28.84Z" fill="#06B3A8"/>
<path d="M16.9958 10.754C17.7289 10.659 18.3334 11.2682 18.3334 12.0074V17.0667C18.3334 17.8031 17.7364 18.4 17 18.4H12C11.2636 18.4 10.6558 17.8004 10.7449 17.0694C11.1818 13.4873 13.4292 11.2161 16.9958 10.754Z" fill="#06B3A8"/>
<path d="M35.9067 18.4H31C30.2636 18.4 29.6667 17.8031 29.6667 17.0667V12.0084C29.6667 11.2687 30.2722 10.6595 31.0056 10.7551C34.5171 11.2131 36.7527 13.4242 37.24 16.9067C37.3467 17.6934 36.7067 18.4 35.9067 18.4Z" fill="#06B3A8"/>
<path d="M17 29.7333C17.7364 29.7333 18.3334 30.3303 18.3334 31.0667V35.8933C18.3334 36.6933 17.6267 37.3333 16.8267 37.2267C13.4012 36.717 11.2401 34.5214 10.765 31.0802C10.6634 30.3442 11.274 29.7333 12.017 29.7333H17Z" fill="#06B3A8"/>
<path d="M18.3334 21.7334C18.3334 20.997 17.7364 20.4 17 20.4H12C11.2636 20.4 10.6667 20.997 10.6667 21.7334V26.4C10.6667 27.1364 11.2636 27.7334 12 27.7334H17C17.7364 27.7334 18.3334 27.1364 18.3334 26.4V21.7334Z" fill="#06B3A8"/>
<path d="M27.6666 21.7334C27.6666 20.997 27.0697 20.4 26.3333 20.4H21.6666C20.9303 20.4 20.3333 20.997 20.3333 21.7334V26.4C20.3333 27.1364 20.9303 27.7334 21.6666 27.7334H26.3333C27.0666 27.7334 27.6666 27.1334 27.6666 26.4V21.7334Z" fill="#06B3A8"/>
<path d="M27.6666 12C27.6666 11.2636 27.0697 10.6667 26.3333 10.6667H21.6666C20.9303 10.6667 20.3333 11.2636 20.3333 12V17.0667C20.3333 17.8031 20.9303 18.4 21.6666 18.4H26.3333C27.0697 18.4 27.6666 17.8031 27.6666 17.0667V12Z" fill="#06B3A8"/>
</svg>
