<svg width="48" height="48" viewBox="0 0 48 48" fill="none" xmlns="http://www.w3.org/2000/svg">
<rect width="48" height="48" rx="24" fill="#06B3A8" fill-opacity="0.1"/>
<path d="M24 10.6667C20.5066 10.6667 17.6666 13.5067 17.6666 17C17.6666 20.4267 20.3466 23.2 23.84 23.32C23.9466 23.3067 24.0533 23.3067 24.1333 23.32C24.16 23.32 24.1733 23.32 24.2 23.32C24.2133 23.32 24.2133 23.32 24.2266 23.32C27.64 23.2 30.32 20.4267 30.3333 17C30.3333 13.5067 27.4933 10.6667 24 10.6667Z" fill="#06B3A8"/>
<path d="M30.7733 26.88C27.0533 24.4 20.9866 24.4 17.2399 26.88C15.5466 28 14.6133 29.5334 14.6133 31.1734C14.6133 32.8134 15.5466 34.3334 17.2266 35.4534C19.0933 36.7067 21.5466 37.3334 23.9999 37.3334C26.4533 37.3334 28.9066 36.7067 30.7733 35.4534C32.4533 34.32 33.3866 32.8 33.3866 31.1467C33.3733 29.52 32.4533 27.9867 30.7733 26.88ZM27.1066 30.08L23.7466 33.44C23.5866 33.6 23.3733 33.68 23.1599 33.68C22.9466 33.68 22.7333 33.5867 22.5733 33.44L20.8933 31.76C20.5733 31.44 20.5733 30.9067 20.8933 30.5867C21.2133 30.2667 21.7466 30.2667 22.0666 30.5867L23.1599 31.68L25.9333 28.9067C26.2533 28.5867 26.7866 28.5867 27.1066 28.9067C27.4399 29.2267 27.4399 29.76 27.1066 30.08Z" fill="#06B3A8"/>
</svg>
