<svg width="52" height="51" viewBox="0 0 52 51" fill="none" xmlns="http://www.w3.org/2000/svg">
<g clip-path="url(#clip0_194_11051)">
<path d="M26.0002 0.368469H9.15811C4.50729 0.368469 0.737061 4.1387 0.737061 8.78952V25.6316C0.737061 30.2824 4.50729 34.0527 9.15811 34.0527H26.0002C30.651 34.0527 34.4213 30.2824 34.4213 25.6316V8.78952C34.4213 4.1387 30.651 0.368469 26.0002 0.368469Z" fill="#BAF3F0"/>
<path d="M33.3683 42.8249H30.2104C28.6665 42.8249 27.4034 44.0881 27.4034 45.632V45.9828H25.9999C25.4244 45.9828 24.9473 46.46 24.9473 47.0354C24.9473 47.6109 25.4244 48.0881 25.9999 48.0881H42.842C43.4175 48.0881 43.8946 47.6109 43.8946 47.0354C43.8946 46.46 43.4175 45.9828 42.842 45.9828H41.4385V45.632C41.4385 44.0881 40.1754 42.8249 38.6315 42.8249H35.4736V39.6109C35.1227 39.653 34.7718 39.667 34.4209 39.667C34.0701 39.667 33.7192 39.653 33.3683 39.6109V42.8249Z" fill="#6B747F"/>
<path d="M43.5156 33.5477C44.442 33.1969 45.2561 32.6214 45.9017 31.9758C47.2069 30.5303 48.063 28.8039 48.063 26.7829C48.063 24.7618 46.4771 23.1758 44.4561 23.1758H43.6701C42.7578 21.3092 40.849 20.0179 38.6314 20.0179H30.2104C27.9929 20.0179 26.0841 21.3092 25.1719 23.1758H24.3859C22.3648 23.1758 20.7788 24.7618 20.7788 26.7829C20.7788 28.8039 21.635 30.5303 22.9403 31.9758C23.5859 32.6214 24.3999 33.1969 25.3262 33.5477C26.7859 37.1408 30.2946 39.6671 34.4209 39.6671C38.5472 39.6671 42.0561 37.1408 43.5156 33.5477ZM38.4069 29.0706L37.5367 30.1372C37.3964 30.2916 37.2982 30.6004 37.3122 30.8109L37.3964 32.1864C37.4525 33.0285 36.849 33.4635 36.063 33.1548L34.7859 32.6495C34.5893 32.5793 34.2525 32.5793 34.0561 32.6495L32.7788 33.1548C31.9929 33.4635 31.3893 33.0285 31.4455 32.1864L31.5298 30.8109C31.5438 30.6004 31.4455 30.2916 31.3051 30.1372L30.435 29.0706C29.8876 28.425 30.1262 27.7092 30.9403 27.4987L32.2735 27.1618C32.4841 27.1056 32.7367 26.9092 32.849 26.7267L33.5929 25.5758C34.0561 24.8601 34.7859 24.8601 35.249 25.5758L35.9929 26.7267C36.1051 26.9092 36.3578 27.1056 36.5683 27.1618L37.9017 27.4987C38.7157 27.7092 38.9543 28.425 38.4069 29.0706Z" fill="#6B747F"/>
</g>
<defs>
<clipPath id="clip0_194_11051">
<rect width="50.5263" height="50.5263" fill="white" transform="translate(0.736572 0.368469)"/>
</clipPath>
</defs>
</svg>
