<svg width="48" height="48" viewBox="0 0 48 48" fill="none" xmlns="http://www.w3.org/2000/svg">
<rect width="48" height="48" rx="24" fill="#06B3A8" fill-opacity="0.1"/>
<path d="M18.2 35.88C18.16 35.88 18.1066 35.9067 18.0666 35.9067C15.48 34.6267 13.3733 32.5067 12.08 29.92C12.08 29.88 12.1066 29.8267 12.1066 29.7867C13.7333 30.2667 15.4133 30.6267 17.08 30.9067C17.3733 32.5867 17.72 34.2533 18.2 35.88Z" fill="#06B3A8"/>
<path d="M35.92 29.9333C34.6 32.5867 32.4 34.7333 29.72 36.0267C30.2266 34.3333 30.6533 32.6267 30.9333 30.9067C32.6133 30.6267 34.2666 30.2667 35.8933 29.7867C35.88 29.84 35.92 29.8933 35.92 29.9333Z" fill="#06B3A8"/>
<path d="M36.0266 18.28C34.3466 17.7733 32.6533 17.36 30.9333 17.0667C30.6533 15.3467 30.24 13.64 29.72 11.9733C32.48 13.2933 34.7066 15.52 36.0266 18.28Z" fill="#06B3A8"/>
<path d="M18.2001 12.12C17.7201 13.7467 17.3734 15.4 17.0934 17.08C15.3734 17.3467 13.6667 17.7734 11.9734 18.28C13.2667 15.6 15.4134 13.4 18.0667 12.08C18.1067 12.08 18.1601 12.12 18.2001 12.12Z" fill="#06B3A8"/>
<path d="M28.6533 16.7867C25.56 16.44 22.44 16.44 19.3467 16.7867C19.68 14.96 20.1067 13.1334 20.7067 11.3734C20.7333 11.2667 20.72 11.1867 20.7333 11.08C21.7867 10.8267 22.8667 10.6667 24 10.6667C25.12 10.6667 26.2133 10.8267 27.2533 11.08C27.2667 11.1867 27.2667 11.2667 27.2933 11.3734C27.8933 13.1467 28.32 14.96 28.6533 16.7867Z" fill="#06B3A8"/>
<path d="M16.7866 28.6533C14.9466 28.32 13.1333 27.8933 11.3733 27.2933C11.2666 27.2667 11.1866 27.28 11.08 27.2667C10.8266 26.2133 10.6666 25.1333 10.6666 24C10.6666 22.88 10.8266 21.7867 11.08 20.7467C11.1866 20.7333 11.2666 20.7333 11.3733 20.7067C13.1466 20.12 14.9466 19.68 16.7866 19.3467C16.4533 22.44 16.4533 25.56 16.7866 28.6533Z" fill="#06B3A8"/>
<path d="M37.3334 24C37.3334 25.1333 37.1734 26.2133 36.92 27.2667C36.8134 27.28 36.7334 27.2667 36.6267 27.2933C34.8534 27.88 33.04 28.32 31.2134 28.6533C31.56 25.56 31.56 22.44 31.2134 19.3467C33.04 19.68 34.8667 20.1067 36.6267 20.7067C36.7334 20.7333 36.8134 20.7467 36.92 20.7467C37.1734 21.8 37.3334 22.88 37.3334 24Z" fill="#06B3A8"/>
<path d="M28.6533 31.2133C28.32 33.0533 27.8933 34.8667 27.2933 36.6267C27.2667 36.7333 27.2667 36.8133 27.2533 36.92C26.2133 37.1733 25.12 37.3333 24 37.3333C22.8667 37.3333 21.7867 37.1733 20.7333 36.92C20.72 36.8133 20.7333 36.7333 20.7067 36.6267C20.12 34.8533 19.68 33.0533 19.3467 31.2133C20.8933 31.3867 22.44 31.5067 24 31.5067C25.56 31.5067 27.12 31.3867 28.6533 31.2133Z" fill="#06B3A8"/>
<path d="M29.0177 29.0178C25.6829 29.4385 22.317 29.4385 18.9822 29.0178C18.5614 25.683 18.5614 22.317 18.9822 18.9822C22.317 18.5615 25.6829 18.5615 29.0177 18.9822C29.4385 22.317 29.4385 25.683 29.0177 29.0178Z" fill="#06B3A8"/>
</svg>
