<svg width="52" height="52" viewBox="0 0 52 52" fill="none" xmlns="http://www.w3.org/2000/svg">
<g clip-path="url(#clip0_194_11088)">
<path d="M26.0002 0.684265H9.15811C4.50729 0.684265 0.737061 4.4545 0.737061 9.10532V25.9474C0.737061 30.5982 4.50729 34.3685 9.15811 34.3685H26.0002C30.651 34.3685 34.4213 30.5982 34.4213 25.9474V9.10532C34.4213 4.4545 30.651 0.684265 26.0002 0.684265Z" fill="#BAF3F0"/>
<path d="M42.8709 34.8319L41.1586 33.1197C40.7517 32.7688 40.513 32.2495 40.499 31.674C40.4709 31.0425 40.7235 30.4109 41.1867 29.9477L42.8709 28.2635C44.3306 26.8039 44.878 25.4004 44.4148 24.2916C43.9657 23.1969 42.5762 22.5934 40.527 22.5934H25.8604V21.3864C25.8604 20.8109 25.3832 20.3337 24.8078 20.3337C24.2323 20.3337 23.7551 20.8109 23.7551 21.3864V47.3513C23.7551 47.9267 24.2323 48.4039 24.8078 48.4039C25.3832 48.4039 25.8604 47.9267 25.8604 47.3513V40.5021H40.527C42.5481 40.5021 43.9095 39.8846 44.3727 38.7758C44.8359 37.6671 44.3025 36.2776 42.8709 34.8319Z" fill="#6B747F"/>
</g>
<defs>
<clipPath id="clip0_194_11088">
<rect width="50.5263" height="50.5263" fill="white" transform="translate(0.736572 0.684265)"/>
</clipPath>
</defs>
</svg>
