<svg width="53" height="52" viewBox="0 0 53 52" fill="none" xmlns="http://www.w3.org/2000/svg">
<g clip-path="url(#clip0_194_11107)">
<path d="M26.3501 0.684227H9.50797C4.85715 0.684227 1.08691 4.45446 1.08691 9.10528V25.9474C1.08691 30.5982 4.85715 34.3684 9.50797 34.3684H26.3501C31.0009 34.3684 34.7711 30.5982 34.7711 25.9474V9.10528C34.7711 4.45446 31.0009 0.684227 26.3501 0.684227Z" fill="#BAF3F0"/>
<path d="M41.003 21.8777C38.4626 21.8777 36.189 23.1128 34.7714 25.0075C33.3539 23.1128 31.0802 21.8777 28.5398 21.8777C24.2311 21.8777 20.7363 25.3864 20.7363 29.7233C20.7363 31.3935 21.003 32.9374 21.4661 34.369C23.6837 41.3864 30.5188 45.583 33.9013 46.7338C34.3784 46.9022 35.1644 46.9022 35.6416 46.7338C39.024 45.583 45.8592 41.3864 48.0766 34.369C48.5398 32.9374 48.8065 31.3935 48.8065 29.7233C48.8065 25.3864 45.3118 21.8777 41.003 21.8777Z" fill="#6B747F"/>
</g>
<defs>
<clipPath id="clip0_194_11107">
<rect width="51.5789" height="50.5263" fill="white" transform="translate(0.736816 0.684235)"/>
</clipPath>
</defs>
</svg>
