<svg width="53" height="51" viewBox="0 0 53 51" fill="none" xmlns="http://www.w3.org/2000/svg">
<g clip-path="url(#clip0_194_11062)">
<path d="M26.7016 0.368439H9.85953C5.20871 0.368439 1.43848 4.13867 1.43848 8.78949V25.6316C1.43848 30.2824 5.20871 34.0527 9.85953 34.0527H26.7016C31.3525 34.0527 35.1227 30.2824 35.1227 25.6316V8.78949C35.1227 4.13867 31.3525 0.368439 26.7016 0.368439Z" fill="#BAF3F0"/>
<path d="M48.1047 43.1332L45.7889 43.6805C45.2697 43.8069 44.8626 44.1998 44.7503 44.7192L44.2591 46.7823C43.9924 47.9051 42.5608 48.256 41.817 47.3718L37.6205 42.5437C37.2837 42.1507 37.4661 41.5332 37.9713 41.4069C40.4556 40.8034 42.6871 39.4139 44.3292 37.435C44.596 37.1121 45.0731 37.07 45.3679 37.3647L48.4837 40.4805C49.5503 41.5472 49.1713 42.8805 48.1047 43.1332Z" fill="#6B747F"/>
<path d="M22.0694 43.1332L24.3852 43.6805C24.9045 43.8069 25.3115 44.1998 25.4238 44.7192L25.915 46.7823C26.1816 47.9051 27.6132 48.256 28.3571 47.3718L32.5536 42.5437C32.8905 42.1507 32.708 41.5332 32.2027 41.4069C29.7185 40.8034 27.4869 39.4139 25.8448 37.435C25.5782 37.1121 25.101 37.07 24.8063 37.3647L21.6905 40.4805C20.6238 41.5472 21.0027 42.8805 22.0694 43.1332Z" fill="#6B747F"/>
<path d="M35.1219 20.0179C29.6903 20.0179 25.2974 24.4109 25.2974 29.8424C25.2974 31.8776 25.9008 33.7442 26.9395 35.3021C28.4553 37.5477 30.8553 39.1337 33.6482 39.5408C34.1254 39.625 34.6166 39.6671 35.1219 39.6671C35.6272 39.6671 36.1184 39.625 36.5956 39.5408C39.3885 39.1337 41.7885 37.5477 43.3043 35.3021C44.3429 33.7442 44.9464 31.8776 44.9464 29.8424C44.9464 24.4109 40.5535 20.0179 35.1219 20.0179ZM39.4166 29.5337L38.2517 30.6987C38.0553 30.8951 37.9429 31.274 38.0132 31.5548L38.35 33.0003C38.6166 34.1372 38.0132 34.5863 37.0026 33.9829L35.599 33.1548C35.3464 33.0003 34.9254 33.0003 34.6727 33.1548L33.2693 33.9829C32.2587 34.5723 31.6553 34.1372 31.9219 33.0003L32.2587 31.5548C32.3148 31.2881 32.2166 30.8951 32.0201 30.6987L30.8272 29.5337C30.1395 28.846 30.364 28.1582 31.3184 28.0039L32.8201 27.7513C33.0727 27.7092 33.3675 27.4845 33.4798 27.26L34.3079 25.6039C34.7569 24.7056 35.4868 24.7056 35.9359 25.6039L36.764 27.26C36.8763 27.4845 37.171 27.7092 37.4377 27.7513L38.9395 28.0039C39.8798 28.1582 40.1043 28.846 39.4166 29.5337Z" fill="#6B747F"/>
</g>
<defs>
<clipPath id="clip0_194_11062">
<rect width="51.5789" height="50.5263" fill="white" transform="translate(0.736816 0.368439)"/>
</clipPath>
</defs>
</svg>
