<svg width="88" height="19" viewBox="0 0 88 19" fill="none" xmlns="http://www.w3.org/2000/svg">
<path d="M1.71641 18.1641C2.17344 18.1641 2.46641 17.8711 2.46641 17.3789V4.125H2.53672L8.13828 17.2734C8.3375 17.7422 8.64219 17.9531 9.11094 17.9531C9.57969 17.9531 9.87266 17.7422 10.0836 17.25L15.6852 4.125H15.7555V17.3789C15.7555 17.8711 16.0367 18.1641 16.5055 18.1641C16.9742 18.1641 17.2555 17.8711 17.2555 17.3789V1.91016C17.2555 1.3125 16.857 0.925781 16.2594 0.925781C15.7203 0.925781 15.3805 1.18359 15.1344 1.75781L9.1461 15.8906H9.07578L3.06406 1.75781C2.81797 1.18359 2.50156 0.925781 1.9625 0.925781C1.36485 0.925781 0.966408 1.3125 0.966408 1.91016V17.3789C0.966408 17.8711 1.24766 18.1641 1.71641 18.1641ZM29.9188 18.1992C33.2469 18.1992 35.4734 15.7617 35.4734 11.9062C35.4734 8.05078 33.2469 5.61328 29.9188 5.61328C26.5906 5.61328 24.3641 8.05078 24.3641 11.9062C24.3641 15.7617 26.5906 18.1992 29.9188 18.1992ZM29.9188 16.8281C27.5164 16.8281 25.9461 14.9883 25.9461 11.9062C25.9461 8.82422 27.5164 6.98438 29.9188 6.98438C32.3328 6.98438 33.9031 8.83594 33.9031 11.9062C33.9031 14.9766 32.3328 16.8281 29.9188 16.8281ZM43.1094 18.1992C43.5664 18.1992 43.8828 17.8594 43.8828 17.3672V10.7812C43.8828 8.51953 45.2891 6.99609 47.4219 6.99609C49.4375 6.99609 50.6211 8.21484 50.6211 10.3477V17.3672C50.6211 17.8594 50.9375 18.1992 51.3945 18.1992C51.8516 18.1992 52.168 17.8594 52.168 17.3672V10.1016C52.168 7.33594 50.5156 5.61328 47.8672 5.61328C45.8867 5.61328 44.4688 6.57422 43.8359 8.0625H43.8008V6.39844C43.8008 5.92969 43.4961 5.61328 43.0625 5.61328C42.6406 5.61328 42.3359 5.92969 42.3359 6.39844V17.3672C42.3359 17.8594 42.6523 18.1992 43.1094 18.1992ZM64.1867 18.1992C66.2492 18.1992 67.7141 17.0273 68.3234 15.3633H68.3586V17.4375C68.3586 17.8945 68.7219 18.1992 69.1555 18.1992C69.6008 18.1992 69.9172 17.8828 69.9172 17.4375V1.72266C69.9172 1.23047 69.5891 0.890625 69.132 0.890625C68.675 0.890625 68.3586 1.23047 68.3586 1.72266V8.32031H68.3234C67.6789 6.73828 66.1203 5.61328 64.1516 5.61328C61.093 5.61328 58.9719 8.10938 58.9719 11.9062C58.9719 15.6914 61.1047 18.1992 64.1867 18.1992ZM64.4563 16.8281C62.1125 16.8281 60.5656 14.8828 60.5656 11.9062C60.5656 8.92969 62.1125 6.98438 64.4563 6.98438C66.7766 6.98438 68.3703 8.96484 68.3703 11.9062C68.3703 14.8594 66.7766 16.8281 64.4563 16.8281ZM81.7367 18.1992C83.6703 18.1992 85.1352 17.2383 85.7797 15.7383H85.8148V17.4141C85.8148 17.8594 86.1078 18.1992 86.5531 18.1992C86.9984 18.1992 87.2797 17.8594 87.2797 17.4141V6.44531C87.2797 5.95312 86.9633 5.61328 86.5062 5.61328C86.0492 5.61328 85.7328 5.95312 85.7328 6.44531V13.043C85.7328 15.3281 84.3031 16.8164 82.182 16.8164C80.143 16.8164 78.9945 15.6211 78.9945 13.4648V6.44531C78.9945 5.95312 78.6664 5.61328 78.2211 5.61328C77.7641 5.61328 77.4359 5.95312 77.4359 6.44531V13.7344C77.4359 16.4766 79.0883 18.1992 81.7367 18.1992Z" fill="#001E18"/>
</svg>
