<svg width="163" height="17" viewBox="0 0 163 17" fill="none" xmlns="http://www.w3.org/2000/svg">
<path d="M150.336 15.89V2.17748H152.692V9.07246L159.071 2.17748H161.964L156.389 8.07403L162.212 15.89H159.358L154.779 9.71927L152.691 11.913V15.89H150.336ZM3.29144 15.89H0.943726V0.942505H6.63334C10.0097 0.942505 12.112 2.90173 12.112 5.85837V5.90127C12.112 9.19073 9.53873 10.925 6.33885 10.925H3.29144V15.89ZM3.29144 3.11105V8.77839H6.42238C8.42962 8.77839 9.72148 7.62084 9.72148 5.96617V5.92324C9.72148 4.06971 8.40142 3.11105 6.42238 3.11105H3.29144ZM14.5046 15.89V2.17748H20.4814C22.168 2.17748 23.4891 2.68718 24.3518 3.54853C25.0609 4.29266 25.4629 5.31203 25.4629 6.5062C25.4629 8.79826 24.1408 10.1494 22.2641 10.6978L25.8849 15.889H23.1069L19.812 11.1092H16.8617V15.889H14.5046V15.89ZM16.8617 8.97514H20.3101C21.9957 8.97514 23.0683 8.07402 23.0683 6.68309C23.0683 5.17494 22.0333 4.37116 20.2903 4.37116H16.8617V8.97514ZM34.5592 16.1255C30.4403 16.1255 27.5673 12.9323 27.5673 9.07351C27.5673 5.17598 30.479 1.94305 34.5979 1.94305C38.7168 1.94305 41.5898 5.13623 41.5898 8.99504C41.5898 12.8926 38.6782 16.1255 34.5592 16.1255ZM34.5979 13.912C37.261 13.912 39.1189 11.7371 39.1189 9.07246C39.1189 6.36909 37.2223 4.15554 34.5592 4.15554C31.8962 4.15554 30.0382 6.32934 30.0382 8.99398C30.0393 11.6973 31.9358 13.912 34.5979 13.912ZM48.6757 15.9884L43.101 2.17748H45.7066L49.7483 12.7167L53.7711 2.17748H56.3193L50.7445 15.9884H48.6757ZM58.5615 15.89V2.17748H60.9175V15.89H58.5615ZM64.3075 15.89V2.17748H69.3068C73.5208 2.17748 76.4334 5.13517 76.4334 8.99398C76.4334 12.8926 73.5218 15.89 69.3068 15.89H64.3075ZM66.6636 13.6963H69.3068C72.1224 13.6963 73.9615 11.757 73.9615 9.07351C73.9615 6.35026 72.1224 4.37219 69.3068 4.37219H66.6636V13.6963ZM84.594 16.1056C81.108 16.1056 78.8856 14.0491 78.8856 10.072V2.17748H81.2416V9.97361C81.2416 12.52 82.5251 13.891 84.6326 13.891C86.7213 13.891 88.0038 12.5985 88.0038 10.0709V2.17643H90.3598V9.95371C90.3598 14.049 88.0988 16.1056 84.594 16.1056ZM98.0974 16.0857C96.0474 16.0857 94.1132 15.3604 92.5039 13.8921L93.9211 12.1683C95.2046 13.3039 96.4881 13.9507 98.1548 13.9507C99.6107 13.9507 100.531 13.2651 100.531 12.2269C100.531 11.2086 99.995 10.679 97.5042 10.0918C94.65 9.38644 93.0407 8.5251 93.0407 5.99756C93.0407 3.60713 94.956 1.98176 97.6191 1.98176C99.5731 1.98176 101.125 2.58879 102.485 3.70551L101.221 5.52658C100.014 4.60557 98.8075 4.11683 97.5815 4.11683C96.2019 4.11683 95.3978 4.84213 95.3978 5.74221C95.3978 6.83904 96.0108 7.30999 98.5778 7.93585C101.413 8.64126 102.888 9.67949 102.888 11.9517C102.887 14.5577 100.913 16.0857 98.0974 16.0857ZM112.461 15.8858H105.762V1.05972H112.251C113.914 1.05972 115.205 1.52755 116.017 2.35855C116.647 3.00221 116.972 3.78924 116.972 4.77095V4.81385C116.972 6.55539 116.092 7.44816 114.686 8.19543C116.489 8.82548 117.793 9.6837 117.793 11.8324V11.8753C117.793 14.4645 115.717 15.8858 112.461 15.8858ZM108.067 3.16337V7.40943H111.724C113.41 7.40943 114.624 6.7239 114.624 5.24296V5.20006C114.624 3.91903 113.609 3.16337 111.914 3.16337H108.067ZM108.067 9.40633V13.7811H112.482C114.275 13.7811 115.445 13.0516 115.445 11.5937V11.5508C115.445 10.1756 114.357 9.40633 112.293 9.40633H108.067ZM119.307 15.89L125.208 2.07911H127.391L133.292 15.89H130.802L129.443 12.5796H123.101L121.723 15.89H119.307ZM123.963 10.4446H128.58L126.261 4.95933L123.963 10.4446ZM135.395 15.89V2.17748H137.579L144.762 11.6586V2.17748H147.08V15.89H145.108L137.713 6.13468V15.89H135.395Z" fill="#2E434E"/>
</svg>
