<svg width="48" height="42" viewBox="0 0 48 42" fill="none" xmlns="http://www.w3.org/2000/svg">
<path fill-rule="evenodd" clip-rule="evenodd" d="M6.70376 13.8449L9.94648 8.21634H41.538L42.3484 9.62193L44.7807 13.8449H6.70376ZM11.1871 6.06244L14.433 0.428589H37.0505L40.2963 6.06244H11.1871ZM37.0515 37.2029H18.5738C18.2167 37.2029 17.9159 37.3882 17.7519 37.6645L15.5014 41.5714H9.0807L14.3766 32.3792C14.6168 31.9616 15.2622 31.6235 15.8168 31.6235L40.2618 31.6298L37.0515 37.2029ZM44.7598 23.8232L41.5025 29.4769H14.0309C13.68 29.4769 13.3866 29.6507 13.2195 29.9134L11.0002 33.7649H4.57956L9.87547 24.5736C10.1157 24.156 10.7611 23.818 11.3156 23.818L44.7598 23.8232ZM9.49324 21.6704C9.1486 21.6704 8.8478 21.8556 8.68384 22.1319L6.49074 25.9384H0.0700684L5.36492 16.7482C5.60512 16.3306 6.25053 15.9915 6.80508 15.9915L46.0204 15.9999L47.6433 18.8163L45.9995 21.6693H9.52559L9.49324 21.6704Z" fill="#FDB813"/>
</svg>
