<svg width="558" height="558" viewBox="0 0 558 558" fill="none" xmlns="http://www.w3.org/2000/svg">
<g clip-path="url(#clip0_103_2986)">
<path d="M408 186H24C10.7452 186 0 196.745 0 210V534C0 547.255 10.7452 558 24 558H408C421.255 558 432 547.255 432 534V210C432 196.745 421.255 186 408 186Z" fill="white"/>
<path d="M40.9482 243V232.091H45.2521C46.0795 232.091 46.7844 232.249 47.3668 232.565C47.9492 232.877 48.3931 233.312 48.6985 233.87C49.0075 234.424 49.1619 235.063 49.1619 235.788C49.1619 236.512 49.0057 237.151 48.6932 237.705C48.3807 238.259 47.9279 238.691 47.3349 239C46.7454 239.309 46.0316 239.463 45.1935 239.463H42.4503V237.615H44.8207C45.2646 237.615 45.6303 237.538 45.918 237.386C46.2092 237.229 46.4258 237.015 46.5678 236.741C46.7134 236.464 46.7862 236.146 46.7862 235.788C46.7862 235.425 46.7134 235.109 46.5678 234.839C46.4258 234.566 46.2092 234.355 45.918 234.206C45.6268 234.053 45.2575 233.977 44.81 233.977H43.2546V243H40.9482ZM52.7308 243.154C52.2088 243.154 51.7436 243.064 51.3352 242.883C50.9268 242.698 50.6037 242.426 50.3658 242.068C50.1314 241.706 50.0142 241.255 50.0142 240.715C50.0142 240.26 50.0977 239.879 50.2646 239.57C50.4315 239.261 50.6587 239.012 50.9464 238.824C51.234 238.636 51.5607 238.494 51.9265 238.398C52.2958 238.302 52.6829 238.234 53.0877 238.195C53.5636 238.146 53.9471 238.099 54.2383 238.057C54.5295 238.011 54.7408 237.943 54.8722 237.854C55.0036 237.766 55.0692 237.634 55.0692 237.46V237.428C55.0692 237.091 54.9627 236.83 54.7496 236.645C54.5401 236.461 54.2418 236.368 53.8548 236.368C53.4464 236.368 53.1214 236.459 52.88 236.64C52.6385 236.817 52.4787 237.041 52.4006 237.311L50.3018 237.141C50.4084 236.643 50.6179 236.214 50.9304 235.852C51.2429 235.486 51.646 235.205 52.1396 235.01C52.6367 234.811 53.212 234.712 53.8654 234.712C54.32 234.712 54.755 234.765 55.1705 234.871C55.5895 234.978 55.9606 235.143 56.2837 235.367C56.6104 235.591 56.8679 235.878 57.0561 236.23C57.2443 236.578 57.3384 236.995 57.3384 237.482V243H55.1864V241.865H55.1225C54.9911 242.121 54.8153 242.347 54.5952 242.542C54.375 242.734 54.1104 242.885 53.8015 242.995C53.4925 243.101 53.1357 243.154 52.7308 243.154ZM53.3807 241.588C53.7145 241.588 54.0092 241.523 54.2649 241.391C54.5206 241.256 54.7212 241.075 54.8668 240.848C55.0124 240.621 55.0852 240.363 55.0852 240.076V239.207C55.0142 239.254 54.9165 239.296 54.7923 239.335C54.6715 239.371 54.5348 239.404 54.3821 239.436C54.2294 239.465 54.0767 239.491 53.924 239.516C53.7713 239.538 53.6328 239.557 53.5085 239.575C53.2422 239.614 53.0096 239.676 52.8107 239.761C52.6119 239.847 52.4574 239.962 52.3473 240.108C52.2372 240.25 52.1822 240.427 52.1822 240.64C52.1822 240.949 52.294 241.185 52.5178 241.349C52.745 241.509 53.0327 241.588 53.3807 241.588ZM59.0989 243V234.818H61.3681V243H59.0989ZM60.2388 233.763C59.9015 233.763 59.612 233.652 59.3706 233.428C59.1326 233.201 59.0137 232.929 59.0137 232.613C59.0137 232.3 59.1326 232.032 59.3706 231.809C59.612 231.581 59.9015 231.468 60.2388 231.468C60.5762 231.468 60.8638 231.581 61.1017 231.809C61.3432 232.032 61.464 232.3 61.464 232.613C61.464 232.929 61.3432 233.201 61.1017 233.428C60.8638 233.652 60.5762 233.763 60.2388 233.763ZM63.1858 243V234.818H65.3857V236.246H65.471C65.6201 235.738 65.8705 235.354 66.222 235.095C66.5736 234.832 66.9784 234.701 67.4365 234.701C67.5502 234.701 67.6727 234.708 67.8041 234.722C67.9355 234.737 68.0509 234.756 68.1503 234.781V236.794C68.0438 236.762 67.8964 236.734 67.7082 236.709C67.52 236.684 67.3477 236.672 67.1915 236.672C66.8577 236.672 66.5594 236.745 66.2966 236.89C66.0374 237.032 65.8314 237.231 65.6787 237.487C65.5296 237.743 65.455 238.037 65.455 238.371V243H63.1858Z" fill="#6B747F"/>
<path d="M221.066 239.207H223.026L224.011 240.475L224.981 241.604L226.808 243.895H224.656L223.399 242.35L222.754 241.434L221.066 239.207ZM226.973 237.545C226.973 238.735 226.748 239.747 226.297 240.582C225.849 241.416 225.238 242.054 224.464 242.494C223.694 242.931 222.827 243.149 221.865 243.149C220.895 243.149 220.025 242.929 219.255 242.489C218.484 242.048 217.875 241.411 217.428 240.576C216.98 239.742 216.756 238.732 216.756 237.545C216.756 236.356 216.98 235.344 217.428 234.509C217.875 233.675 218.484 233.039 219.255 232.602C220.025 232.162 220.895 231.942 221.865 231.942C222.827 231.942 223.694 232.162 224.464 232.602C225.238 233.039 225.849 233.675 226.297 234.509C226.748 235.344 226.973 236.356 226.973 237.545ZM224.635 237.545C224.635 236.775 224.519 236.125 224.288 235.596C224.061 235.067 223.74 234.665 223.324 234.392C222.909 234.119 222.422 233.982 221.865 233.982C221.307 233.982 220.821 234.119 220.405 234.392C219.99 234.665 219.667 235.067 219.436 235.596C219.208 236.125 219.095 236.775 219.095 237.545C219.095 238.316 219.208 238.966 219.436 239.495C219.667 240.024 219.99 240.425 220.405 240.699C220.821 240.972 221.307 241.109 221.865 241.109C222.422 241.109 222.909 240.972 223.324 240.699C223.74 240.425 224.061 240.024 224.288 239.495C224.519 238.966 224.635 238.316 224.635 237.545ZM233.886 239.516V234.818H236.155V243H233.976V241.514H233.891C233.706 241.993 233.399 242.379 232.97 242.67C232.543 242.961 232.023 243.107 231.409 243.107C230.862 243.107 230.381 242.982 229.965 242.734C229.55 242.485 229.225 242.132 228.991 241.674C228.76 241.216 228.642 240.667 228.639 240.028V234.818H230.908V239.623C230.912 240.106 231.041 240.488 231.297 240.768C231.553 241.049 231.895 241.189 232.325 241.189C232.598 241.189 232.854 241.127 233.092 241.002C233.33 240.875 233.522 240.686 233.667 240.438C233.816 240.189 233.889 239.882 233.886 239.516ZM241.667 243.16C240.839 243.16 240.124 242.984 239.52 242.632C238.92 242.277 238.456 241.784 238.13 241.152C237.803 240.516 237.64 239.779 237.64 238.941C237.64 238.096 237.803 237.357 238.13 236.725C238.456 236.089 238.92 235.596 239.52 235.244C240.124 234.889 240.839 234.712 241.667 234.712C242.494 234.712 243.208 234.889 243.808 235.244C244.412 235.596 244.877 236.089 245.204 236.725C245.53 237.357 245.694 238.096 245.694 238.941C245.694 239.779 245.53 240.516 245.204 241.152C244.877 241.784 244.412 242.277 243.808 242.632C243.208 242.984 242.494 243.16 241.667 243.16ZM241.677 241.402C242.054 241.402 242.368 241.295 242.62 241.082C242.872 240.866 243.062 240.571 243.19 240.198C243.322 239.825 243.387 239.401 243.387 238.925C243.387 238.449 243.322 238.025 243.19 237.652C243.062 237.279 242.872 236.984 242.62 236.768C242.368 236.551 242.054 236.443 241.677 236.443C241.297 236.443 240.978 236.551 240.719 236.768C240.463 236.984 240.269 237.279 240.138 237.652C240.01 238.025 239.946 238.449 239.946 238.925C239.946 239.401 240.01 239.825 240.138 240.198C240.269 240.571 240.463 240.866 240.719 241.082C240.978 241.295 241.297 241.402 241.677 241.402ZM251.521 234.818V236.523H246.594V234.818H251.521ZM247.713 232.858H249.982V240.486C249.982 240.695 250.014 240.859 250.078 240.976C250.142 241.089 250.23 241.169 250.344 241.216C250.461 241.262 250.596 241.285 250.749 241.285C250.855 241.285 250.962 241.276 251.068 241.258C251.175 241.237 251.257 241.221 251.313 241.21L251.67 242.899C251.557 242.934 251.397 242.975 251.191 243.021C250.985 243.071 250.735 243.101 250.44 243.112C249.893 243.133 249.414 243.06 249.002 242.893C248.593 242.727 248.275 242.467 248.048 242.116C247.821 241.764 247.709 241.32 247.713 240.784V232.858ZM256.64 243.16C255.798 243.16 255.074 242.989 254.467 242.648C253.863 242.304 253.398 241.817 253.071 241.189C252.744 240.557 252.581 239.809 252.581 238.946C252.581 238.105 252.744 237.366 253.071 236.73C253.398 236.095 253.858 235.599 254.451 235.244C255.047 234.889 255.747 234.712 256.55 234.712C257.089 234.712 257.592 234.799 258.057 234.973C258.526 235.143 258.934 235.401 259.282 235.745C259.634 236.089 259.907 236.523 260.102 237.045C260.298 237.563 260.395 238.17 260.395 238.866V239.49H253.487V238.083H258.259C258.259 237.757 258.188 237.467 258.046 237.215C257.904 236.963 257.707 236.766 257.455 236.624C257.206 236.478 256.917 236.406 256.587 236.406C256.242 236.406 255.937 236.485 255.671 236.645C255.408 236.801 255.202 237.013 255.053 237.279C254.904 237.542 254.827 237.835 254.824 238.158V239.495C254.824 239.9 254.898 240.25 255.047 240.544C255.2 240.839 255.415 241.066 255.692 241.226C255.969 241.386 256.297 241.466 256.677 241.466C256.93 241.466 257.16 241.43 257.37 241.359C257.579 241.288 257.759 241.182 257.908 241.04C258.057 240.898 258.171 240.724 258.249 240.518L260.347 240.656C260.241 241.161 260.023 241.601 259.692 241.977C259.366 242.35 258.943 242.641 258.425 242.851C257.91 243.057 257.315 243.16 256.64 243.16Z" fill="#6B747F"/>
<path d="M350.922 235.228C350.879 234.799 350.696 234.465 350.373 234.227C350.05 233.989 349.611 233.87 349.057 233.87C348.681 233.87 348.363 233.923 348.104 234.03C347.845 234.133 347.646 234.277 347.507 234.461C347.372 234.646 347.305 234.855 347.305 235.09C347.298 235.285 347.339 235.456 347.427 235.601C347.52 235.747 347.646 235.873 347.806 235.979C347.965 236.082 348.15 236.173 348.36 236.251C348.569 236.326 348.793 236.39 349.031 236.443L350.011 236.677C350.487 236.784 350.924 236.926 351.321 237.103C351.719 237.281 352.063 237.499 352.355 237.759C352.646 238.018 352.871 238.323 353.031 238.675C353.195 239.026 353.278 239.429 353.282 239.884C353.278 240.551 353.108 241.13 352.77 241.62C352.436 242.107 351.953 242.485 351.321 242.755C350.693 243.021 349.935 243.154 349.047 243.154C348.166 243.154 347.399 243.02 346.746 242.75C346.096 242.48 345.588 242.08 345.222 241.551C344.86 241.018 344.67 240.36 344.652 239.575H346.884C346.909 239.941 347.014 240.246 347.198 240.491C347.387 240.733 347.637 240.915 347.949 241.04C348.266 241.161 348.622 241.221 349.02 241.221C349.411 241.221 349.75 241.164 350.038 241.05C350.329 240.937 350.554 240.779 350.714 240.576C350.874 240.374 350.954 240.141 350.954 239.879C350.954 239.634 350.881 239.428 350.735 239.261C350.593 239.094 350.384 238.952 350.107 238.835C349.833 238.717 349.498 238.611 349.1 238.515L347.912 238.217C346.992 237.993 346.266 237.643 345.734 237.167C345.201 236.691 344.936 236.05 344.94 235.244C344.936 234.584 345.112 234.007 345.467 233.513C345.826 233.02 346.318 232.634 346.943 232.357C347.568 232.08 348.278 231.942 349.073 231.942C349.883 231.942 350.59 232.08 351.193 232.357C351.801 232.634 352.273 233.02 352.61 233.513C352.948 234.007 353.122 234.578 353.132 235.228H350.922ZM359.142 234.818V236.523H354.215V234.818H359.142ZM355.334 232.858H357.603V240.486C357.603 240.695 357.635 240.859 357.699 240.976C357.763 241.089 357.851 241.169 357.965 241.216C358.082 241.262 358.217 241.285 358.37 241.285C358.476 241.285 358.583 241.276 358.689 241.258C358.796 241.237 358.878 241.221 358.934 241.21L359.291 242.899C359.178 242.934 359.018 242.975 358.812 243.021C358.606 243.071 358.356 243.101 358.061 243.112C357.514 243.133 357.035 243.06 356.623 242.893C356.214 242.727 355.896 242.467 355.669 242.116C355.442 241.764 355.33 241.32 355.334 240.784V232.858ZM362.953 243.154C362.431 243.154 361.966 243.064 361.558 242.883C361.15 242.698 360.826 242.426 360.588 242.068C360.354 241.706 360.237 241.255 360.237 240.715C360.237 240.26 360.32 239.879 360.487 239.57C360.654 239.261 360.881 239.012 361.169 238.824C361.457 238.636 361.783 238.494 362.149 238.398C362.518 238.302 362.906 238.234 363.31 238.195C363.786 238.146 364.17 238.099 364.461 238.057C364.752 238.011 364.963 237.943 365.095 237.854C365.226 237.766 365.292 237.634 365.292 237.46V237.428C365.292 237.091 365.185 236.83 364.972 236.645C364.763 236.461 364.464 236.368 364.077 236.368C363.669 236.368 363.344 236.459 363.103 236.64C362.861 236.817 362.701 237.041 362.623 237.311L360.525 237.141C360.631 236.643 360.841 236.214 361.153 235.852C361.466 235.486 361.869 235.205 362.362 235.01C362.859 234.811 363.435 234.712 364.088 234.712C364.543 234.712 364.978 234.765 365.393 234.871C365.812 234.978 366.183 235.143 366.506 235.367C366.833 235.591 367.091 235.878 367.279 236.23C367.467 236.578 367.561 236.995 367.561 237.482V243H365.409V241.865H365.345C365.214 242.121 365.038 242.347 364.818 242.542C364.598 242.734 364.333 242.885 364.024 242.995C363.715 243.101 363.358 243.154 362.953 243.154ZM363.603 241.588C363.937 241.588 364.232 241.523 364.488 241.391C364.743 241.256 364.944 241.075 365.089 240.848C365.235 240.621 365.308 240.363 365.308 240.076V239.207C365.237 239.254 365.139 239.296 365.015 239.335C364.894 239.371 364.757 239.404 364.605 239.436C364.452 239.465 364.299 239.491 364.147 239.516C363.994 239.538 363.855 239.557 363.731 239.575C363.465 239.614 363.232 239.676 363.033 239.761C362.835 239.847 362.68 239.962 362.57 240.108C362.46 240.25 362.405 240.427 362.405 240.64C362.405 240.949 362.517 241.185 362.74 241.349C362.968 241.509 363.255 241.588 363.603 241.588ZM373.673 234.818V236.523H368.746V234.818H373.673ZM369.865 232.858H372.134V240.486C372.134 240.695 372.166 240.859 372.23 240.976C372.294 241.089 372.383 241.169 372.496 241.216C372.613 241.262 372.748 241.285 372.901 241.285C373.008 241.285 373.114 241.276 373.221 241.258C373.327 241.237 373.409 241.221 373.466 241.21L373.823 242.899C373.709 242.934 373.549 242.975 373.343 243.021C373.137 243.071 372.887 243.101 372.592 243.112C372.045 243.133 371.566 243.06 371.154 242.893C370.746 242.727 370.428 242.467 370.2 242.116C369.973 241.764 369.861 241.32 369.865 240.784V232.858ZM380.398 239.516V234.818H382.668V243H380.489V241.514H380.404C380.219 241.993 379.912 242.379 379.482 242.67C379.056 242.961 378.536 243.107 377.922 243.107C377.375 243.107 376.893 242.982 376.478 242.734C376.063 242.485 375.738 242.132 375.503 241.674C375.272 241.216 375.155 240.667 375.152 240.028V234.818H377.421V239.623C377.424 240.106 377.554 240.488 377.81 240.768C378.065 241.049 378.408 241.189 378.838 241.189C379.111 241.189 379.367 241.127 379.605 241.002C379.843 240.875 380.034 240.686 380.18 240.438C380.329 240.189 380.402 239.882 380.398 239.516ZM391.29 237.151L389.213 237.279C389.177 237.102 389.101 236.942 388.984 236.8C388.867 236.654 388.712 236.539 388.52 236.453C388.332 236.365 388.107 236.32 387.844 236.32C387.492 236.32 387.196 236.395 386.954 236.544C386.713 236.69 386.592 236.885 386.592 237.13C386.592 237.325 386.67 237.49 386.826 237.625C386.983 237.76 387.251 237.869 387.631 237.95L389.112 238.249C389.907 238.412 390.5 238.675 390.891 239.037C391.281 239.399 391.477 239.875 391.477 240.464C391.477 241.001 391.319 241.471 391.003 241.876C390.69 242.281 390.26 242.597 389.714 242.824C389.17 243.048 388.543 243.16 387.833 243.16C386.75 243.16 385.887 242.934 385.244 242.483C384.605 242.029 384.231 241.411 384.12 240.63L386.352 240.512C386.42 240.843 386.583 241.095 386.842 241.269C387.102 241.439 387.434 241.525 387.839 241.525C388.236 241.525 388.556 241.448 388.797 241.295C389.042 241.139 389.167 240.939 389.17 240.694C389.167 240.488 389.08 240.319 388.909 240.188C388.739 240.053 388.476 239.95 388.121 239.879L386.704 239.596C385.905 239.436 385.31 239.159 384.919 238.765C384.532 238.371 384.339 237.869 384.339 237.258C384.339 236.732 384.481 236.279 384.765 235.9C385.053 235.52 385.456 235.227 385.974 235.021C386.496 234.815 387.107 234.712 387.807 234.712C388.84 234.712 389.653 234.93 390.246 235.367C390.843 235.804 391.191 236.398 391.29 237.151Z" fill="#6B747F"/>
<path d="M0.5 273.5H431.5" stroke="#E6E7E9" stroke-linecap="round"/>
<mask id="mask0_103_2986" style="mask-type:luminance" maskUnits="userSpaceOnUse" x="40" y="300" width="20" height="20">
<path d="M60 310C60 304.477 55.5228 300 50 300C44.4772 300 40 304.477 40 310C40 315.523 44.4772 320 50 320C55.5228 320 60 315.523 60 310Z" fill="white"/>
</mask>
<g mask="url(#mask0_103_2986)">
<path d="M60 310C60 304.477 55.5228 300 50 300C44.4772 300 40 304.477 40 310C40 315.523 44.4772 320 50 320C55.5228 320 60 315.523 60 310Z" fill="#1A47B8"/>
<path fill-rule="evenodd" clip-rule="evenodd" d="M38.9786 300H36V303.333L61.0052 320H64V316.667L38.9786 300Z" fill="white"/>
<path d="M36.9935 300L64 318.047V320H63.0298L36 301.934V300H36.9935Z" fill="#F93939"/>
<path fill-rule="evenodd" clip-rule="evenodd" d="M61.3333 300H64V303.333C64 303.333 46.6797 314.437 38.6667 320H36V316.667L61.3333 300Z" fill="white"/>
<path d="M64 300H63.0957L36 318.063V320H36.9935L64 301.949V300Z" fill="#F93939"/>
<path fill-rule="evenodd" clip-rule="evenodd" d="M46.1828 300H53.8405V306.169H64V313.827H53.8405V320H46.1828V313.827H36V306.169H46.1828V300Z" fill="white"/>
<path fill-rule="evenodd" clip-rule="evenodd" d="M47.7895 300H52.2105V307.692H64V312.308H52.2105V320H47.7895V312.308H36V307.692H47.7895V300Z" fill="#F93939"/>
</g>
<mask id="mask1_103_2986" style="mask-type:luminance" maskUnits="userSpaceOnUse" x="56" y="300" width="20" height="20">
<path d="M76 310C76 304.477 71.5228 300 66 300C60.4772 300 56 304.477 56 310C56 315.523 60.4772 320 66 320C71.5228 320 76 315.523 76 310Z" fill="white"/>
</mask>
<g mask="url(#mask1_103_2986)">
<path d="M76 310C76 304.477 71.5228 300 66 300C60.4772 300 56 304.477 56 310C56 315.523 60.4772 320 66 320C71.5228 320 76 315.523 76 310Z" fill="white"/>
<path fill-rule="evenodd" clip-rule="evenodd" d="M56 300H68V309.333H56V300Z" fill="#1A47B8"/>
<path fill-rule="evenodd" clip-rule="evenodd" d="M68 300V301.333H84V300H68ZM68 302.667V304H84V302.667H68ZM68 305.333V306.667H84V305.333H68ZM68 308V309.333H84V308H68ZM56 310.667V312H84V310.667H56ZM56 313.333V314.667H84V313.333H56ZM56 316V317.333H84V316H56ZM56 318.667V320H84V318.667H56Z" fill="#F93939"/>
<path fill-rule="evenodd" clip-rule="evenodd" d="M57.3335 301.333V302.667H58.6668V301.333H57.3335ZM60.0002 301.333V302.667H61.3335V301.333H60.0002ZM62.6668 301.333V302.667H64.0002V301.333H62.6668ZM65.3335 301.333V302.667H66.6668V301.333H65.3335ZM64.0002 302.667V304H65.3335V302.667H64.0002ZM61.3335 302.667V304H62.6668V302.667H61.3335ZM58.6668 302.667V304H60.0002V302.667H58.6668ZM57.3335 304V305.333H58.6668V304H57.3335ZM60.0002 304V305.333H61.3335V304H60.0002ZM62.6668 304V305.333H64.0002V304H62.6668ZM65.3335 304V305.333H66.6668V304H65.3335ZM57.3335 306.667V308H58.6668V306.667H57.3335ZM60.0002 306.667V308H61.3335V306.667H60.0002ZM62.6668 306.667V308H64.0002V306.667H62.6668ZM65.3335 306.667V308H66.6668V306.667H65.3335ZM64.0002 305.333V306.667H65.3335V305.333H64.0002ZM61.3335 305.333V306.667H62.6668V305.333H61.3335ZM58.6668 305.333V306.667H60.0002V305.333H58.6668Z" fill="white"/>
</g>
<path d="M160 306H88C85.7909 306 84 307.791 84 310C84 312.209 85.7909 314 88 314H160C162.209 314 164 312.209 164 310C164 307.791 162.209 306 160 306Z" fill="#E6E7E9"/>
<path d="M220.964 304.091V315H219.643V305.476H219.58L216.916 307.244V305.902L219.643 304.091H220.964ZM224.395 315.085C224.132 315.085 223.907 314.991 223.718 314.803C223.53 314.615 223.436 314.389 223.436 314.126C223.436 313.864 223.53 313.638 223.718 313.45C223.907 313.262 224.132 313.168 224.395 313.168C224.658 313.168 224.883 313.262 225.071 313.45C225.26 313.638 225.354 313.864 225.354 314.126C225.354 314.3 225.309 314.46 225.221 314.606C225.135 314.751 225.02 314.869 224.874 314.957C224.732 315.043 224.572 315.085 224.395 315.085ZM227.588 315V314.041L231.189 310.099C231.612 309.638 231.96 309.237 232.233 308.896C232.507 308.551 232.709 308.228 232.84 307.926C232.975 307.621 233.043 307.301 233.043 306.967C233.043 306.584 232.95 306.252 232.766 305.971C232.585 305.691 232.336 305.474 232.02 305.321C231.704 305.169 231.349 305.092 230.955 305.092C230.536 305.092 230.17 305.179 229.857 305.353C229.548 305.524 229.309 305.763 229.138 306.072C228.971 306.381 228.888 306.744 228.888 307.159H227.631C227.631 306.52 227.778 305.959 228.073 305.476C228.368 304.993 228.769 304.616 229.277 304.347C229.788 304.077 230.362 303.942 230.997 303.942C231.637 303.942 232.203 304.077 232.697 304.347C233.19 304.616 233.577 304.98 233.858 305.439C234.138 305.897 234.279 306.406 234.279 306.967C234.279 307.369 234.206 307.761 234.06 308.145C233.918 308.525 233.67 308.949 233.314 309.418C232.963 309.883 232.475 310.451 231.85 311.122L229.399 313.743V313.828H234.47V315H227.588ZM236.67 315V314.041L240.271 310.099C240.694 309.638 241.042 309.237 241.315 308.896C241.589 308.551 241.791 308.228 241.922 307.926C242.057 307.621 242.125 307.301 242.125 306.967C242.125 306.584 242.032 306.252 241.848 305.971C241.667 305.691 241.418 305.474 241.102 305.321C240.786 305.169 240.431 305.092 240.037 305.092C239.618 305.092 239.252 305.179 238.939 305.353C238.631 305.524 238.391 305.763 238.22 306.072C238.053 306.381 237.97 306.744 237.97 307.159H236.713C236.713 306.52 236.86 305.959 237.155 305.476C237.45 304.993 237.851 304.616 238.359 304.347C238.87 304.077 239.444 303.942 240.079 303.942C240.719 303.942 241.285 304.077 241.779 304.347C242.272 304.616 242.659 304.98 242.94 305.439C243.22 305.897 243.361 306.406 243.361 306.967C243.361 307.369 243.288 307.761 243.142 308.145C243 308.525 242.752 308.949 242.396 309.418C242.045 309.883 241.557 310.451 240.932 311.122L238.481 313.743V313.828H243.552V315H236.67ZM245.262 312.763V311.676L250.056 304.091H250.845V305.774H250.312L246.69 311.506V311.591H253.146V312.763H245.262ZM250.397 315V312.433V311.926V304.091H251.654V315H250.397ZM254.886 312.763V311.676L259.68 304.091H260.469V305.774H259.936L256.314 311.506V311.591H262.77V312.763H254.886ZM260.021 315V312.433V311.926V304.091H261.278V315H260.021ZM264.51 312.763V311.676L269.304 304.091H270.093V305.774H269.56L265.938 311.506V311.591H272.394V312.763H264.51ZM269.645 315V312.433V311.926V304.091H270.902V315H269.645Z" fill="#6B747F"/>
<path d="M382 314.458C382.75 314.458 383.358 313.85 383.358 313.1C383.358 312.35 382.75 311.742 382 311.742C381.25 311.742 380.642 312.35 380.642 313.1C380.642 313.85 381.25 314.458 382 314.458Z" fill="#969CA4"/>
<path d="M387.233 307.942V306.9C387.233 304.65 386.692 301.667 382 301.667C377.308 301.667 376.767 304.65 376.767 306.9V307.942C374.433 308.233 373.667 309.417 373.667 312.325V313.875C373.667 317.292 374.708 318.333 378.125 318.333H385.875C389.292 318.333 390.333 317.292 390.333 313.875V312.325C390.333 309.417 389.567 308.233 387.233 307.942ZM382 315.617C380.608 315.617 379.483 314.483 379.483 313.1C379.483 311.708 380.617 310.583 382 310.583C383.383 310.583 384.517 311.717 384.517 313.1C384.517 314.492 383.392 315.617 382 315.617ZM378.125 307.867C378.058 307.867 378 307.867 377.933 307.867V306.9C377.933 304.458 378.625 302.833 382 302.833C385.375 302.833 386.067 304.458 386.067 306.9V307.875C386 307.875 385.942 307.875 385.875 307.875H378.125V307.867Z" fill="#969CA4"/>
<path d="M0.5 345.5H431.5" stroke="#E6E7E9" stroke-linecap="round"/>
<path d="M432 346H0V418H432V346Z" fill="#06B3A8" fill-opacity="0.2"/>
<mask id="mask2_103_2986" style="mask-type:luminance" maskUnits="userSpaceOnUse" x="40" y="372" width="20" height="20">
<path d="M60 382C60 376.477 55.5228 372 50 372C44.4772 372 40 376.477 40 382C40 387.523 44.4772 392 50 392C55.5228 392 60 387.523 60 382Z" fill="white"/>
</mask>
<g mask="url(#mask2_103_2986)">
<path d="M60 382C60 376.477 55.5228 372 50 372C44.4772 372 40 376.477 40 382C40 387.523 44.4772 392 50 392C55.5228 392 60 387.523 60 382Z" fill="#EAEBED"/>
<path fill-rule="evenodd" clip-rule="evenodd" d="M49.9334 392H34.9346V372.001H64.9312V392H49.9334Z" fill="#003399"/>
<path fill-rule="evenodd" clip-rule="evenodd" d="M49.9366 374.223L50.1852 374.987L50.9907 374.985L50.3378 375.457L50.5885 376.226L49.9356 375.751L49.2816 376.226L49.5323 375.457L48.8794 374.984H49.687L49.9366 374.223Z" fill="#FFCC00"/>
<path fill-rule="evenodd" clip-rule="evenodd" d="M53.2672 375.117L53.5158 375.883L54.3234 375.885L53.6683 376.361L53.9191 377.127L53.2661 376.652L52.6122 377.127L52.8629 376.361L52.21 375.885H53.0154L53.2672 375.117Z" fill="#FFCC00"/>
<path fill-rule="evenodd" clip-rule="evenodd" d="M55.7087 377.558L55.9562 378.324H56.7606L56.1055 378.8L56.3552 379.566L55.7023 379.092L55.0494 379.566L55.3001 378.8L54.645 378.324H55.4505L55.7087 377.558Z" fill="#FFCC00"/>
<path fill-rule="evenodd" clip-rule="evenodd" d="M56.5993 380.891L56.8468 381.655H57.6512L56.9962 382.13L57.2458 382.897L56.5929 382.423L55.94 382.897L56.1907 382.13L55.5356 381.655H56.339L56.5993 380.891Z" fill="#FFCC00"/>
<path fill-rule="evenodd" clip-rule="evenodd" d="M55.7122 384.223L55.9608 384.985L56.7663 384.984L56.1134 385.457L56.363 386.226L55.7101 385.751L55.0572 386.226L55.3079 385.462L54.6528 384.982L55.4583 384.98L55.7122 384.223Z" fill="#FFCC00"/>
<path fill-rule="evenodd" clip-rule="evenodd" d="M53.2669 386.662L53.5155 387.423L54.3231 387.422L53.668 387.896L53.9177 388.664L53.2648 388.189L52.6119 388.664L52.8626 387.898L52.2075 387.422L53.013 387.42L53.2669 386.662Z" fill="#FFCC00"/>
<path fill-rule="evenodd" clip-rule="evenodd" d="M49.9366 387.556L50.1852 388.32L50.9928 388.317L50.3378 388.794L50.5885 389.561L49.9356 389.086L49.2816 389.56L49.5323 388.794L48.8794 388.317H49.6849L49.9366 387.556Z" fill="#FFCC00"/>
<path fill-rule="evenodd" clip-rule="evenodd" d="M46.6028 386.662L46.8493 387.423L47.659 387.422L47.004 387.896L47.2536 388.664L46.6007 388.189L45.9457 388.664L46.1964 387.898L45.5435 387.422L46.3489 387.42L46.6028 386.662Z" fill="#FFCC00"/>
<path fill-rule="evenodd" clip-rule="evenodd" d="M44.1653 384.223L44.4139 384.985L45.2226 384.984L44.5686 385.457L44.8183 386.226L44.1632 385.751L43.5082 386.226L43.7589 385.46L43.106 384.984L43.9114 384.982L44.1653 384.223Z" fill="#FFCC00"/>
<path fill-rule="evenodd" clip-rule="evenodd" d="M43.2736 380.891L43.5201 381.655H44.3234L43.6683 382.13L43.9191 382.897L43.2661 382.423L42.6122 382.897L42.8629 382.13L42.21 381.655H43.0154L43.2736 380.891Z" fill="#FFCC00"/>
<path fill-rule="evenodd" clip-rule="evenodd" d="M44.1653 377.558L44.4139 378.324H45.2215L44.5686 378.8L44.8183 379.566L44.1632 379.092L43.5082 379.566L43.7589 378.8L43.106 378.324H43.9114L44.1653 377.558Z" fill="#FFCC00"/>
<path fill-rule="evenodd" clip-rule="evenodd" d="M46.6028 375.117L46.8514 375.883L47.659 375.885L47.0061 376.361L47.2558 377.125L46.6007 376.651L45.9457 377.125L46.1964 376.359L45.5435 375.883H46.3489L46.6028 375.117Z" fill="#FFCC00"/>
</g>
<mask id="mask3_103_2986" style="mask-type:luminance" maskUnits="userSpaceOnUse" x="56" y="372" width="20" height="20">
<path d="M76 382C76 376.477 71.5228 372 66 372C60.4772 372 56 376.477 56 382C56 387.523 60.4772 392 66 392C71.5228 392 76 387.523 76 382Z" fill="white"/>
</mask>
<g mask="url(#mask3_103_2986)">
<path d="M76 382C76 376.477 71.5228 372 66 372C60.4772 372 56 376.477 56 382C56 387.523 60.4772 392 66 392C71.5228 392 76 387.523 76 382Z" fill="white"/>
<path fill-rule="evenodd" clip-rule="evenodd" d="M56 372H68V381.333H56V372Z" fill="#1A47B8"/>
<path fill-rule="evenodd" clip-rule="evenodd" d="M68 372V373.333H84V372H68ZM68 374.667V376H84V374.667H68ZM68 377.333V378.667H84V377.333H68ZM68 380V381.333H84V380H68ZM56 382.667V384H84V382.667H56ZM56 385.333V386.667H84V385.333H56ZM56 388V389.333H84V388H56ZM56 390.667V392H84V390.667H56Z" fill="#F93939"/>
<path fill-rule="evenodd" clip-rule="evenodd" d="M57.3335 373.333V374.667H58.6668V373.333H57.3335ZM60.0002 373.333V374.667H61.3335V373.333H60.0002ZM62.6668 373.333V374.667H64.0002V373.333H62.6668ZM65.3335 373.333V374.667H66.6668V373.333H65.3335ZM64.0002 374.667V376H65.3335V374.667H64.0002ZM61.3335 374.667V376H62.6668V374.667H61.3335ZM58.6668 374.667V376H60.0002V374.667H58.6668ZM57.3335 376V377.333H58.6668V376H57.3335ZM60.0002 376V377.333H61.3335V376H60.0002ZM62.6668 376V377.333H64.0002V376H62.6668ZM65.3335 376V377.333H66.6668V376H65.3335ZM57.3335 378.667V380H58.6668V378.667H57.3335ZM60.0002 378.667V380H61.3335V378.667H60.0002ZM62.6668 378.667V380H64.0002V378.667H62.6668ZM65.3335 378.667V380H66.6668V378.667H65.3335ZM64.0002 377.333V378.667H65.3335V377.333H64.0002ZM61.3335 377.333V378.667H62.6668V377.333H61.3335ZM58.6668 377.333V378.667H60.0002V377.333H58.6668Z" fill="white"/>
</g>
<path d="M85.321 387V376.091H91.9048V377.263H86.642V380.949H91.5639V382.121H86.642V385.828H91.9901V387H85.321ZM101.445 376.091H102.766V383.314C102.766 384.06 102.59 384.725 102.239 385.311C101.891 385.894 101.399 386.354 100.763 386.691C100.127 387.025 99.3817 387.192 98.5259 387.192C97.6701 387.192 96.9244 387.025 96.2887 386.691C95.6531 386.354 95.1594 385.894 94.8079 385.311C94.4599 384.725 94.2859 384.06 94.2859 383.314V376.091H95.6069V383.207C95.6069 383.74 95.7241 384.214 95.9585 384.63C96.1928 385.042 96.5266 385.366 96.9599 385.604C97.3967 385.839 97.9187 385.956 98.5259 385.956C99.1332 385.956 99.6552 385.839 100.092 385.604C100.529 385.366 100.863 385.042 101.093 384.63C101.328 384.214 101.445 383.74 101.445 383.207V376.091ZM105.404 387V376.091H109.09C109.942 376.091 110.642 376.237 111.189 376.528C111.736 376.815 112.141 377.211 112.403 377.716C112.666 378.22 112.797 378.793 112.797 379.436C112.797 380.079 112.666 380.649 112.403 381.146C112.141 381.643 111.737 382.034 111.194 382.318C110.651 382.598 109.957 382.739 109.111 382.739H106.128V381.545H109.069C109.651 381.545 110.12 381.46 110.475 381.29C110.834 381.119 111.093 380.878 111.253 380.565C111.416 380.249 111.498 379.873 111.498 379.436C111.498 378.999 111.416 378.618 111.253 378.291C111.089 377.964 110.828 377.712 110.47 377.534C110.111 377.353 109.637 377.263 109.047 377.263H106.725V387H105.404ZM110.539 382.099L113.224 387H111.69L109.047 382.099H110.539ZM122.904 375.58L119.388 388.641H118.237L121.753 375.58H122.904ZM135.942 376.091H137.263V383.314C137.263 384.06 137.087 384.725 136.736 385.311C136.388 385.894 135.896 386.354 135.26 386.691C134.625 387.025 133.879 387.192 133.023 387.192C132.167 387.192 131.421 387.025 130.786 386.691C130.15 386.354 129.657 385.894 129.305 385.311C128.957 384.725 128.783 384.06 128.783 383.314V376.091H130.104V383.207C130.104 383.74 130.221 384.214 130.456 384.63C130.69 385.042 131.024 385.366 131.457 385.604C131.894 385.839 132.416 385.956 133.023 385.956C133.63 385.956 134.152 385.839 134.589 385.604C135.026 385.366 135.36 385.042 135.59 384.63C135.825 384.214 135.942 383.74 135.942 383.207V376.091ZM145.867 378.818C145.803 378.278 145.544 377.859 145.089 377.561C144.635 377.263 144.077 377.114 143.417 377.114C142.934 377.114 142.511 377.192 142.149 377.348C141.79 377.504 141.51 377.719 141.307 377.993C141.108 378.266 141.009 378.577 141.009 378.925C141.009 379.216 141.078 379.466 141.217 379.676C141.359 379.882 141.54 380.054 141.76 380.192C141.98 380.327 142.211 380.439 142.453 380.528C142.694 380.613 142.916 380.683 143.118 380.736L144.226 381.034C144.51 381.109 144.827 381.212 145.175 381.343C145.526 381.474 145.862 381.654 146.181 381.881C146.504 382.105 146.771 382.392 146.98 382.744C147.19 383.096 147.295 383.527 147.295 384.038C147.295 384.628 147.14 385.161 146.831 385.636C146.526 386.112 146.078 386.49 145.489 386.771C144.903 387.051 144.191 387.192 143.353 387.192C142.572 387.192 141.895 387.066 141.323 386.814C140.755 386.561 140.308 386.21 139.981 385.759C139.658 385.308 139.475 384.784 139.432 384.188H140.796C140.831 384.599 140.97 384.94 141.211 385.21C141.456 385.477 141.765 385.675 142.138 385.807C142.515 385.935 142.92 385.999 143.353 385.999C143.857 385.999 144.31 385.917 144.711 385.754C145.112 385.587 145.43 385.356 145.665 385.061C145.899 384.763 146.016 384.415 146.016 384.017C146.016 383.655 145.915 383.36 145.713 383.133C145.51 382.906 145.244 382.721 144.914 382.579C144.583 382.437 144.226 382.312 143.843 382.206L142.501 381.822C141.648 381.577 140.974 381.228 140.476 380.773C139.979 380.319 139.731 379.724 139.731 378.989C139.731 378.378 139.896 377.845 140.226 377.391C140.56 376.933 141.007 376.577 141.568 376.325C142.133 376.07 142.763 375.942 143.459 375.942C144.162 375.942 144.787 376.068 145.334 376.32C145.881 376.569 146.314 376.909 146.634 377.343C146.957 377.776 147.128 378.268 147.145 378.818H145.867ZM152.833 387H149.467V376.091H152.982C154.04 376.091 154.946 376.309 155.699 376.746C156.452 377.179 157.029 377.803 157.43 378.616C157.831 379.425 158.032 380.395 158.032 381.524C158.032 382.661 157.829 383.639 157.425 384.459C157.02 385.276 156.43 385.904 155.656 386.345C154.882 386.782 153.941 387 152.833 387ZM150.788 385.828H152.748C153.65 385.828 154.397 385.654 154.99 385.306C155.583 384.958 156.025 384.463 156.317 383.82C156.608 383.177 156.753 382.412 156.753 381.524C156.753 380.643 156.61 379.885 156.322 379.25C156.034 378.61 155.605 378.12 155.033 377.779C154.461 377.435 153.749 377.263 152.897 377.263H150.788V385.828Z" fill="#2C3948"/>
<path d="M382 386.458C382.75 386.458 383.358 385.85 383.358 385.1C383.358 384.35 382.75 383.742 382 383.742C381.25 383.742 380.642 384.35 380.642 385.1C380.642 385.85 381.25 386.458 382 386.458Z" fill="#359EB4"/>
<path d="M382 386.458C382.75 386.458 383.358 385.85 383.358 385.1C383.358 384.35 382.75 383.742 382 383.742C381.25 383.742 380.642 384.35 380.642 385.1C380.642 385.85 381.25 386.458 382 386.458Z" fill="#06B3A8"/>
<path d="M387.233 379.942V378.9C387.233 376.65 386.692 373.667 382 373.667C377.308 373.667 376.767 376.65 376.767 378.9V379.942C374.433 380.233 373.667 381.417 373.667 384.325V385.875C373.667 389.292 374.708 390.333 378.125 390.333H385.875C389.292 390.333 390.333 389.292 390.333 385.875V384.325C390.333 381.417 389.567 380.233 387.233 379.942ZM382 387.617C380.608 387.617 379.483 386.483 379.483 385.1C379.483 383.708 380.617 382.583 382 382.583C383.383 382.583 384.517 383.717 384.517 385.1C384.517 386.492 383.392 387.617 382 387.617ZM378.125 379.867C378.058 379.867 378 379.867 377.933 379.867V378.9C377.933 376.458 378.625 374.833 382 374.833C385.375 374.833 386.067 376.458 386.067 378.9V379.875C386 379.875 385.942 379.875 385.875 379.875H378.125V379.867Z" fill="#06B3A8"/>
<path d="M0.5 417.5H431.5" stroke="#E6E7E9" stroke-linecap="round"/>
<mask id="mask4_103_2986" style="mask-type:luminance" maskUnits="userSpaceOnUse" x="40" y="442" width="20" height="20">
<path d="M60 452C60 446.477 55.5228 442 50 442C44.4772 442 40 446.477 40 452C40 457.523 44.4772 462 50 462C55.5228 462 60 457.523 60 452Z" fill="white"/>
</mask>
<g mask="url(#mask4_103_2986)">
<path d="M60 452C60 446.477 55.5228 442 50 442C44.4772 442 40 446.477 40 452C40 457.523 44.4772 462 50 462C55.5228 462 60 457.523 60 452Z" fill="white"/>
<path fill-rule="evenodd" clip-rule="evenodd" d="M40 442H52V451.333H40V442Z" fill="#1A47B8"/>
<path fill-rule="evenodd" clip-rule="evenodd" d="M52 442V443.333H68V442H52ZM52 444.667V446H68V444.667H52ZM52 447.333V448.667H68V447.333H52ZM52 450V451.333H68V450H52ZM40 452.667V454H68V452.667H40ZM40 455.333V456.667H68V455.333H40ZM40 458V459.333H68V458H40ZM40 460.667V462H68V460.667H40Z" fill="#F93939"/>
<path fill-rule="evenodd" clip-rule="evenodd" d="M41.3335 443.333V444.667H42.6668V443.333H41.3335ZM44.0002 443.333V444.667H45.3335V443.333H44.0002ZM46.6668 443.333V444.667H48.0002V443.333H46.6668ZM49.3335 443.333V444.667H50.6668V443.333H49.3335ZM48.0002 444.667V446H49.3335V444.667H48.0002ZM45.3335 444.667V446H46.6668V444.667H45.3335ZM42.6668 444.667V446H44.0002V444.667H42.6668ZM41.3335 446V447.333H42.6668V446H41.3335ZM44.0002 446V447.333H45.3335V446H44.0002ZM46.6668 446V447.333H48.0002V446H46.6668ZM49.3335 446V447.333H50.6668V446H49.3335ZM41.3335 448.667V450H42.6668V448.667H41.3335ZM44.0002 448.667V450H45.3335V448.667H44.0002ZM46.6668 448.667V450H48.0002V448.667H46.6668ZM49.3335 448.667V450H50.6668V448.667H49.3335ZM48.0002 447.333V448.667H49.3335V447.333H48.0002ZM45.3335 447.333V448.667H46.6668V447.333H45.3335ZM42.6668 447.333V448.667H44.0002V447.333H42.6668Z" fill="white"/>
</g>
<path d="M75.75 452C75.75 446.615 71.3848 442.25 66 442.25C60.6152 442.25 56.25 446.615 56.25 452C56.25 457.385 60.6152 461.75 66 461.75C71.3848 461.75 75.75 457.385 75.75 452Z" fill="white"/>
<path d="M66.0002 456.667C68.5775 456.667 70.6668 454.577 70.6668 452C70.6668 449.423 68.5775 447.333 66.0002 447.333C63.4228 447.333 61.3335 449.423 61.3335 452C61.3335 454.577 63.4228 456.667 66.0002 456.667Z" fill="#F93939"/>
<path d="M75.75 452C75.75 446.615 71.3848 442.25 66 442.25C60.6152 442.25 56.25 446.615 56.25 452C56.25 457.385 60.6152 461.75 66 461.75C71.3848 461.75 75.75 457.385 75.75 452Z" stroke="#CACED1" stroke-width="0.5"/>
<path d="M160 448H88C85.7909 448 84 449.791 84 452C84 454.209 85.7909 456 88 456H160C162.209 456 164 454.209 164 452C164 449.791 162.209 448 160 448Z" fill="#E6E7E9"/>
<path d="M268 448H220C217.791 448 216 449.791 216 452C216 454.209 217.791 456 220 456H268C270.209 456 272 454.209 272 452C272 449.791 270.209 448 268 448Z" fill="#E6E7E9"/>
<path d="M382 456.458C382.75 456.458 383.358 455.85 383.358 455.1C383.358 454.35 382.75 453.742 382 453.742C381.25 453.742 380.642 454.35 380.642 455.1C380.642 455.85 381.25 456.458 382 456.458Z" fill="#969CA4"/>
<path d="M382 456.458C382.75 456.458 383.358 455.85 383.358 455.1C383.358 454.35 382.75 453.742 382 453.742C381.25 453.742 380.642 454.35 380.642 455.1C380.642 455.85 381.25 456.458 382 456.458Z" fill="#B3B8BD"/>
<path d="M387.233 449.942V448.9C387.233 446.65 386.692 443.667 382 443.667C377.308 443.667 376.767 446.65 376.767 448.9V449.942C374.433 450.233 373.667 451.417 373.667 454.325V455.875C373.667 459.292 374.708 460.333 378.125 460.333H385.875C389.292 460.333 390.333 459.292 390.333 455.875V454.325C390.333 451.417 389.567 450.233 387.233 449.942ZM382 457.617C380.608 457.617 379.483 456.483 379.483 455.1C379.483 453.708 380.617 452.583 382 452.583C383.383 452.583 384.517 453.717 384.517 455.1C384.517 456.492 383.392 457.617 382 457.617ZM378.125 449.867C378.058 449.867 378 449.867 377.933 449.867V448.9C377.933 446.458 378.625 444.833 382 444.833C385.375 444.833 386.067 446.458 386.067 448.9V449.875C386 449.875 385.942 449.875 385.875 449.875H378.125V449.867Z" fill="#B3B8BD"/>
<path d="M0.5 485.5H431.5" stroke="#E6E7E9" stroke-linecap="round"/>
<mask id="mask5_103_2986" style="mask-type:luminance" maskUnits="userSpaceOnUse" x="40" y="512" width="20" height="20">
<path d="M60 522C60 516.477 55.5228 512 50 512C44.4772 512 40 516.477 40 522C40 527.523 44.4772 532 50 532C55.5228 532 60 527.523 60 522Z" fill="white"/>
</mask>
<g mask="url(#mask5_103_2986)">
<path d="M60 522C60 516.477 55.5228 512 50 512C44.4772 512 40 516.477 40 522C40 527.523 44.4772 532 50 532C55.5228 532 60 527.523 60 522Z" fill="white"/>
<path fill-rule="evenodd" clip-rule="evenodd" d="M40 512H52V521.333H40V512Z" fill="#1A47B8"/>
<path fill-rule="evenodd" clip-rule="evenodd" d="M52 512V513.333H68V512H52ZM52 514.667V516H68V514.667H52ZM52 517.333V518.667H68V517.333H52ZM52 520V521.333H68V520H52ZM40 522.667V524H68V522.667H40ZM40 525.333V526.667H68V525.333H40ZM40 528V529.333H68V528H40ZM40 530.667V532H68V530.667H40Z" fill="#F93939"/>
<path fill-rule="evenodd" clip-rule="evenodd" d="M41.3335 513.333V514.667H42.6668V513.333H41.3335ZM44.0002 513.333V514.667H45.3335V513.333H44.0002ZM46.6668 513.333V514.667H48.0002V513.333H46.6668ZM49.3335 513.333V514.667H50.6668V513.333H49.3335ZM48.0002 514.667V516H49.3335V514.667H48.0002ZM45.3335 514.667V516H46.6668V514.667H45.3335ZM42.6668 514.667V516H44.0002V514.667H42.6668ZM41.3335 516V517.333H42.6668V516H41.3335ZM44.0002 516V517.333H45.3335V516H44.0002ZM46.6668 516V517.333H48.0002V516H46.6668ZM49.3335 516V517.333H50.6668V516H49.3335ZM41.3335 518.667V520H42.6668V518.667H41.3335ZM44.0002 518.667V520H45.3335V518.667H44.0002ZM46.6668 518.667V520H48.0002V518.667H46.6668ZM49.3335 518.667V520H50.6668V518.667H49.3335ZM48.0002 517.333V518.667H49.3335V517.333H48.0002ZM45.3335 517.333V518.667H46.6668V517.333H45.3335ZM42.6668 517.333V518.667H44.0002V517.333H42.6668Z" fill="white"/>
</g>
<path d="M76 522C76 516.477 71.5228 512 66 512C60.4772 512 56 516.477 56 522C56 527.523 60.4772 532 66 532C71.5228 532 76 527.523 76 522Z" fill="#F93939"/>
<path fill-rule="evenodd" clip-rule="evenodd" d="M64 520H60V524H64V528H68V524H72V520H68V516H64V520Z" fill="white"/>
<path d="M160 518H88C85.7909 518 84 519.791 84 522C84 524.209 85.7909 526 88 526H160C162.209 526 164 524.209 164 522C164 519.791 162.209 518 160 518Z" fill="#E6E7E9"/>
<path d="M269 518H221C218.791 518 217 519.791 217 522C217 524.209 218.791 526 221 526H269C271.209 526 273 524.209 273 522C273 519.791 271.209 518 269 518Z" fill="#E6E7E9"/>
<path d="M380 527.35C380.9 527.35 381.63 526.62 381.63 525.72C381.63 524.82 380.9 524.09 380 524.09C379.1 524.09 378.37 524.82 378.37 525.72C378.37 526.62 379.1 527.35 380 527.35Z" fill="#969CA4"/>
<path d="M380 527.458C380.75 527.458 381.358 526.85 381.358 526.1C381.358 525.35 380.75 524.742 380 524.742C379.25 524.742 378.642 525.35 378.642 526.1C378.642 526.85 379.25 527.458 380 527.458Z" fill="#B3B8BD"/>
<path d="M385.233 520.942V519.9C385.233 517.65 384.692 514.667 380 514.667C375.308 514.667 374.767 517.65 374.767 519.9V520.942C372.433 521.233 371.667 522.417 371.667 525.325V526.875C371.667 530.292 372.708 531.333 376.125 531.333H383.875C387.292 531.333 388.333 530.292 388.333 526.875V525.325C388.333 522.417 387.567 521.233 385.233 520.942ZM380 528.617C378.608 528.617 377.483 527.483 377.483 526.1C377.483 524.708 378.617 523.583 380 523.583C381.383 523.583 382.517 524.717 382.517 526.1C382.517 527.492 381.392 528.617 380 528.617ZM376.125 520.867C376.058 520.867 376 520.867 375.933 520.867V519.9C375.933 517.458 376.625 515.833 380 515.833C383.375 515.833 384.067 517.458 384.067 519.9V520.875C384 520.875 383.942 520.875 383.875 520.875H376.125V520.867Z" fill="#B3B8BD"/>
<g filter="url(#filter0_d_103_2986)">
<path d="M534 0H150C136.745 0 126 10.7452 126 24V332C126 345.255 136.745 356 150 356H534C547.255 356 558 345.255 558 332V24C558 10.7452 547.255 0 534 0Z" fill="white"/>
<path d="M502 40.5H182C173.44 40.5 166.5 47.4396 166.5 56V96C166.5 104.56 173.44 111.5 182 111.5H502C510.56 111.5 517.5 104.56 517.5 96V56C517.5 47.4396 510.56 40.5 502 40.5Z" fill="#FBFAFA"/>
<mask id="mask6_103_2986" style="mask-type:luminance" maskUnits="userSpaceOnUse" x="182" y="64" width="24" height="24">
<path d="M206 76C206 69.3726 200.627 64 194 64C187.373 64 182 69.3726 182 76C182 82.6274 187.373 88 194 88C200.627 88 206 82.6274 206 76Z" fill="white"/>
</mask>
<g mask="url(#mask6_103_2986)">
<path d="M206 76C206 69.3726 200.627 64 194 64C187.373 64 182 69.3726 182 76C182 82.6274 187.373 88 194 88C200.627 88 206 82.6274 206 76Z" fill="#EAEBED"/>
<path fill-rule="evenodd" clip-rule="evenodd" d="M193.92 88H175.921V64.001H211.917V88H193.92Z" fill="#003399"/>
<path fill-rule="evenodd" clip-rule="evenodd" d="M193.924 66.668L194.222 67.5846L195.189 67.582L194.405 68.1492L194.706 69.0709L193.923 68.5012L193.138 69.0709L193.439 68.1492L192.655 67.5808H193.624L193.924 66.668Z" fill="#FFCC00"/>
<path fill-rule="evenodd" clip-rule="evenodd" d="M197.921 67.7402L198.219 68.6594L199.188 68.662L198.402 69.233L198.703 70.1522L197.919 69.5825L197.134 70.1522L197.435 69.233L196.652 68.662H197.618L197.921 67.7402Z" fill="#FFCC00"/>
<path fill-rule="evenodd" clip-rule="evenodd" d="M200.85 70.6699L201.147 71.5891H202.112L201.326 72.1601L201.626 73.0793L200.842 72.5109L200.059 73.0793L200.36 72.1601L199.574 71.5891H200.54L200.85 70.6699Z" fill="#FFCC00"/>
<path fill-rule="evenodd" clip-rule="evenodd" d="M201.919 74.6689L202.216 75.5856H203.181L202.395 76.1553L202.695 77.0758L201.911 76.5073L201.128 77.0758L201.429 76.1553L200.643 75.5856H201.607L201.919 74.6689Z" fill="#FFCC00"/>
<path fill-rule="evenodd" clip-rule="evenodd" d="M200.855 78.6675L201.153 79.5816L202.12 79.5803L201.336 80.1487L201.636 81.0705L200.852 80.5008L200.069 81.0705L200.37 80.1538L199.583 79.5777L200.55 79.5752L200.855 78.6675Z" fill="#FFCC00"/>
<path fill-rule="evenodd" clip-rule="evenodd" d="M197.92 81.5938L198.218 82.5077L199.188 82.5064L198.402 83.0749L198.701 83.9966L197.918 83.4269L197.134 83.9966L197.435 83.0774L196.649 82.5064L197.615 82.5039L197.92 81.5938Z" fill="#FFCC00"/>
<path fill-rule="evenodd" clip-rule="evenodd" d="M193.924 82.6665L194.222 83.5831L195.191 83.5806L194.405 84.1528L194.706 85.0733L193.923 84.5023L193.138 85.072L193.439 84.1528L192.655 83.5806H193.622L193.924 82.6665Z" fill="#FFCC00"/>
<path fill-rule="evenodd" clip-rule="evenodd" d="M189.923 81.5938L190.219 82.5077L191.191 82.5064L190.404 83.0749L190.704 83.9966L189.921 83.4269L189.134 83.9966L189.435 83.0774L188.652 82.5064L189.618 82.5039L189.923 81.5938Z" fill="#FFCC00"/>
<path fill-rule="evenodd" clip-rule="evenodd" d="M186.998 78.6675L187.297 79.5816L188.267 79.5803L187.482 80.1487L187.782 81.0705L186.996 80.5008L186.21 81.0705L186.511 80.1513L185.727 79.5803L186.694 79.5777L186.998 78.6675Z" fill="#FFCC00"/>
<path fill-rule="evenodd" clip-rule="evenodd" d="M185.928 74.6689L186.224 75.5856H187.188L186.402 76.1553L186.703 77.0758L185.919 76.5073L185.134 77.0758L185.435 76.1553L184.652 75.5856H185.618L185.928 74.6689Z" fill="#FFCC00"/>
<path fill-rule="evenodd" clip-rule="evenodd" d="M186.998 70.6699L187.297 71.5891H188.266L187.482 72.1601L187.782 73.0793L186.996 72.5109L186.21 73.0793L186.511 72.1601L185.727 71.5891H186.694L186.998 70.6699Z" fill="#FFCC00"/>
<path fill-rule="evenodd" clip-rule="evenodd" d="M189.923 67.7402L190.221 68.6594L191.191 68.662L190.407 69.233L190.707 70.1496L189.921 69.5812L189.134 70.1496L189.435 69.2304L188.652 68.6594H189.618L189.923 67.7402Z" fill="#FFCC00"/>
</g>
<mask id="mask7_103_2986" style="mask-type:luminance" maskUnits="userSpaceOnUse" x="198" y="64" width="24" height="24">
<path d="M222 76C222 69.3726 216.627 64 210 64C203.373 64 198 69.3726 198 76C198 82.6274 203.373 88 210 88C216.627 88 222 82.6274 222 76Z" fill="white"/>
</mask>
<g mask="url(#mask7_103_2986)">
<path d="M222 76C222 69.3726 216.627 64 210 64C203.373 64 198 69.3726 198 76C198 82.6274 203.373 88 210 88C216.627 88 222 82.6274 222 76Z" fill="white"/>
<path fill-rule="evenodd" clip-rule="evenodd" d="M198 64H212.4V75.2H198V64Z" fill="#1A47B8"/>
<path fill-rule="evenodd" clip-rule="evenodd" d="M212.4 64V65.6H231.6V64H212.4ZM212.4 67.2V68.8H231.6V67.2H212.4ZM212.4 70.4V72H231.6V70.4H212.4ZM212.4 73.6V75.2H231.6V73.6H212.4ZM198 76.8V78.4H231.6V76.8H198ZM198 80V81.6H231.6V80H198ZM198 83.2V84.8H231.6V83.2H198ZM198 86.4V88H231.6V86.4H198Z" fill="#F93939"/>
<path fill-rule="evenodd" clip-rule="evenodd" d="M199.6 65.6001V67.2001H201.2V65.6001H199.6ZM202.8 65.6001V67.2001H204.4V65.6001H202.8ZM206 65.6001V67.2001H207.6V65.6001H206ZM209.2 65.6001V67.2001H210.8V65.6001H209.2ZM207.6 67.2001V68.8001H209.2V67.2001H207.6ZM204.4 67.2001V68.8001H206V67.2001H204.4ZM201.2 67.2001V68.8001H202.8V67.2001H201.2ZM199.6 68.8001V70.4001H201.2V68.8001H199.6ZM202.8 68.8001V70.4001H204.4V68.8001H202.8ZM206 68.8001V70.4001H207.6V68.8001H206ZM209.2 68.8001V70.4001H210.8V68.8001H209.2ZM199.6 72.0001V73.6001H201.2V72.0001H199.6ZM202.8 72.0001V73.6001H204.4V72.0001H202.8ZM206 72.0001V73.6001H207.6V72.0001H206ZM209.2 72.0001V73.6001H210.8V72.0001H209.2ZM207.6 70.4001V72.0001H209.2V70.4001H207.6ZM204.4 70.4001V72.0001H206V70.4001H204.4ZM201.2 70.4001V72.0001H202.8V70.4001H201.2Z" fill="white"/>
</g>
<path d="M239.517 85V67.5455H251.278V70.5881H243.207V74.7472H250.673V77.7898H243.207V81.9574H251.312V85H239.517ZM264.994 67.5455H268.684V78.8807C268.684 80.1534 268.38 81.267 267.772 82.2216C267.17 83.1761 266.326 83.9205 265.241 84.4545C264.156 84.983 262.891 85.2472 261.448 85.2472C259.999 85.2472 258.732 84.983 257.647 84.4545C256.562 83.9205 255.718 83.1761 255.116 82.2216C254.513 81.267 254.212 80.1534 254.212 78.8807V67.5455H257.903V78.5653C257.903 79.2301 258.048 79.821 258.337 80.3381C258.633 80.8551 259.048 81.2614 259.582 81.5568C260.116 81.8523 260.738 82 261.448 82C262.164 82 262.786 81.8523 263.315 81.5568C263.849 81.2614 264.261 80.8551 264.55 80.3381C264.846 79.821 264.994 79.2301 264.994 78.5653V67.5455ZM271.72 85V67.5455H278.607C279.925 67.5455 281.05 67.7812 281.982 68.2528C282.919 68.7187 283.632 69.3807 284.121 70.2386C284.615 71.0909 284.862 72.0937 284.862 73.2472C284.862 74.4062 284.612 75.4034 284.112 76.2386C283.612 77.0682 282.888 77.7045 281.939 78.1477C280.996 78.5909 279.854 78.8125 278.513 78.8125H273.902V75.8466H277.916C278.621 75.8466 279.206 75.75 279.672 75.5568C280.138 75.3636 280.484 75.0739 280.712 74.6875C280.945 74.3011 281.061 73.821 281.061 73.2472C281.061 72.6676 280.945 72.179 280.712 71.7812C280.484 71.3835 280.135 71.0824 279.663 70.8778C279.197 70.6676 278.609 70.5625 277.899 70.5625H275.411V85H271.72ZM281.146 77.0568L285.484 85H281.411L277.166 77.0568H281.146ZM300.559 66.7273L294.934 87.625H291.806L297.431 66.7273H300.559ZM318.712 67.5455H322.403V78.8807C322.403 80.1534 322.099 81.267 321.491 82.2216C320.888 83.1761 320.045 83.9205 318.96 84.4545C317.874 84.983 316.61 85.2472 315.167 85.2472C313.718 85.2472 312.451 84.983 311.366 84.4545C310.281 83.9205 309.437 83.1761 308.835 82.2216C308.232 81.267 307.931 80.1534 307.931 78.8807V67.5455H311.621V78.5653C311.621 79.2301 311.766 79.821 312.056 80.3381C312.352 80.8551 312.766 81.2614 313.3 81.5568C313.835 81.8523 314.457 82 315.167 82C315.883 82 316.505 81.8523 317.033 81.5568C317.567 81.2614 317.979 80.8551 318.269 80.3381C318.565 79.821 318.712 79.2301 318.712 78.5653V67.5455ZM334.908 72.5653C334.839 71.8778 334.547 71.3437 334.03 70.9631C333.513 70.5824 332.811 70.392 331.925 70.392C331.322 70.392 330.814 70.4773 330.399 70.6477C329.984 70.8125 329.666 71.0426 329.445 71.3381C329.229 71.6335 329.121 71.9688 329.121 72.3438C329.109 72.6562 329.175 72.929 329.317 73.1619C329.464 73.3949 329.666 73.5966 329.922 73.767C330.178 73.9318 330.473 74.0767 330.808 74.2017C331.143 74.321 331.501 74.4233 331.882 74.5085L333.45 74.8835C334.212 75.054 334.911 75.2812 335.547 75.5653C336.183 75.8494 336.734 76.1989 337.2 76.6136C337.666 77.0284 338.027 77.517 338.283 78.0795C338.544 78.642 338.678 79.2869 338.683 80.0142C338.678 81.0824 338.405 82.0085 337.865 82.7926C337.331 83.571 336.558 84.1761 335.547 84.608C334.541 85.0341 333.328 85.2472 331.908 85.2472C330.499 85.2472 329.271 85.0312 328.226 84.5994C327.186 84.1676 326.374 83.5284 325.788 82.6818C325.209 81.8295 324.905 80.7756 324.876 79.5199H328.447C328.487 80.1051 328.655 80.5937 328.95 80.9858C329.251 81.3722 329.652 81.6648 330.152 81.8636C330.658 82.0568 331.229 82.1534 331.865 82.1534C332.49 82.1534 333.033 82.0625 333.493 81.8807C333.959 81.6989 334.32 81.446 334.575 81.1222C334.831 80.7983 334.959 80.4261 334.959 80.0057C334.959 79.6136 334.842 79.2841 334.609 79.017C334.382 78.75 334.047 78.5227 333.604 78.3352C333.166 78.1477 332.629 77.9773 331.993 77.8239L330.092 77.3466C328.621 76.9886 327.459 76.429 326.607 75.6676C325.754 74.9062 325.331 73.8807 325.337 72.5909C325.331 71.5341 325.612 70.6108 326.18 69.821C326.754 69.0312 327.541 68.4148 328.541 67.9716C329.541 67.5284 330.678 67.3068 331.95 67.3068C333.246 67.3068 334.376 67.5284 335.342 67.9716C336.314 68.4148 337.07 69.0312 337.609 69.821C338.149 70.6108 338.428 71.5256 338.445 72.5653H334.908ZM347.353 85H341.165V67.5455H347.404C349.16 67.5455 350.671 67.8949 351.938 68.5938C353.205 69.2869 354.18 70.2841 354.862 71.5852C355.549 72.8864 355.893 74.4432 355.893 76.2557C355.893 78.0739 355.549 79.6364 354.862 80.9432C354.18 82.25 353.2 83.2528 351.921 83.9517C350.648 84.6506 349.126 85 347.353 85ZM344.856 81.8381H347.2C348.29 81.8381 349.208 81.6449 349.952 81.2585C350.702 80.8665 351.265 80.2614 351.64 79.4432C352.021 78.6193 352.211 77.5568 352.211 76.2557C352.211 74.9659 352.021 73.9119 351.64 73.0938C351.265 72.2756 350.705 71.6733 349.961 71.2869C349.217 70.9006 348.299 70.7074 347.208 70.7074H344.856V81.8381Z" fill="#6B747F"/>
<path d="M502 40.5H182C173.44 40.5 166.5 47.4396 166.5 56V96C166.5 104.56 173.44 111.5 182 111.5H502C510.56 111.5 517.5 104.56 517.5 96V56C517.5 47.4396 510.56 40.5 502 40.5Z" stroke="#F2F3F4"/>
<path d="M502 132H182C173.163 132 166 139.163 166 148V188C166 196.837 173.163 204 182 204H502C510.837 204 518 196.837 518 188V148C518 139.163 510.837 132 502 132Z" fill="#F2F3F4"/>
<path d="M209.25 168C209.25 162.891 205.109 158.75 200 158.75C194.891 158.75 190.75 162.891 190.75 168C190.75 173.109 194.891 177.25 200 177.25C205.109 177.25 209.25 173.109 209.25 168Z" fill="white"/>
<path d="M209.25 168C209.25 162.891 205.109 158.75 200 158.75C194.891 158.75 190.75 162.891 190.75 168C190.75 173.109 194.891 177.25 200 177.25C205.109 177.25 209.25 173.109 209.25 168Z" stroke="#CACED1" stroke-width="1.5"/>
<path d="M228.099 165.5H226.778C226.7 165.12 226.564 164.786 226.368 164.499C226.176 164.211 225.942 163.969 225.665 163.774C225.392 163.575 225.088 163.426 224.754 163.327C224.42 163.227 224.072 163.178 223.71 163.178C223.05 163.178 222.451 163.344 221.915 163.678C221.382 164.012 220.958 164.504 220.642 165.154C220.33 165.804 220.173 166.601 220.173 167.545C220.173 168.49 220.33 169.287 220.642 169.937C220.958 170.587 221.382 171.079 221.915 171.413C222.451 171.746 223.05 171.913 223.71 171.913C224.072 171.913 224.42 171.864 224.754 171.764C225.088 171.665 225.392 171.517 225.665 171.322C225.942 171.123 226.176 170.88 226.368 170.592C226.564 170.301 226.7 169.967 226.778 169.591H228.099C228 170.148 227.819 170.647 227.556 171.088C227.293 171.528 226.967 171.903 226.576 172.212C226.185 172.517 225.747 172.75 225.26 172.909C224.777 173.069 224.261 173.149 223.71 173.149C222.78 173.149 221.952 172.922 221.228 172.467C220.504 172.013 219.934 171.366 219.518 170.528C219.103 169.69 218.895 168.696 218.895 167.545C218.895 166.395 219.103 165.401 219.518 164.562C219.934 163.724 220.504 163.078 221.228 162.624C221.952 162.169 222.78 161.942 223.71 161.942C224.261 161.942 224.777 162.022 225.26 162.181C225.747 162.341 226.185 162.576 226.576 162.885C226.967 163.19 227.293 163.563 227.556 164.003C227.819 164.44 228 164.939 228.099 165.5ZM235.22 169.655V164.818H236.477V173H235.22V171.615H235.135C234.943 172.031 234.645 172.384 234.24 172.675C233.835 172.963 233.324 173.107 232.706 173.107C232.194 173.107 231.74 172.995 231.342 172.771C230.944 172.544 230.632 172.203 230.405 171.748C230.177 171.29 230.064 170.713 230.064 170.017V164.818H231.321V169.932C231.321 170.528 231.488 171.004 231.821 171.359C232.159 171.714 232.589 171.892 233.111 171.892C233.423 171.892 233.741 171.812 234.064 171.652C234.391 171.493 234.664 171.248 234.884 170.917C235.108 170.587 235.22 170.166 235.22 169.655ZM238.779 173V164.818H239.994V166.054H240.079C240.228 165.649 240.498 165.321 240.889 165.069C241.279 164.816 241.72 164.69 242.21 164.69C242.302 164.69 242.418 164.692 242.556 164.696C242.695 164.699 242.799 164.705 242.87 164.712V165.99C242.828 165.979 242.73 165.963 242.577 165.942C242.428 165.917 242.27 165.905 242.103 165.905C241.706 165.905 241.35 165.988 241.038 166.155C240.729 166.319 240.484 166.546 240.303 166.837C240.125 167.125 240.037 167.453 240.037 167.822V173H238.779ZM244.361 173V164.818H245.575V166.054H245.66C245.809 165.649 246.079 165.321 246.47 165.069C246.861 164.816 247.301 164.69 247.791 164.69C247.883 164.69 247.999 164.692 248.137 164.696C248.276 164.699 248.38 164.705 248.451 164.712V165.99C248.409 165.979 248.311 165.963 248.158 165.942C248.009 165.917 247.851 165.905 247.684 165.905C247.287 165.905 246.932 165.988 246.619 166.155C246.31 166.319 246.065 166.546 245.884 166.837C245.706 167.125 245.618 167.453 245.618 167.822V173H244.361ZM253.123 173.17C252.335 173.17 251.655 172.996 251.083 172.648C250.515 172.297 250.076 171.807 249.767 171.178C249.462 170.546 249.309 169.811 249.309 168.973C249.309 168.135 249.462 167.396 249.767 166.757C250.076 166.114 250.506 165.614 251.056 165.255C251.61 164.893 252.256 164.712 252.995 164.712C253.421 164.712 253.842 164.783 254.258 164.925C254.673 165.067 255.051 165.298 255.392 165.617C255.733 165.933 256.005 166.352 256.207 166.874C256.41 167.396 256.511 168.039 256.511 168.803V169.335H250.204V168.249H255.232C255.232 167.787 255.14 167.375 254.955 167.013C254.774 166.651 254.515 166.365 254.178 166.155C253.844 165.946 253.45 165.841 252.995 165.841C252.494 165.841 252.061 165.965 251.695 166.214C251.333 166.459 251.054 166.778 250.859 167.173C250.664 167.567 250.566 167.989 250.566 168.44V169.165C250.566 169.783 250.673 170.306 250.886 170.736C251.102 171.162 251.402 171.487 251.786 171.711C252.169 171.931 252.615 172.041 253.123 172.041C253.453 172.041 253.752 171.995 254.018 171.903C254.288 171.807 254.52 171.665 254.716 171.477C254.911 171.285 255.062 171.047 255.168 170.763L256.383 171.104C256.255 171.516 256.04 171.878 255.738 172.19C255.437 172.499 255.064 172.741 254.62 172.915C254.176 173.085 253.677 173.17 253.123 173.17ZM259.68 168.078V173H258.423V164.818H259.638V166.097H259.744C259.936 165.681 260.227 165.347 260.618 165.095C261.008 164.839 261.513 164.712 262.13 164.712C262.684 164.712 263.169 164.825 263.585 165.053C264 165.276 264.323 165.617 264.554 166.075C264.785 166.53 264.9 167.105 264.9 167.801V173H263.643V167.886C263.643 167.244 263.476 166.743 263.142 166.384C262.809 166.022 262.351 165.841 261.768 165.841C261.367 165.841 261.008 165.928 260.692 166.102C260.38 166.276 260.133 166.53 259.952 166.864C259.771 167.197 259.68 167.602 259.68 168.078ZM270.756 164.818V165.884H266.516V164.818H270.756ZM267.751 162.858H269.009V170.656C269.009 171.011 269.06 171.278 269.163 171.455C269.27 171.629 269.404 171.746 269.568 171.807C269.735 171.864 269.911 171.892 270.095 171.892C270.234 171.892 270.347 171.885 270.436 171.871C270.525 171.853 270.596 171.839 270.649 171.828L270.905 172.957C270.82 172.989 270.701 173.021 270.548 173.053C270.395 173.089 270.202 173.107 269.967 173.107C269.612 173.107 269.264 173.03 268.923 172.877C268.586 172.725 268.305 172.492 268.082 172.18C267.862 171.867 267.751 171.473 267.751 170.997V162.858ZM276.865 173V164.818H278.08V166.054H278.165C278.314 165.649 278.584 165.321 278.975 165.069C279.365 164.816 279.806 164.69 280.296 164.69C280.388 164.69 280.504 164.692 280.642 164.696C280.781 164.699 280.885 164.705 280.956 164.712V165.99C280.914 165.979 280.816 165.963 280.663 165.942C280.514 165.917 280.356 165.905 280.189 165.905C279.792 165.905 279.436 165.988 279.124 166.155C278.815 166.319 278.57 166.546 278.389 166.837C278.211 167.125 278.123 167.453 278.123 167.822V173H276.865ZM284.854 173.192C284.336 173.192 283.865 173.094 283.443 172.899C283.02 172.7 282.684 172.414 282.436 172.041C282.187 171.665 282.063 171.21 282.063 170.678C282.063 170.209 282.155 169.829 282.34 169.538C282.525 169.243 282.771 169.012 283.08 168.845C283.389 168.678 283.73 168.554 284.103 168.472C284.479 168.387 284.858 168.32 285.238 168.27C285.735 168.206 286.138 168.158 286.447 168.126C286.759 168.091 286.987 168.032 287.129 167.95C287.274 167.869 287.347 167.727 287.347 167.524V167.482C287.347 166.956 287.203 166.548 286.916 166.256C286.631 165.965 286.2 165.82 285.621 165.82C285.021 165.82 284.551 165.951 284.21 166.214C283.869 166.477 283.629 166.757 283.491 167.055L282.297 166.629C282.51 166.132 282.794 165.745 283.15 165.468C283.508 165.187 283.899 164.992 284.321 164.882C284.748 164.768 285.167 164.712 285.579 164.712C285.841 164.712 286.143 164.744 286.484 164.808C286.829 164.868 287.161 164.994 287.48 165.186C287.803 165.377 288.071 165.667 288.285 166.054C288.498 166.441 288.604 166.96 288.604 167.609V173H287.347V171.892H287.283C287.198 172.07 287.056 172.26 286.857 172.462C286.658 172.664 286.394 172.837 286.063 172.979C285.733 173.121 285.33 173.192 284.854 173.192ZM285.046 172.062C285.543 172.062 285.962 171.965 286.303 171.77C286.647 171.574 286.907 171.322 287.081 171.013C287.258 170.704 287.347 170.379 287.347 170.038V168.888C287.294 168.952 287.177 169.01 286.995 169.064C286.818 169.113 286.612 169.158 286.378 169.197C286.147 169.232 285.921 169.264 285.701 169.293C285.484 169.317 285.309 169.339 285.174 169.357C284.847 169.399 284.542 169.468 284.258 169.564C283.977 169.657 283.75 169.797 283.576 169.985C283.405 170.17 283.32 170.422 283.32 170.741C283.32 171.178 283.482 171.509 283.805 171.732C284.131 171.952 284.545 172.062 285.046 172.062ZM294.457 164.818V165.884H290.217V164.818H294.457ZM291.453 162.858H292.71V170.656C292.71 171.011 292.761 171.278 292.864 171.455C292.971 171.629 293.106 171.746 293.269 171.807C293.436 171.864 293.612 171.892 293.796 171.892C293.935 171.892 294.048 171.885 294.137 171.871C294.226 171.853 294.297 171.839 294.35 171.828L294.606 172.957C294.521 172.989 294.402 173.021 294.249 173.053C294.096 173.089 293.903 173.107 293.669 173.107C293.313 173.107 292.965 173.03 292.624 172.877C292.287 172.725 292.007 172.492 291.783 172.18C291.563 171.867 291.453 171.473 291.453 170.997V162.858ZM299.69 173.17C298.902 173.17 298.222 172.996 297.65 172.648C297.082 172.297 296.643 171.807 296.335 171.178C296.029 170.546 295.876 169.811 295.876 168.973C295.876 168.135 296.029 167.396 296.335 166.757C296.643 166.114 297.073 165.614 297.624 165.255C298.178 164.893 298.824 164.712 299.562 164.712C299.989 164.712 300.409 164.783 300.825 164.925C301.24 165.067 301.619 165.298 301.96 165.617C302.3 165.933 302.572 166.352 302.775 166.874C302.977 167.396 303.078 168.039 303.078 168.803V169.335H296.771V168.249H301.8C301.8 167.787 301.707 167.375 301.523 167.013C301.342 166.651 301.082 166.365 300.745 166.155C300.411 165.946 300.017 165.841 299.562 165.841C299.062 165.841 298.629 165.965 298.263 166.214C297.901 166.459 297.622 166.778 297.426 167.173C297.231 167.567 297.134 167.989 297.134 168.44V169.165C297.134 169.783 297.24 170.306 297.453 170.736C297.67 171.162 297.97 171.487 298.353 171.711C298.737 171.931 299.183 172.041 299.69 172.041C300.021 172.041 300.319 171.995 300.585 171.903C300.855 171.807 301.088 171.665 301.283 171.477C301.478 171.285 301.629 171.047 301.736 170.763L302.95 171.104C302.822 171.516 302.608 171.878 302.306 172.19C302.004 172.499 301.631 172.741 301.187 172.915C300.743 173.085 300.244 173.17 299.69 173.17Z" fill="#2C3948"/>
<path d="M447.445 407.139C446.782 407.139 446.188 407.015 445.665 406.766C445.141 406.514 444.725 406.17 444.417 405.732C444.112 405.295 443.95 404.794 443.93 404.231H445.719C445.753 404.648 445.933 404.99 446.261 405.255C446.589 405.517 446.984 405.648 447.445 405.648C447.806 405.648 448.127 405.565 448.409 405.399C448.691 405.233 448.913 405.003 449.075 404.708C449.238 404.413 449.317 404.077 449.314 403.699C449.317 403.314 449.236 402.973 449.07 402.675C448.905 402.376 448.678 402.143 448.389 401.974C448.101 401.801 447.769 401.715 447.395 401.715C447.09 401.712 446.79 401.768 446.495 401.884C446.2 402 445.966 402.153 445.794 402.342L444.129 402.068L444.661 396.818H450.567V398.359H446.187L445.893 401.059H445.953C446.142 400.837 446.409 400.653 446.754 400.507C447.098 400.358 447.476 400.283 447.887 400.283C448.504 400.283 449.054 400.429 449.538 400.721C450.022 401.009 450.403 401.407 450.681 401.914C450.96 402.421 451.099 403.001 451.099 403.654C451.099 404.327 450.943 404.927 450.631 405.454C450.323 405.978 449.894 406.39 449.344 406.692C448.797 406.99 448.164 407.139 447.445 407.139ZM456.304 407.139C455.641 407.139 455.048 407.015 454.524 406.766C454 406.514 453.585 406.17 453.276 405.732C452.971 405.295 452.809 404.794 452.789 404.231H454.579C454.612 404.648 454.793 404.99 455.121 405.255C455.449 405.517 455.843 405.648 456.304 405.648C456.665 405.648 456.987 405.565 457.268 405.399C457.55 405.233 457.772 405.003 457.935 404.708C458.097 404.413 458.177 404.077 458.173 403.699C458.177 403.314 458.095 402.973 457.93 402.675C457.764 402.376 457.537 402.143 457.249 401.974C456.96 401.801 456.629 401.715 456.254 401.715C455.949 401.712 455.649 401.768 455.354 401.884C455.059 402 454.826 402.153 454.653 402.342L452.988 402.068L453.52 396.818H459.426V398.359H455.046L454.753 401.059H454.812C455.001 400.837 455.268 400.653 455.613 400.507C455.958 400.358 456.335 400.283 456.746 400.283C457.363 400.283 457.913 400.429 458.397 400.721C458.881 401.009 459.262 401.407 459.54 401.914C459.819 402.421 459.958 403.001 459.958 403.654C459.958 404.327 459.802 404.927 459.491 405.454C459.183 405.978 458.753 406.39 458.203 406.692C457.656 406.99 457.023 407.139 456.304 407.139ZM465.387 407.194C464.568 407.194 463.866 406.987 463.279 406.572C462.696 406.155 462.247 405.553 461.932 404.768C461.62 403.979 461.464 403.029 461.464 401.919C461.468 400.809 461.625 399.864 461.937 399.085C462.252 398.303 462.701 397.706 463.284 397.295C463.871 396.884 464.572 396.679 465.387 396.679C466.202 396.679 466.903 396.884 467.49 397.295C468.077 397.706 468.526 398.303 468.837 399.085C469.152 399.867 469.31 400.812 469.31 401.919C469.31 403.033 469.152 403.984 468.837 404.773C468.526 405.558 468.077 406.158 467.49 406.572C466.907 406.987 466.206 407.194 465.387 407.194ZM465.387 405.638C466.023 405.638 466.526 405.325 466.893 404.698C467.265 404.068 467.45 403.142 467.45 401.919C467.45 401.11 467.366 400.431 467.197 399.881C467.028 399.33 466.789 398.916 466.481 398.638C466.173 398.356 465.808 398.215 465.387 398.215C464.754 398.215 464.254 398.53 463.886 399.16C463.518 399.786 463.332 400.706 463.329 401.919C463.326 402.731 463.407 403.414 463.572 403.967C463.741 404.521 463.98 404.938 464.288 405.22C464.597 405.499 464.963 405.638 465.387 405.638Z" fill="#6B747F"/>
<path d="M502 220H182C173.163 220 166 227.163 166 236V276C166 284.837 173.163 292 182 292H502C510.837 292 518 284.837 518 276V236C518 227.163 510.837 220 502 220Z" fill="#F2F3F4"/>
<path d="M206 256C206 252.686 203.314 250 200 250C196.686 250 194 252.686 194 256C194 259.314 196.686 262 200 262C203.314 262 206 259.314 206 256Z" fill="#359EB4"/>
<path d="M209.5 256C209.5 250.753 205.247 246.5 200 246.5C194.753 246.5 190.5 250.753 190.5 256C190.5 261.247 194.753 265.5 200 265.5C205.247 265.5 209.5 261.247 209.5 256Z" stroke="#359EB4"/>
<path d="M219.321 261V250.091H220.642V259.828H225.713V261H219.321ZM230.912 261.17C230.173 261.17 229.525 260.995 228.968 260.643C228.414 260.292 227.98 259.8 227.668 259.168C227.359 258.536 227.205 257.797 227.205 256.952C227.205 256.099 227.359 255.355 227.668 254.72C227.98 254.084 228.414 253.591 228.968 253.239C229.525 252.887 230.173 252.712 230.912 252.712C231.651 252.712 232.297 252.887 232.851 253.239C233.408 253.591 233.842 254.084 234.151 254.72C234.463 255.355 234.619 256.099 234.619 256.952C234.619 257.797 234.463 258.536 234.151 259.168C233.842 259.8 233.408 260.292 232.851 260.643C232.297 260.995 231.651 261.17 230.912 261.17ZM230.912 260.041C231.473 260.041 231.935 259.897 232.297 259.61C232.659 259.322 232.927 258.944 233.101 258.475C233.275 258.006 233.362 257.499 233.362 256.952C233.362 256.405 233.275 255.895 233.101 255.423C232.927 254.951 232.659 254.569 232.297 254.278C231.935 253.987 231.473 253.841 230.912 253.841C230.351 253.841 229.889 253.987 229.527 254.278C229.165 254.569 228.897 254.951 228.723 255.423C228.549 255.895 228.462 256.405 228.462 256.952C228.462 257.499 228.549 258.006 228.723 258.475C228.897 258.944 229.165 259.322 229.527 259.61C229.889 259.897 230.351 260.041 230.912 260.041ZM239.862 261.17C239.095 261.17 238.435 260.989 237.881 260.627C237.327 260.265 236.9 259.766 236.602 259.13C236.304 258.495 236.155 257.768 236.155 256.952C236.155 256.121 236.307 255.387 236.613 254.752C236.922 254.113 237.351 253.614 237.902 253.255C238.456 252.893 239.102 252.712 239.841 252.712C240.416 252.712 240.935 252.818 241.396 253.031C241.858 253.244 242.236 253.543 242.531 253.926C242.826 254.31 243.008 254.757 243.079 255.268H241.822C241.726 254.896 241.513 254.565 241.183 254.278C240.856 253.987 240.416 253.841 239.862 253.841C239.372 253.841 238.942 253.969 238.573 254.224C238.207 254.477 237.921 254.833 237.715 255.295C237.513 255.753 237.412 256.291 237.412 256.909C237.412 257.541 237.511 258.092 237.71 258.56C237.913 259.029 238.197 259.393 238.562 259.652C238.932 259.912 239.365 260.041 239.862 260.041C240.189 260.041 240.485 259.984 240.752 259.871C241.018 259.757 241.244 259.594 241.428 259.381C241.613 259.168 241.744 258.912 241.822 258.614H243.079C243.008 259.097 242.833 259.532 242.552 259.919C242.275 260.302 241.908 260.608 241.449 260.835C240.995 261.059 240.466 261.17 239.862 261.17ZM246.089 258.017L246.068 256.462H246.323L249.903 252.818H251.458L247.644 256.675H247.538L246.089 258.017ZM244.917 261V250.091H246.174V261H244.917ZM250.116 261L246.92 256.952L247.815 256.078L251.714 261H250.116ZM256.17 261.17C255.381 261.17 254.701 260.996 254.13 260.648C253.562 260.297 253.123 259.807 252.814 259.178C252.509 258.546 252.356 257.811 252.356 256.973C252.356 256.135 252.509 255.396 252.814 254.757C253.123 254.114 253.553 253.614 254.103 253.255C254.657 252.893 255.303 252.712 256.042 252.712C256.468 252.712 256.889 252.783 257.304 252.925C257.72 253.067 258.098 253.298 258.439 253.617C258.78 253.933 259.052 254.352 259.254 254.874C259.456 255.396 259.558 256.039 259.558 256.803V257.335H253.251V256.249H258.279C258.279 255.787 258.187 255.375 258.002 255.013C257.821 254.651 257.562 254.365 257.225 254.155C256.891 253.946 256.497 253.841 256.042 253.841C255.541 253.841 255.108 253.965 254.742 254.214C254.38 254.459 254.101 254.778 253.906 255.173C253.711 255.567 253.613 255.989 253.613 256.44V257.165C253.613 257.783 253.72 258.306 253.933 258.736C254.149 259.162 254.449 259.487 254.833 259.711C255.216 259.931 255.662 260.041 256.17 260.041C256.5 260.041 256.798 259.995 257.065 259.903C257.335 259.807 257.567 259.665 257.763 259.477C257.958 259.285 258.109 259.047 258.215 258.763L259.43 259.104C259.302 259.516 259.087 259.878 258.785 260.19C258.483 260.499 258.111 260.741 257.667 260.915C257.223 261.085 256.724 261.17 256.17 261.17ZM264.559 261.17C263.878 261.17 263.276 260.998 262.754 260.654C262.232 260.306 261.823 259.816 261.528 259.184C261.234 258.548 261.086 257.797 261.086 256.93C261.086 256.071 261.234 255.325 261.528 254.693C261.823 254.061 262.233 253.573 262.759 253.228C263.285 252.884 263.892 252.712 264.581 252.712C265.113 252.712 265.534 252.8 265.843 252.978C266.156 253.152 266.394 253.351 266.557 253.575C266.724 253.795 266.853 253.976 266.946 254.118H267.052V250.091H268.309V261H267.095V259.743H266.946C266.853 259.892 266.722 260.08 266.552 260.308C266.381 260.531 266.138 260.732 265.822 260.909C265.506 261.083 265.085 261.17 264.559 261.17ZM264.73 260.041C265.234 260.041 265.66 259.91 266.008 259.647C266.356 259.381 266.621 259.013 266.802 258.544C266.983 258.072 267.074 257.527 267.074 256.909C267.074 256.298 266.985 255.764 266.807 255.306C266.63 254.844 266.367 254.485 266.019 254.23C265.671 253.971 265.241 253.841 264.73 253.841C264.197 253.841 263.753 253.978 263.398 254.251C263.047 254.521 262.782 254.888 262.604 255.354C262.43 255.815 262.343 256.334 262.343 256.909C262.343 257.491 262.432 258.021 262.61 258.496C262.791 258.969 263.057 259.345 263.409 259.626C263.764 259.903 264.204 260.041 264.73 260.041ZM275.005 261V252.818H276.22V254.054H276.305C276.454 253.649 276.724 253.321 277.114 253.069C277.505 252.816 277.945 252.69 278.435 252.69C278.528 252.69 278.643 252.692 278.782 252.696C278.92 252.699 279.025 252.705 279.096 252.712V253.99C279.053 253.979 278.956 253.963 278.803 253.942C278.654 253.917 278.496 253.905 278.329 253.905C277.931 253.905 277.576 253.988 277.264 254.155C276.955 254.319 276.71 254.546 276.528 254.837C276.351 255.125 276.262 255.453 276.262 255.822V261H275.005ZM282.994 261.192C282.475 261.192 282.005 261.094 281.582 260.899C281.16 260.7 280.824 260.414 280.575 260.041C280.327 259.665 280.203 259.21 280.203 258.678C280.203 258.209 280.295 257.829 280.48 257.538C280.664 257.243 280.911 257.012 281.22 256.845C281.529 256.678 281.87 256.554 282.243 256.472C282.619 256.387 282.997 256.32 283.377 256.27C283.874 256.206 284.278 256.158 284.586 256.126C284.899 256.091 285.126 256.032 285.268 255.95C285.414 255.869 285.487 255.727 285.487 255.524V255.482C285.487 254.956 285.343 254.548 285.055 254.256C284.771 253.965 284.34 253.82 283.761 253.82C283.161 253.82 282.69 253.951 282.349 254.214C282.008 254.477 281.769 254.757 281.63 255.055L280.437 254.629C280.65 254.132 280.934 253.745 281.289 253.468C281.648 253.187 282.039 252.992 282.461 252.882C282.887 252.768 283.306 252.712 283.718 252.712C283.981 252.712 284.283 252.744 284.624 252.808C284.968 252.868 285.3 252.994 285.62 253.186C285.943 253.377 286.211 253.667 286.424 254.054C286.637 254.441 286.744 254.96 286.744 255.609V261H285.487V259.892H285.423C285.338 260.07 285.195 260.26 284.997 260.462C284.798 260.664 284.533 260.837 284.203 260.979C283.873 261.121 283.47 261.192 282.994 261.192ZM283.186 260.062C283.683 260.062 284.102 259.965 284.443 259.77C284.787 259.574 285.046 259.322 285.22 259.013C285.398 258.704 285.487 258.379 285.487 258.038V256.888C285.433 256.952 285.316 257.01 285.135 257.064C284.958 257.113 284.752 257.158 284.517 257.197C284.286 257.232 284.061 257.264 283.841 257.293C283.624 257.317 283.448 257.339 283.313 257.357C282.987 257.399 282.681 257.468 282.397 257.564C282.117 257.657 281.889 257.797 281.715 257.985C281.545 258.17 281.46 258.422 281.46 258.741C281.46 259.178 281.621 259.509 281.944 259.732C282.271 259.952 282.685 260.062 283.186 260.062ZM292.597 252.818V253.884H288.356V252.818H292.597ZM289.592 250.858H290.849V258.656C290.849 259.011 290.901 259.278 291.004 259.455C291.11 259.629 291.245 259.746 291.409 259.807C291.576 259.864 291.751 259.892 291.936 259.892C292.074 259.892 292.188 259.885 292.277 259.871C292.366 259.853 292.437 259.839 292.49 259.828L292.746 260.957C292.66 260.989 292.541 261.021 292.389 261.053C292.236 261.089 292.043 261.107 291.808 261.107C291.453 261.107 291.105 261.03 290.764 260.877C290.427 260.725 290.146 260.492 289.922 260.18C289.702 259.867 289.592 259.473 289.592 258.997V250.858ZM297.83 261.17C297.042 261.17 296.362 260.996 295.79 260.648C295.222 260.297 294.783 259.807 294.474 259.178C294.169 258.546 294.016 257.811 294.016 256.973C294.016 256.135 294.169 255.396 294.474 254.757C294.783 254.114 295.213 253.614 295.763 253.255C296.317 252.893 296.964 252.712 297.702 252.712C298.128 252.712 298.549 252.783 298.965 252.925C299.38 253.067 299.758 253.298 300.099 253.617C300.44 253.933 300.712 254.352 300.914 254.874C301.117 255.396 301.218 256.039 301.218 256.803V257.335H294.911V256.249H299.939C299.939 255.787 299.847 255.375 299.662 255.013C299.481 254.651 299.222 254.365 298.885 254.155C298.551 253.946 298.157 253.841 297.702 253.841C297.201 253.841 296.768 253.965 296.402 254.214C296.04 254.459 295.761 254.778 295.566 255.173C295.371 255.567 295.273 255.989 295.273 256.44V257.165C295.273 257.783 295.38 258.306 295.593 258.736C295.809 259.162 296.109 259.487 296.493 259.711C296.877 259.931 297.322 260.041 297.83 260.041C298.16 260.041 298.459 259.995 298.725 259.903C298.995 259.807 299.227 259.665 299.423 259.477C299.618 259.285 299.769 259.047 299.875 258.763L301.09 259.104C300.962 259.516 300.747 259.878 300.445 260.19C300.144 260.499 299.771 260.741 299.327 260.915C298.883 261.085 298.384 261.17 297.83 261.17Z" fill="#2C3948"/>
<path d="M414 308H170C167.791 308 166 309.791 166 312C166 314.209 167.791 316 170 316H414C416.209 316 418 314.209 418 312C418 309.791 416.209 308 414 308Z" fill="#E6E7E9"/>
</g>
<path d="M518 423.458C518.75 423.458 519.358 422.85 519.358 422.1C519.358 421.35 518.75 420.742 518 420.742C517.25 420.742 516.642 421.35 516.642 422.1C516.642 422.85 517.25 423.458 518 423.458Z" fill="#06B3A8"/>
<path d="M523.233 416.942V415.9C523.233 413.65 522.692 410.667 518 410.667C513.308 410.667 512.767 413.65 512.767 415.9V416.942C510.433 417.233 509.667 418.417 509.667 421.325V422.875C509.667 426.292 510.708 427.333 514.125 427.333H521.875C525.292 427.333 526.333 426.292 526.333 422.875V421.325C526.333 418.417 525.567 417.233 523.233 416.942ZM518 424.617C516.608 424.617 515.483 423.483 515.483 422.1C515.483 420.708 516.617 419.583 518 419.583C519.383 419.583 520.517 420.717 520.517 422.1C520.517 423.492 519.392 424.617 518 424.617ZM514.125 416.867C514.058 416.867 514 416.867 513.933 416.867V415.9C513.933 413.458 514.625 411.833 518 411.833C521.375 411.833 522.067 413.458 522.067 415.9V416.875C522 416.875 521.942 416.875 521.875 416.875H514.125V416.867Z" fill="#06B3A8"/>
</g>
<defs>
<filter id="filter0_d_103_2986" x="122" y="0" width="436" height="411.194" filterUnits="userSpaceOnUse" color-interpolation-filters="sRGB">
<feFlood flood-opacity="0" result="BackgroundImageFix"/>
<feColorMatrix in="SourceAlpha" type="matrix" values="0 0 0 0 0 0 0 0 0 0 0 0 0 0 0 0 0 0 127 0" result="hardAlpha"/>
<feOffset dx="-2" dy="2"/>
<feGaussianBlur stdDeviation="1"/>
<feComposite in2="hardAlpha" operator="out"/>
<feColorMatrix type="matrix" values="0 0 0 0 0 0 0 0 0 0 0 0 0 0 0 0 0 0 0.06 0"/>
<feBlend mode="normal" in2="BackgroundImageFix" result="effect1_dropShadow_103_2986"/>
<feBlend mode="normal" in="SourceGraphic" in2="effect1_dropShadow_103_2986" result="shape"/>
</filter>
<clipPath id="clip0_103_2986">
<rect width="558" height="558" fill="white"/>
</clipPath>
</defs>
</svg>
