<svg width="34" height="49" viewBox="0 0 34 49" fill="none" xmlns="http://www.w3.org/2000/svg">
<path d="M26.7454 9.022C27.6234 7.77582 29.6916 4.85995 31.6071 2.16794C32.2961 1.19953 32.9196 0.407331 32.9927 0.407715C33.0657 0.408099 33.2875 0.537954 33.4855 0.696496L33.8456 0.98451L31.5747 4.18557C30.3255 5.94606 29.0412 7.76109 28.7204 8.21892C28.3996 8.67674 28.0919 9.10895 28.0365 9.17939C27.9812 9.24982 27.3273 10.1719 26.5837 11.2284C25.321 13.022 23.9889 14.9042 20.1911 20.2609C19.3459 21.4532 18.2983 22.934 17.863 23.5518C17.4277 24.1695 16.4377 25.5683 15.6632 26.66C14.8886 27.7517 13.7752 29.326 13.189 30.1585C12.6028 30.9909 11.9791 31.8633 11.803 32.0969C11.4355 32.5848 10.8828 33.3625 9.61506 35.1762C8.40525 36.9071 8.48375 36.8471 7.97726 36.4244L7.55465 36.0715L7.80323 35.7519C7.93987 35.5761 8.27629 35.1105 8.55073 34.7172C8.82517 34.3238 10.0582 32.5792 11.2908 30.8401C12.5234 29.101 13.6046 27.5738 13.6935 27.4464C13.8315 27.2486 13.7952 27.1324 13.4441 26.6492C12.3692 25.1693 7.02563 17.7202 6.10293 16.4149C4.22732 13.762 1.66196 10.2066 1.5289 10.0758C1.44067 9.989 1.41403 14.3219 1.4463 23.5224L1.49394 37.0971H0.981691H0.469438L0.391705 29.4133C0.348932 25.1873 0.305646 18.6417 0.295657 14.8677L0.277344 8.00582L0.75758 7.85791C1.19556 7.72318 1.25728 7.73535 1.45962 7.9966C1.73291 8.34967 7.36307 16.1878 8.79431 18.2078C9.56614 19.2973 14.4318 26.0906 14.5411 26.2315C14.5495 26.2424 14.9598 25.6765 15.4528 24.974C15.9459 24.2715 16.4205 23.5999 16.5074 23.4816C16.6715 23.2582 18.1811 21.1273 21.1516 16.9254C22.1025 15.5804 23.572 13.5046 24.4172 12.3126C25.2624 11.1206 26.3101 9.63978 26.7454 9.022Z" fill="#06B3A8"/>
<path d="M22.591 19.2323C22.8647 18.8449 23.8164 17.4763 24.7059 16.1908C25.5953 14.9055 26.3898 13.8537 26.4716 13.8537C26.5533 13.8537 26.8016 13.917 27.0234 13.9943L27.4267 14.1349V25.52V36.905H26.8504H26.2741L26.2684 26.4359C26.2634 17.1194 26.2416 15.9949 26.0714 16.2229C25.9662 16.3637 25.1836 17.4875 24.3321 18.7201C23.4807 19.9527 21.7973 22.3701 20.5912 24.0921C18.6252 26.8991 17.5908 28.3805 15.9651 30.7178C15.6833 31.1227 14.4155 32.9384 13.1477 34.7524C9.56717 39.8753 7.79785 42.4093 7.44887 42.9139C6.46484 44.3365 3.9539 47.8997 3.7476 48.1662C3.51209 48.4704 3.49787 48.4726 3.16555 48.2547C2.97819 48.132 2.79545 47.9548 2.75946 47.8611C2.72347 47.7673 3.07744 47.1512 3.54615 46.492C4.01486 45.8326 6.34804 42.4982 8.73117 39.0821C11.1143 35.666 13.4287 32.3529 13.8743 31.7196C14.3198 31.0864 15.0051 30.1067 15.3971 29.5426C16.8587 27.4393 22.1113 19.9112 22.591 19.2323Z" fill="#06B3A8"/>
</svg>
